G75*
%MOMM*%
%OFA0B0*%
%FSLAX33Y33*%
%IPPOS*%
%LPD*%
%AMOC8*
5,1,8,0,0,1.08239X$1,22.5*
%
%ADD10C,1.321*%
%ADD11OC8,1.321*%
%ADD12C,1.524*%
%ADD13C,1.270*%
D10*
X42164Y05283D02*
X42164Y06604D01*
X44704Y06604D02*
X44704Y05283D01*
X47244Y05283D02*
X47244Y06604D01*
X47244Y14224D02*
X47244Y15545D01*
X44704Y15545D02*
X44704Y14224D01*
X42164Y14224D02*
X42164Y15545D01*
D11*
X37084Y15494D03*
X34544Y15494D03*
X29464Y15494D03*
X26924Y15494D03*
X26924Y05334D03*
X29464Y05334D03*
X34544Y05334D03*
X37084Y05334D03*
D12*
X52832Y06604D02*
X54356Y06604D01*
X54356Y09144D02*
X52832Y09144D01*
X52832Y11684D02*
X54356Y11684D01*
X54356Y14224D02*
X52832Y14224D01*
X21336Y12954D02*
X19812Y12954D01*
X19812Y10414D02*
X21336Y10414D01*
X21336Y07874D02*
X19812Y07874D01*
D13*
X18034Y05334D02*
X16764Y06604D01*
X16764Y11684D01*
X18034Y12954D01*
X20574Y12954D01*
X25654Y10414D02*
X28194Y12954D01*
X38354Y12954D01*
X39624Y11684D01*
X43434Y11684D01*
X45974Y09144D01*
X53594Y09144D01*
X44704Y07874D02*
X44704Y06604D01*
X44704Y04064D01*
X45974Y02794D01*
X48514Y02794D01*
X49784Y04064D01*
X49784Y05334D01*
X51054Y06604D01*
X53594Y06604D01*
X44704Y07874D02*
X43434Y09144D01*
X38354Y09144D01*
X37084Y10414D01*
X29464Y10414D01*
X26924Y07874D01*
X20574Y07874D01*
X29464Y06604D02*
X30734Y07874D01*
X35814Y07874D01*
X37084Y06604D01*
X42164Y06604D01*
X37084Y06604D02*
X37084Y05334D01*
X34544Y05334D02*
X34544Y04064D01*
X33274Y02794D01*
X28194Y02794D01*
X26924Y04064D01*
X26924Y05334D01*
X18034Y05334D01*
X29464Y05334D02*
X29464Y06604D01*
X25654Y10414D02*
X20574Y10414D01*
X26924Y15494D02*
X29464Y15494D01*
X34544Y15494D02*
X37084Y15494D01*
X44704Y14224D02*
X44704Y12954D01*
X45974Y11684D01*
X53594Y11684D01*
X53594Y14224D02*
X47244Y14224D01*
M02*
