G75*
%MOMM*%
%OFA0B0*%
%FSLAX33Y33*%
%IPPOS*%
%LPD*%
%AMOC8*
5,1,8,0,0,1.08239X$1,22.5*
%
%ADD10C,1.880*%
%ADD11C,0.508*%
D10*
X05334Y06604D03*
X05334Y14224D03*
X23114Y06604D03*
D11*
X23114Y10414D01*
X23112Y10536D01*
X23106Y10658D01*
X23096Y10780D01*
X23083Y10901D01*
X23065Y11022D01*
X23044Y11142D01*
X23018Y11262D01*
X22989Y11380D01*
X22957Y11498D01*
X22920Y11615D01*
X22880Y11730D01*
X22836Y11844D01*
X22788Y11956D01*
X22737Y12067D01*
X22682Y12176D01*
X22624Y12284D01*
X22562Y12389D01*
X22497Y12492D01*
X22429Y12594D01*
X22357Y12693D01*
X22283Y12789D01*
X22205Y12884D01*
X22124Y12975D01*
X22041Y13065D01*
X21955Y13151D01*
X21865Y13234D01*
X21774Y13315D01*
X21679Y13393D01*
X21583Y13467D01*
X21484Y13539D01*
X21382Y13607D01*
X21279Y13672D01*
X21174Y13734D01*
X21066Y13792D01*
X20957Y13847D01*
X20846Y13898D01*
X20734Y13946D01*
X20620Y13990D01*
X20505Y14030D01*
X20388Y14067D01*
X20270Y14099D01*
X20152Y14128D01*
X20032Y14154D01*
X19912Y14175D01*
X19791Y14193D01*
X19670Y14206D01*
X19548Y14216D01*
X19426Y14222D01*
X19304Y14224D01*
X05334Y14224D01*
M02*
