G75*
%MOMM*%
%OFA0B0*%
%FSLAX33Y33*%
%IPPOS*%
%LPD*%
%AMOC8*
5,1,8,0,0,1.08239X$1,22.5*
%
%ADD10R,1.100X1.000*%
%ADD11R,1.000X1.100*%
%ADD12R,1.400X1.600*%
%ADD13R,2.500X0.500*%
%ADD14R,2.500X2.000*%
%ADD15R,1.200X1.400*%
%ADD16OC8,1.880*%
%ADD17C,0.635*%
%ADD18R,1.200X0.600*%
%ADD19R,1.000X1.800*%
%ADD20C,1.880*%
%ADD21R,0.400X0.250*%
%ADD22C,0.450*%
%ADD23C,0.254*%
%ADD24R,1.270X0.635*%
%ADD25R,1.524X0.762*%
%ADD26R,0.381X1.143*%
%ADD27R,1.270X0.559*%
%ADD28R,0.559X1.270*%
%ADD29R,0.900X0.800*%
%ADD30R,2.032X2.032*%
%ADD31C,2.032*%
%ADD32R,1.200X0.800*%
%ADD33R,0.635X1.270*%
%ADD34R,0.700X0.700*%
%ADD35C,0.203*%
%ADD36C,0.737*%
%ADD37C,0.508*%
D10*
X35557Y20849D03*
X37257Y20849D03*
X39367Y20849D03*
X41067Y20849D03*
X37257Y23389D03*
X35557Y23389D03*
X35557Y25294D03*
X37257Y25294D03*
X37257Y27199D03*
X35557Y27199D03*
X35557Y29422D03*
X37257Y29422D03*
X39367Y33232D03*
X41067Y33232D03*
X48257Y30057D03*
X49957Y30057D03*
X57782Y31962D03*
X59482Y31962D03*
X64640Y35391D03*
X66340Y35391D03*
X59482Y36407D03*
X57782Y36407D03*
X60703Y42122D03*
X62403Y42122D03*
X62403Y43646D03*
X62403Y44916D03*
X60703Y44916D03*
X60703Y43646D03*
X60703Y46249D03*
X62403Y46249D03*
X56624Y54187D03*
X54924Y54187D03*
X46782Y46249D03*
X45082Y46249D03*
X45717Y43392D03*
X47417Y43392D03*
X58099Y27199D03*
X59799Y27199D03*
X59164Y23707D03*
X57464Y23707D03*
D11*
X54504Y23604D03*
X54504Y21904D03*
X61489Y21904D03*
X61489Y23604D03*
X63394Y27619D03*
X63394Y29319D03*
X65299Y29319D03*
X65299Y27619D03*
X52282Y32382D03*
X51012Y32382D03*
X51012Y34082D03*
X52282Y34082D03*
X49742Y35874D03*
X49742Y37574D03*
X37677Y36622D03*
X36089Y36622D03*
X36089Y34922D03*
X37677Y34922D03*
X32914Y46987D03*
X32914Y48687D03*
X54187Y47939D03*
X55774Y47939D03*
X55774Y49639D03*
X54187Y49639D03*
D12*
X58184Y49424D03*
X60984Y49424D03*
D13*
X65022Y46262D03*
X65022Y45462D03*
X65022Y44662D03*
X65022Y43862D03*
X65022Y43062D03*
D14*
X65022Y40162D03*
X70522Y40162D03*
X70522Y49162D03*
X65022Y49162D03*
D15*
X60132Y38629D03*
X57132Y38629D03*
X57132Y34184D03*
X60132Y34184D03*
X60132Y29739D03*
X57132Y29739D03*
D16*
X49742Y55457D03*
X47202Y55457D03*
X44662Y55457D03*
X44662Y57997D03*
X47202Y57997D03*
X49742Y57997D03*
D17*
X24342Y57362D03*
X71332Y18309D03*
D18*
X44922Y22437D03*
X44922Y23707D03*
X44922Y24977D03*
X44922Y26247D03*
X44922Y27517D03*
X44922Y28787D03*
X44922Y30057D03*
X44922Y31327D03*
X39322Y31327D03*
X39322Y30057D03*
X39322Y28787D03*
X39322Y27517D03*
X39322Y26247D03*
X39322Y24977D03*
X39322Y23707D03*
X39322Y22437D03*
D19*
X62629Y37359D03*
X65429Y37359D03*
D20*
X71332Y35137D03*
X71332Y32597D03*
X71332Y30057D03*
X71332Y27517D03*
X71332Y24977D03*
X71332Y22437D03*
X61172Y13547D03*
X52282Y13547D03*
X49742Y13547D03*
X47202Y13547D03*
X47202Y17357D03*
X49742Y17357D03*
X52282Y17357D03*
X42122Y17357D03*
X39582Y17357D03*
X37042Y17357D03*
X37042Y13547D03*
X39582Y13547D03*
X42122Y13547D03*
X25612Y18309D03*
X25612Y20849D03*
X17992Y27517D03*
X17992Y30057D03*
X17992Y32597D03*
X17992Y35137D03*
X17992Y37677D03*
X17992Y44027D03*
X17992Y46567D03*
X17992Y49107D03*
D21*
X57654Y22619D03*
X57654Y22119D03*
X57644Y21619D03*
X58974Y21619D03*
X58974Y22119D03*
X58974Y22619D03*
D22*
X46786Y48161D02*
X45332Y48161D01*
X45332Y49361D02*
X46786Y49361D01*
X46786Y50561D02*
X45332Y50561D01*
D23*
X45043Y50561D02*
X46059Y50561D01*
X47075Y50561D01*
X47075Y49361D02*
X46059Y49361D01*
X45043Y49361D01*
X45043Y48161D02*
X46059Y48161D01*
X47075Y48161D01*
X40534Y29422D02*
X40534Y26247D01*
X40534Y24659D01*
X40534Y26247D02*
X39322Y26247D01*
X69490Y26247D02*
X70760Y27517D01*
X71332Y27517D01*
D24*
X49107Y27751D03*
X49107Y28564D03*
D25*
X59330Y53552D03*
X64918Y53552D03*
X64918Y57362D03*
X59330Y57362D03*
D26*
X57362Y46389D03*
X56727Y46389D03*
X56092Y46389D03*
X55457Y46389D03*
X54822Y46389D03*
X54187Y46389D03*
X53552Y46389D03*
X52917Y46389D03*
X52282Y46389D03*
X51647Y46389D03*
X51647Y41029D03*
X52282Y41029D03*
X52917Y41029D03*
X53552Y41029D03*
X54187Y41029D03*
X54822Y41029D03*
X55457Y41029D03*
X56092Y41029D03*
X56727Y41029D03*
X57362Y41029D03*
D27*
X43239Y43767D03*
X43239Y44567D03*
X43239Y45367D03*
X43239Y46167D03*
X43239Y46967D03*
X43239Y47767D03*
X43239Y48567D03*
X43239Y49367D03*
X34654Y49367D03*
X34654Y48567D03*
X34654Y47767D03*
X34654Y46967D03*
X34654Y46167D03*
X34654Y45367D03*
X34654Y44567D03*
X34654Y43767D03*
D28*
X36147Y42274D03*
X36947Y42274D03*
X37747Y42274D03*
X38547Y42274D03*
X39347Y42274D03*
X40147Y42274D03*
X40947Y42274D03*
X41747Y42274D03*
X41747Y50859D03*
X40947Y50859D03*
X40147Y50859D03*
X39347Y50859D03*
X38547Y50859D03*
X37747Y50859D03*
X36947Y50859D03*
X36147Y50859D03*
D29*
X37407Y33229D03*
X37407Y31329D03*
X35307Y32279D03*
X50329Y23704D03*
X52429Y22754D03*
X50329Y21804D03*
X63664Y21804D03*
X63664Y23704D03*
X65764Y22754D03*
D30*
X26882Y38439D03*
X26882Y49437D03*
D31*
X26882Y45759D03*
X26882Y42081D03*
X26882Y34939D03*
X26882Y31439D03*
X26882Y27939D03*
X26882Y24439D03*
D32*
X34502Y34872D03*
X34502Y36672D03*
D33*
X60295Y17865D03*
X61108Y17865D03*
X61921Y17865D03*
D34*
X51964Y35799D03*
X51314Y37649D03*
X52614Y37649D03*
D35*
X17568Y12913D02*
X17358Y13123D01*
X17244Y13398D01*
X17230Y13547D01*
X17230Y26469D01*
X17313Y26409D01*
X17494Y26316D01*
X17688Y26253D01*
X17890Y26221D01*
X17890Y27415D01*
X18093Y27415D01*
X18093Y26221D01*
X18094Y26221D01*
X18295Y26253D01*
X18489Y26316D01*
X18671Y26409D01*
X18836Y26529D01*
X18980Y26673D01*
X19100Y26838D01*
X19192Y27019D01*
X19255Y27213D01*
X19287Y27415D01*
X18093Y27415D01*
X18093Y27618D01*
X19287Y27618D01*
X19287Y27619D01*
X19255Y27820D01*
X19192Y28014D01*
X19100Y28196D01*
X18980Y28361D01*
X18836Y28505D01*
X18671Y28625D01*
X18489Y28717D01*
X18369Y28756D01*
X18754Y28915D01*
X19133Y29294D01*
X19238Y29549D01*
X24553Y29549D01*
X25583Y28519D01*
X25459Y28222D01*
X25459Y27656D01*
X25676Y27133D01*
X26076Y26733D01*
X26599Y26516D01*
X27165Y26516D01*
X27687Y26733D01*
X28088Y27133D01*
X28304Y27656D01*
X28304Y28222D01*
X28088Y28744D01*
X27687Y29145D01*
X27165Y29361D01*
X26599Y29361D01*
X26301Y29238D01*
X24974Y30565D01*
X19238Y30565D01*
X19133Y30819D01*
X18754Y31198D01*
X18443Y31327D01*
X18754Y31455D01*
X19133Y31834D01*
X19238Y32089D01*
X25513Y32089D01*
X25583Y32019D01*
X25459Y31722D01*
X25459Y31156D01*
X25676Y30633D01*
X26076Y30233D01*
X26599Y30016D01*
X27165Y30016D01*
X27687Y30233D01*
X28088Y30633D01*
X28304Y31156D01*
X28304Y31722D01*
X28088Y32244D01*
X27687Y32645D01*
X27165Y32861D01*
X26599Y32861D01*
X26301Y32738D01*
X25934Y33105D01*
X19238Y33105D01*
X19133Y33359D01*
X18754Y33738D01*
X18369Y33897D01*
X18489Y33936D01*
X18671Y34029D01*
X18836Y34149D01*
X18980Y34293D01*
X19100Y34458D01*
X19192Y34639D01*
X19255Y34833D01*
X19287Y35035D01*
X18093Y35035D01*
X18093Y35238D01*
X19287Y35238D01*
X19287Y35239D01*
X19255Y35440D01*
X19192Y35634D01*
X19100Y35816D01*
X18980Y35981D01*
X18836Y36125D01*
X18671Y36245D01*
X18489Y36337D01*
X18369Y36376D01*
X18754Y36535D01*
X19133Y36914D01*
X19175Y37016D01*
X28066Y37016D01*
X28304Y37254D01*
X28304Y37778D01*
X30819Y37778D01*
X30819Y21909D01*
X31771Y20956D01*
X31771Y17567D01*
X31751Y17547D01*
X31454Y17250D01*
X31454Y16039D01*
X31305Y15890D01*
X31187Y15606D01*
X31187Y15298D01*
X31305Y15013D01*
X31523Y14795D01*
X31808Y14677D01*
X32116Y14677D01*
X32400Y14795D01*
X32618Y15013D01*
X32736Y15298D01*
X32736Y15606D01*
X32618Y15890D01*
X32470Y16039D01*
X32470Y16219D01*
X32575Y15965D01*
X32793Y15747D01*
X33078Y15629D01*
X33386Y15629D01*
X33670Y15747D01*
X33888Y15965D01*
X34006Y16250D01*
X34006Y16558D01*
X33888Y16843D01*
X33740Y16992D01*
X33740Y22881D01*
X34600Y22881D01*
X34600Y22721D01*
X34838Y22483D01*
X36275Y22483D01*
X36407Y22614D01*
X36538Y22483D01*
X37975Y22483D01*
X38213Y22721D01*
X38213Y22881D01*
X38315Y22881D01*
X38315Y21968D01*
X38553Y21730D01*
X38623Y21730D01*
X38410Y21518D01*
X38410Y21357D01*
X38213Y21357D01*
X38213Y21518D01*
X37975Y21756D01*
X36538Y21756D01*
X36407Y21624D01*
X36275Y21756D01*
X34838Y21756D01*
X34600Y21518D01*
X34600Y20181D01*
X34629Y20152D01*
X34629Y19849D01*
X34480Y19700D01*
X34362Y19416D01*
X34362Y19108D01*
X34480Y18823D01*
X34629Y18674D01*
X34629Y15087D01*
X34480Y14938D01*
X34362Y14653D01*
X34362Y14345D01*
X34480Y14060D01*
X34698Y13842D01*
X34983Y13724D01*
X35291Y13724D01*
X35575Y13842D01*
X35793Y14060D01*
X35911Y14345D01*
X35911Y14653D01*
X35793Y14938D01*
X35645Y15087D01*
X35645Y18674D01*
X35793Y18823D01*
X35911Y19108D01*
X35911Y19416D01*
X35793Y19700D01*
X35645Y19849D01*
X35645Y19943D01*
X36275Y19943D01*
X36407Y20074D01*
X36538Y19943D01*
X37537Y19943D01*
X37537Y19743D01*
X37655Y19458D01*
X37804Y19309D01*
X37804Y18498D01*
X37309Y18703D01*
X36774Y18703D01*
X36279Y18498D01*
X35900Y18119D01*
X35695Y17624D01*
X35695Y17089D01*
X35900Y16594D01*
X36279Y16215D01*
X36534Y16110D01*
X36534Y14793D01*
X36279Y14688D01*
X35900Y14309D01*
X35695Y13814D01*
X35695Y13279D01*
X35900Y12785D01*
X17992Y12785D01*
X17843Y12799D01*
X17568Y12913D01*
X17644Y12882D02*
X35860Y12882D01*
X35776Y13083D02*
X17398Y13083D01*
X17291Y13285D02*
X18942Y13285D01*
X18697Y13374D02*
X19480Y13089D01*
X19686Y13089D01*
X20313Y13089D01*
X21096Y13374D01*
X21734Y13910D01*
X22151Y14631D01*
X22295Y15452D01*
X22151Y16272D01*
X21734Y16993D01*
X21734Y16993D01*
X21096Y17529D01*
X21096Y17529D01*
X20313Y17814D01*
X19480Y17814D01*
X18697Y17529D01*
X18059Y16993D01*
X17643Y16272D01*
X17498Y15452D01*
X17498Y15452D01*
X17643Y14631D01*
X18059Y13910D01*
X18697Y13374D01*
X18697Y13374D01*
X18563Y13487D02*
X17236Y13487D01*
X17230Y13689D02*
X18323Y13689D01*
X18083Y13890D02*
X17230Y13890D01*
X17230Y14092D02*
X17954Y14092D01*
X18059Y13910D02*
X18059Y13910D01*
X17838Y14294D02*
X17230Y14294D01*
X17230Y14495D02*
X17721Y14495D01*
X17643Y14631D02*
X17643Y14631D01*
X17631Y14697D02*
X17230Y14697D01*
X17230Y14899D02*
X17596Y14899D01*
X17560Y15100D02*
X17230Y15100D01*
X17230Y15302D02*
X17524Y15302D01*
X17507Y15504D02*
X17230Y15504D01*
X17230Y15706D02*
X17543Y15706D01*
X17578Y15907D02*
X17230Y15907D01*
X17230Y16109D02*
X17614Y16109D01*
X17643Y16272D02*
X17643Y16272D01*
X17665Y16311D02*
X17230Y16311D01*
X17230Y16512D02*
X17781Y16512D01*
X17898Y16714D02*
X17230Y16714D01*
X17230Y16916D02*
X18014Y16916D01*
X18059Y16993D02*
X18059Y16993D01*
X18059Y16993D01*
X18207Y17117D02*
X17230Y17117D01*
X17230Y17319D02*
X18447Y17319D01*
X18688Y17521D02*
X17230Y17521D01*
X17230Y17723D02*
X19229Y17723D01*
X18697Y17529D02*
X18697Y17529D01*
X17230Y17924D02*
X24314Y17924D01*
X24265Y18041D02*
X24470Y17547D01*
X24849Y17168D01*
X25344Y16963D01*
X25879Y16963D01*
X26374Y17168D01*
X26753Y17547D01*
X26958Y18041D01*
X26958Y18577D01*
X26753Y19072D01*
X26374Y19450D01*
X26063Y19579D01*
X26374Y19708D01*
X26753Y20087D01*
X26958Y20581D01*
X26958Y21117D01*
X26753Y21612D01*
X26374Y21990D01*
X25879Y22195D01*
X25344Y22195D01*
X24849Y21990D01*
X24470Y21612D01*
X24265Y21117D01*
X24265Y20581D01*
X24470Y20087D01*
X24849Y19708D01*
X25160Y19579D01*
X24849Y19450D01*
X24470Y19072D01*
X24265Y18577D01*
X24265Y18041D01*
X24265Y18126D02*
X17230Y18126D01*
X17230Y18328D02*
X24265Y18328D01*
X24265Y18529D02*
X17230Y18529D01*
X17230Y18731D02*
X24329Y18731D01*
X24413Y18933D02*
X17230Y18933D01*
X17230Y19134D02*
X24533Y19134D01*
X24735Y19336D02*
X17230Y19336D01*
X17230Y19538D02*
X25060Y19538D01*
X24817Y19740D02*
X17230Y19740D01*
X17230Y19941D02*
X24616Y19941D01*
X24447Y20143D02*
X17230Y20143D01*
X17230Y20345D02*
X24364Y20345D01*
X24280Y20546D02*
X17230Y20546D01*
X17230Y20748D02*
X24265Y20748D01*
X24265Y20950D02*
X17230Y20950D01*
X17230Y21151D02*
X24280Y21151D01*
X24363Y21353D02*
X17230Y21353D01*
X17230Y21555D02*
X24447Y21555D01*
X24615Y21757D02*
X17230Y21757D01*
X17230Y21958D02*
X24817Y21958D01*
X25258Y22160D02*
X17230Y22160D01*
X17230Y22362D02*
X28914Y22362D01*
X28914Y22563D02*
X17230Y22563D01*
X17230Y22765D02*
X28914Y22765D01*
X28914Y22967D02*
X17230Y22967D01*
X17230Y23168D02*
X26353Y23168D01*
X26355Y23168D02*
X26560Y23101D01*
X26774Y23067D01*
X26780Y23067D01*
X26780Y24337D01*
X25510Y24337D01*
X25510Y24331D01*
X25544Y24117D01*
X25611Y23912D01*
X25709Y23720D01*
X25835Y23545D01*
X25988Y23392D01*
X26163Y23266D01*
X26355Y23168D01*
X26019Y23370D02*
X17230Y23370D01*
X17230Y23572D02*
X25816Y23572D01*
X25681Y23774D02*
X17230Y23774D01*
X17230Y23975D02*
X25590Y23975D01*
X25534Y24177D02*
X17230Y24177D01*
X17230Y24379D02*
X26780Y24379D01*
X26780Y24337D02*
X26780Y24540D01*
X25510Y24540D01*
X25510Y24547D01*
X25544Y24760D01*
X25611Y24965D01*
X25709Y25158D01*
X25835Y25332D01*
X25988Y25485D01*
X26163Y25612D01*
X26355Y25710D01*
X26560Y25776D01*
X26774Y25810D01*
X26780Y25810D01*
X26780Y24540D01*
X26983Y24540D01*
X26983Y25810D01*
X26990Y25810D01*
X27203Y25776D01*
X27408Y25710D01*
X27601Y25612D01*
X27775Y25485D01*
X27928Y25332D01*
X28055Y25158D01*
X28153Y24965D01*
X28219Y24760D01*
X28253Y24547D01*
X28253Y24540D01*
X26983Y24540D01*
X26983Y24337D01*
X26983Y23067D01*
X26990Y23067D01*
X27203Y23101D01*
X27408Y23168D01*
X27601Y23266D01*
X27775Y23392D01*
X27928Y23545D01*
X28055Y23720D01*
X28153Y23912D01*
X28219Y24117D01*
X28253Y24331D01*
X28253Y24337D01*
X26983Y24337D01*
X26780Y24337D01*
X26882Y24439D02*
X26882Y22754D01*
X28787Y20849D01*
X28787Y19897D01*
X29208Y20345D02*
X26860Y20345D01*
X26943Y20546D02*
X29006Y20546D01*
X28914Y20639D02*
X29917Y19635D01*
X29917Y19425D01*
X30035Y19140D01*
X30253Y18922D01*
X30538Y18804D01*
X30846Y18804D01*
X31130Y18922D01*
X31348Y19140D01*
X31466Y19425D01*
X31466Y19733D01*
X31348Y20018D01*
X31130Y20236D01*
X30846Y20354D01*
X30635Y20354D01*
X29930Y21060D01*
X29930Y27247D01*
X30078Y27395D01*
X30196Y27680D01*
X30196Y27988D01*
X30078Y28273D01*
X29860Y28491D01*
X29576Y28609D01*
X29268Y28609D01*
X28983Y28491D01*
X28765Y28273D01*
X28647Y27988D01*
X28647Y27680D01*
X28765Y27395D01*
X28914Y27247D01*
X28914Y20639D01*
X28914Y20748D02*
X26958Y20748D01*
X26958Y20950D02*
X28914Y20950D01*
X28914Y21151D02*
X26944Y21151D01*
X26860Y21353D02*
X28914Y21353D01*
X28914Y21555D02*
X26776Y21555D01*
X26608Y21757D02*
X28914Y21757D01*
X28914Y21958D02*
X26406Y21958D01*
X25965Y22160D02*
X28914Y22160D01*
X28914Y23168D02*
X27410Y23168D01*
X27745Y23370D02*
X28914Y23370D01*
X28914Y23572D02*
X27947Y23572D01*
X28082Y23774D02*
X28914Y23774D01*
X28914Y23975D02*
X28173Y23975D01*
X28229Y24177D02*
X28914Y24177D01*
X28914Y24379D02*
X26983Y24379D01*
X26882Y24439D02*
X26882Y26247D01*
X26780Y25791D02*
X26983Y25791D01*
X27114Y25791D02*
X28914Y25791D01*
X28914Y25992D02*
X17230Y25992D01*
X17230Y25791D02*
X26649Y25791D01*
X26780Y25589D02*
X26983Y25589D01*
X26983Y25387D02*
X26780Y25387D01*
X26780Y25185D02*
X26983Y25185D01*
X26983Y24984D02*
X26780Y24984D01*
X26780Y24782D02*
X26983Y24782D01*
X26983Y24580D02*
X26780Y24580D01*
X26780Y24177D02*
X26983Y24177D01*
X26983Y23975D02*
X26780Y23975D01*
X26780Y23774D02*
X26983Y23774D01*
X26983Y23572D02*
X26780Y23572D01*
X26780Y23370D02*
X26983Y23370D01*
X26983Y23168D02*
X26780Y23168D01*
X25515Y24580D02*
X17230Y24580D01*
X17230Y24782D02*
X25551Y24782D01*
X25620Y24984D02*
X17230Y24984D01*
X17230Y25185D02*
X25729Y25185D01*
X25890Y25387D02*
X17230Y25387D01*
X17230Y25589D02*
X26131Y25589D01*
X26403Y26597D02*
X18904Y26597D01*
X19071Y26799D02*
X26010Y26799D01*
X25808Y27001D02*
X19183Y27001D01*
X19252Y27202D02*
X25647Y27202D01*
X25563Y27404D02*
X19285Y27404D01*
X19287Y27415D02*
X19287Y27415D01*
X19257Y27808D02*
X25459Y27808D01*
X25459Y28009D02*
X19194Y28009D01*
X19088Y28211D02*
X25459Y28211D01*
X25538Y28413D02*
X18928Y28413D01*
X18685Y28614D02*
X25488Y28614D01*
X25286Y28816D02*
X18514Y28816D01*
X18857Y29018D02*
X25084Y29018D01*
X24882Y29219D02*
X19058Y29219D01*
X19186Y29421D02*
X24681Y29421D01*
X24764Y30057D02*
X26882Y27939D01*
X28200Y27404D02*
X28761Y27404D01*
X28678Y27606D02*
X28283Y27606D01*
X28304Y27808D02*
X28647Y27808D01*
X28656Y28009D02*
X28304Y28009D01*
X28304Y28211D02*
X28739Y28211D01*
X28905Y28413D02*
X28225Y28413D01*
X28141Y28614D02*
X30819Y28614D01*
X30819Y28413D02*
X29939Y28413D01*
X30104Y28211D02*
X30819Y28211D01*
X30819Y28009D02*
X30188Y28009D01*
X30196Y27808D02*
X30819Y27808D01*
X30819Y27606D02*
X30166Y27606D01*
X30082Y27404D02*
X30819Y27404D01*
X30819Y27202D02*
X29930Y27202D01*
X29930Y27001D02*
X30819Y27001D01*
X30819Y26799D02*
X29930Y26799D01*
X29930Y26597D02*
X30819Y26597D01*
X30819Y26396D02*
X29930Y26396D01*
X29930Y26194D02*
X30819Y26194D01*
X30819Y25992D02*
X29930Y25992D01*
X29930Y25791D02*
X30819Y25791D01*
X30819Y25589D02*
X29930Y25589D01*
X29930Y25387D02*
X30819Y25387D01*
X30819Y25185D02*
X29930Y25185D01*
X29930Y24984D02*
X30819Y24984D01*
X30819Y24782D02*
X29930Y24782D01*
X29930Y24580D02*
X30819Y24580D01*
X30819Y24379D02*
X29930Y24379D01*
X29930Y24177D02*
X30819Y24177D01*
X30819Y23975D02*
X29930Y23975D01*
X29930Y23774D02*
X30819Y23774D01*
X30819Y23572D02*
X29930Y23572D01*
X29930Y23370D02*
X30819Y23370D01*
X30819Y23168D02*
X29930Y23168D01*
X29930Y22967D02*
X30819Y22967D01*
X30819Y22765D02*
X29930Y22765D01*
X29930Y22563D02*
X30819Y22563D01*
X30819Y22362D02*
X29930Y22362D01*
X29930Y22160D02*
X30819Y22160D01*
X30819Y21958D02*
X29930Y21958D01*
X29930Y21757D02*
X30971Y21757D01*
X31173Y21555D02*
X29930Y21555D01*
X29930Y21353D02*
X31374Y21353D01*
X31576Y21151D02*
X29930Y21151D01*
X30039Y20950D02*
X31771Y20950D01*
X31771Y20748D02*
X30241Y20748D01*
X30443Y20546D02*
X31771Y20546D01*
X31771Y20345D02*
X30868Y20345D01*
X31223Y20143D02*
X31771Y20143D01*
X31771Y19941D02*
X31380Y19941D01*
X31464Y19740D02*
X31771Y19740D01*
X31771Y19538D02*
X31466Y19538D01*
X31430Y19336D02*
X31771Y19336D01*
X31771Y19134D02*
X31343Y19134D01*
X31141Y18933D02*
X31771Y18933D01*
X31771Y18731D02*
X26894Y18731D01*
X26958Y18529D02*
X31771Y18529D01*
X31771Y18328D02*
X26958Y18328D01*
X26958Y18126D02*
X31771Y18126D01*
X31771Y17924D02*
X26909Y17924D01*
X26826Y17723D02*
X31771Y17723D01*
X31725Y17521D02*
X26727Y17521D01*
X26525Y17319D02*
X31523Y17319D01*
X31454Y17117D02*
X26252Y17117D01*
X24971Y17117D02*
X21586Y17117D01*
X21779Y16916D02*
X31454Y16916D01*
X31454Y16714D02*
X21895Y16714D01*
X22012Y16512D02*
X31454Y16512D01*
X31454Y16311D02*
X22128Y16311D01*
X22151Y16272D02*
X22151Y16272D01*
X22179Y16109D02*
X31454Y16109D01*
X31322Y15907D02*
X22215Y15907D01*
X22251Y15706D02*
X31228Y15706D01*
X31187Y15504D02*
X22286Y15504D01*
X22269Y15302D02*
X31187Y15302D01*
X31269Y15100D02*
X22233Y15100D01*
X22198Y14899D02*
X31419Y14899D01*
X31759Y14697D02*
X22162Y14697D01*
X22151Y14631D02*
X22151Y14631D01*
X22072Y14495D02*
X34362Y14495D01*
X34383Y14294D02*
X21956Y14294D01*
X21839Y14092D02*
X34467Y14092D01*
X34650Y13890D02*
X21711Y13890D01*
X21734Y13910D02*
X21734Y13910D01*
X21470Y13689D02*
X35695Y13689D01*
X35695Y13487D02*
X21230Y13487D01*
X21096Y13374D02*
X21096Y13374D01*
X20851Y13285D02*
X35695Y13285D01*
X35727Y13890D02*
X35623Y13890D01*
X35807Y14092D02*
X35810Y14092D01*
X35890Y14294D02*
X35894Y14294D01*
X35911Y14495D02*
X36087Y14495D01*
X35893Y14697D02*
X36301Y14697D01*
X36534Y14899D02*
X35810Y14899D01*
X35645Y15100D02*
X36534Y15100D01*
X36534Y15302D02*
X35645Y15302D01*
X35645Y15504D02*
X36534Y15504D01*
X36534Y15706D02*
X35645Y15706D01*
X35645Y15907D02*
X36534Y15907D01*
X36534Y16109D02*
X35645Y16109D01*
X35645Y16311D02*
X36184Y16311D01*
X35982Y16512D02*
X35645Y16512D01*
X35645Y16714D02*
X35851Y16714D01*
X35767Y16916D02*
X35645Y16916D01*
X35645Y17117D02*
X35695Y17117D01*
X35695Y17319D02*
X35645Y17319D01*
X35645Y17521D02*
X35695Y17521D01*
X35736Y17723D02*
X35645Y17723D01*
X35645Y17924D02*
X35820Y17924D01*
X35907Y18126D02*
X35645Y18126D01*
X35645Y18328D02*
X36109Y18328D01*
X36355Y18529D02*
X35645Y18529D01*
X35702Y18731D02*
X37804Y18731D01*
X37804Y18529D02*
X37728Y18529D01*
X37804Y18933D02*
X35839Y18933D01*
X35911Y19134D02*
X37804Y19134D01*
X37777Y19336D02*
X35911Y19336D01*
X35861Y19538D02*
X37622Y19538D01*
X37538Y19740D02*
X35754Y19740D01*
X35645Y19941D02*
X37537Y19941D01*
X38312Y19897D02*
X38312Y14817D01*
X39582Y13547D01*
X40537Y14495D02*
X41167Y14495D01*
X40980Y14309D02*
X41359Y14688D01*
X41854Y14893D01*
X42389Y14893D01*
X42884Y14688D01*
X43263Y14309D01*
X43468Y13814D01*
X43468Y13279D01*
X43263Y12785D01*
X46060Y12785D01*
X45855Y13279D01*
X45855Y13814D01*
X46060Y14309D01*
X46439Y14688D01*
X46694Y14793D01*
X46694Y16110D01*
X46439Y16215D01*
X46060Y16594D01*
X45855Y17089D01*
X45855Y17624D01*
X46060Y18119D01*
X46439Y18498D01*
X46934Y18703D01*
X47469Y18703D01*
X47964Y18498D01*
X48343Y18119D01*
X48472Y17808D01*
X48600Y18119D01*
X48979Y18498D01*
X49474Y18703D01*
X50009Y18703D01*
X50504Y18498D01*
X50504Y19944D01*
X50355Y20093D01*
X50237Y20378D01*
X50237Y20686D01*
X50355Y20970D01*
X50382Y20998D01*
X49711Y20998D01*
X49473Y21236D01*
X49473Y22067D01*
X49261Y21979D01*
X48953Y21979D01*
X48668Y22097D01*
X48450Y22315D01*
X48332Y22600D01*
X48332Y22908D01*
X48450Y23193D01*
X48668Y23411D01*
X48953Y23529D01*
X49261Y23529D01*
X49473Y23441D01*
X49473Y24272D01*
X49711Y24511D01*
X50947Y24511D01*
X51186Y24272D01*
X51186Y24212D01*
X51456Y24212D01*
X51456Y29297D01*
X51208Y29400D01*
X51059Y29549D01*
X50913Y29549D01*
X50913Y29388D01*
X50675Y29150D01*
X50048Y29150D01*
X50148Y29050D01*
X50148Y28079D01*
X50097Y28028D01*
X50097Y27808D01*
X49164Y27808D01*
X49164Y27694D01*
X50097Y27694D01*
X50097Y27386D01*
X50073Y27296D01*
X50026Y27215D01*
X49960Y27149D01*
X49879Y27102D01*
X49788Y27078D01*
X49164Y27078D01*
X49164Y27694D01*
X49050Y27694D01*
X49050Y27078D01*
X48425Y27078D01*
X48334Y27102D01*
X48253Y27149D01*
X48187Y27215D01*
X48140Y27296D01*
X48116Y27386D01*
X48116Y27694D01*
X49049Y27694D01*
X49049Y27808D01*
X48116Y27808D01*
X48116Y28028D01*
X48065Y28079D01*
X48065Y28475D01*
X47964Y28576D01*
X47749Y28791D01*
X47749Y29150D01*
X47538Y29150D01*
X47300Y29388D01*
X47300Y29549D01*
X45888Y29549D01*
X45722Y29382D01*
X45740Y29371D01*
X45806Y29305D01*
X45853Y29224D01*
X45877Y29133D01*
X45877Y28835D01*
X44970Y28835D01*
X44970Y28738D01*
X45877Y28738D01*
X45877Y28440D01*
X45853Y28349D01*
X45806Y28268D01*
X45740Y28202D01*
X45722Y28191D01*
X45928Y27985D01*
X45928Y27048D01*
X45761Y26882D01*
X45775Y26868D01*
X45810Y26903D01*
X46095Y27021D01*
X46403Y27021D01*
X46688Y26903D01*
X46906Y26685D01*
X47024Y26401D01*
X47024Y26093D01*
X46906Y25808D01*
X46710Y25612D01*
X46906Y25415D01*
X47024Y25131D01*
X47024Y24823D01*
X46906Y24538D01*
X46688Y24320D01*
X46403Y24202D01*
X46155Y24202D01*
X47095Y23262D01*
X47392Y22965D01*
X47392Y20639D01*
X45436Y18683D01*
X45436Y18473D01*
X45318Y18188D01*
X45100Y17970D01*
X44816Y17852D01*
X44508Y17852D01*
X44223Y17970D01*
X44005Y18188D01*
X43887Y18473D01*
X43887Y18781D01*
X43892Y18794D01*
X43830Y18732D01*
X43546Y18614D01*
X43238Y18614D01*
X42953Y18732D01*
X42735Y18950D01*
X42617Y19235D01*
X42617Y19543D01*
X42735Y19827D01*
X42884Y19976D01*
X42884Y23373D01*
X42878Y23367D01*
X42593Y23249D01*
X42285Y23249D01*
X42000Y23367D01*
X41782Y23585D01*
X41664Y23870D01*
X41664Y24178D01*
X41681Y24219D01*
X41641Y24202D01*
X41333Y24202D01*
X41048Y24320D01*
X40830Y24538D01*
X40712Y24823D01*
X40712Y25033D01*
X40661Y25084D01*
X40661Y27410D01*
X40979Y27727D01*
X40979Y30358D01*
X40973Y30352D01*
X40688Y30234D01*
X40380Y30234D01*
X40328Y30256D01*
X40328Y29588D01*
X40161Y29422D01*
X40328Y29255D01*
X40328Y28318D01*
X40161Y28152D01*
X40328Y27985D01*
X40328Y27048D01*
X40122Y26842D01*
X40140Y26831D01*
X40206Y26765D01*
X40253Y26684D01*
X40277Y26593D01*
X40277Y26295D01*
X39370Y26295D01*
X39370Y26198D01*
X40277Y26198D01*
X40277Y25900D01*
X40253Y25809D01*
X40206Y25728D01*
X40140Y25662D01*
X40122Y25651D01*
X40328Y25445D01*
X40328Y24508D01*
X40161Y24342D01*
X40288Y24215D01*
X40745Y24215D01*
X41042Y23917D01*
X41360Y23600D01*
X41360Y21756D01*
X41785Y21756D01*
X42023Y21518D01*
X42023Y20181D01*
X41785Y19943D01*
X40348Y19943D01*
X40217Y20074D01*
X40085Y19943D01*
X39086Y19943D01*
X39086Y19743D01*
X38968Y19458D01*
X38820Y19309D01*
X38820Y18498D01*
X39314Y18703D01*
X39849Y18703D01*
X40344Y18498D01*
X40723Y18119D01*
X40882Y17734D01*
X40921Y17854D01*
X41014Y18036D01*
X41134Y18201D01*
X41278Y18345D01*
X41443Y18465D01*
X41624Y18557D01*
X41818Y18620D01*
X42020Y18652D01*
X42020Y18652D01*
X42020Y17458D01*
X42223Y17458D01*
X42223Y18652D01*
X42224Y18652D01*
X42425Y18620D01*
X42619Y18557D01*
X42801Y18465D01*
X42966Y18345D01*
X43110Y18201D01*
X43230Y18036D01*
X43322Y17854D01*
X43385Y17660D01*
X43417Y17459D01*
X43417Y17458D01*
X42223Y17458D01*
X42223Y17255D01*
X43417Y17255D01*
X43417Y17255D01*
X43385Y17053D01*
X43322Y16859D01*
X43230Y16678D01*
X43110Y16513D01*
X42966Y16369D01*
X42840Y16277D01*
X43285Y16277D01*
X44605Y14956D01*
X44816Y14956D01*
X45100Y14838D01*
X45318Y14620D01*
X45436Y14336D01*
X45436Y14028D01*
X45318Y13743D01*
X45100Y13525D01*
X44816Y13407D01*
X44508Y13407D01*
X44223Y13525D01*
X44005Y13743D01*
X43887Y14028D01*
X43887Y14238D01*
X42864Y15261D01*
X41276Y15261D01*
X40979Y15559D01*
X40329Y16209D01*
X39849Y16010D01*
X39314Y16010D01*
X38820Y16215D01*
X38820Y15027D01*
X39059Y14787D01*
X39314Y14893D01*
X39849Y14893D01*
X40344Y14688D01*
X40723Y14309D01*
X40852Y13998D01*
X40980Y14309D01*
X40974Y14294D02*
X40729Y14294D01*
X40813Y14092D02*
X40890Y14092D01*
X41381Y14697D02*
X40322Y14697D01*
X41034Y15504D02*
X38820Y15504D01*
X38820Y15706D02*
X40832Y15706D01*
X40630Y15907D02*
X38820Y15907D01*
X38820Y16109D02*
X39076Y16109D01*
X38820Y15302D02*
X41235Y15302D01*
X41487Y15769D02*
X43074Y15769D01*
X44662Y14182D01*
X44955Y14899D02*
X46694Y14899D01*
X46694Y15100D02*
X44461Y15100D01*
X44260Y15302D02*
X46694Y15302D01*
X46694Y15504D02*
X44058Y15504D01*
X43856Y15706D02*
X46694Y15706D01*
X46694Y15907D02*
X43654Y15907D01*
X43453Y16109D02*
X46694Y16109D01*
X46344Y16311D02*
X42886Y16311D01*
X43109Y16512D02*
X46142Y16512D01*
X46011Y16714D02*
X43248Y16714D01*
X43340Y16916D02*
X45927Y16916D01*
X45855Y17117D02*
X43395Y17117D01*
X43407Y17521D02*
X45855Y17521D01*
X45855Y17319D02*
X42223Y17319D01*
X42122Y17357D02*
X42122Y23072D01*
X40534Y24659D01*
X40328Y24580D02*
X40812Y24580D01*
X40729Y24782D02*
X40328Y24782D01*
X40328Y24984D02*
X40712Y24984D01*
X40661Y25185D02*
X40328Y25185D01*
X40328Y25387D02*
X40661Y25387D01*
X40661Y25589D02*
X40184Y25589D01*
X40242Y25791D02*
X40661Y25791D01*
X40661Y25992D02*
X40277Y25992D01*
X40277Y26194D02*
X40661Y26194D01*
X40661Y26396D02*
X40277Y26396D01*
X40276Y26597D02*
X40661Y26597D01*
X40661Y26799D02*
X40172Y26799D01*
X40280Y27001D02*
X40661Y27001D01*
X40661Y27202D02*
X40328Y27202D01*
X40328Y27404D02*
X40661Y27404D01*
X40857Y27606D02*
X40328Y27606D01*
X40328Y27808D02*
X40979Y27808D01*
X40979Y28009D02*
X40304Y28009D01*
X40221Y28211D02*
X40979Y28211D01*
X40979Y28413D02*
X40328Y28413D01*
X40328Y28614D02*
X40979Y28614D01*
X40979Y28816D02*
X40328Y28816D01*
X40328Y29018D02*
X40979Y29018D01*
X40979Y29219D02*
X40328Y29219D01*
X40162Y29421D02*
X40979Y29421D01*
X40979Y29623D02*
X40328Y29623D01*
X40328Y29825D02*
X40979Y29825D01*
X40979Y30026D02*
X40328Y30026D01*
X40328Y30228D02*
X40979Y30228D01*
X40534Y31009D02*
X40217Y31327D01*
X39322Y31327D01*
X39367Y31372D01*
X38706Y32033D02*
X38553Y32033D01*
X38315Y31795D01*
X38315Y31724D01*
X38263Y31776D01*
X38263Y31897D01*
X38025Y32136D01*
X36788Y32136D01*
X36550Y31897D01*
X36550Y30846D01*
X35924Y31473D01*
X35925Y31473D01*
X36163Y31711D01*
X36163Y32848D01*
X35925Y33086D01*
X35434Y33086D01*
X35162Y33358D01*
X35162Y34065D01*
X35270Y34065D01*
X35331Y34127D01*
X35371Y34087D01*
X35452Y34040D01*
X35542Y34016D01*
X35988Y34016D01*
X35988Y34820D01*
X36191Y34820D01*
X36191Y35023D01*
X37575Y35023D01*
X37575Y34820D01*
X36945Y34820D01*
X36191Y34820D01*
X36191Y34016D01*
X36636Y34016D01*
X36726Y34040D01*
X36808Y34087D01*
X36874Y34153D01*
X36883Y34169D01*
X36892Y34153D01*
X36958Y34087D01*
X37039Y34040D01*
X37057Y34036D01*
X36788Y34036D01*
X36550Y33798D01*
X36550Y32661D01*
X36788Y32423D01*
X38025Y32423D01*
X38171Y32569D01*
X38410Y32569D01*
X38410Y32563D01*
X38648Y32325D01*
X38706Y32325D01*
X38706Y32033D01*
X38706Y32043D02*
X38117Y32043D01*
X38263Y31842D02*
X38362Y31842D01*
X38706Y32245D02*
X36163Y32245D01*
X36163Y32447D02*
X36764Y32447D01*
X36563Y32648D02*
X36163Y32648D01*
X36160Y32850D02*
X36550Y32850D01*
X36550Y33052D02*
X35959Y33052D01*
X36089Y33549D02*
X36089Y34922D01*
X36089Y35137D01*
X37677Y35137D01*
X37677Y34922D01*
X37779Y34819D01*
X40534Y34819D01*
X40852Y34502D01*
X40852Y37042D01*
X41296Y37086D02*
X39953Y37086D01*
X39921Y37163D02*
X39772Y37312D01*
X39772Y39714D01*
X39877Y39460D01*
X40095Y39242D01*
X40380Y39124D01*
X40688Y39124D01*
X40973Y39242D01*
X41191Y39460D01*
X41296Y39714D01*
X41296Y34926D01*
X41614Y34609D01*
X41614Y34087D01*
X41168Y34087D01*
X41168Y33333D01*
X40965Y33333D01*
X40965Y33130D01*
X40323Y33130D01*
X40323Y33333D01*
X40965Y33333D01*
X40965Y34087D01*
X40470Y34087D01*
X40379Y34063D01*
X40298Y34016D01*
X40253Y33970D01*
X40085Y34138D01*
X38648Y34138D01*
X38410Y33900D01*
X38410Y33890D01*
X38171Y33890D01*
X38044Y34016D01*
X38223Y34016D01*
X38314Y34040D01*
X38395Y34087D01*
X38461Y34153D01*
X38508Y34234D01*
X38532Y34325D01*
X38532Y34820D01*
X37778Y34820D01*
X37778Y35023D01*
X38532Y35023D01*
X38532Y35518D01*
X38508Y35609D01*
X38461Y35690D01*
X38415Y35736D01*
X38583Y35903D01*
X38583Y36344D01*
X38607Y36285D01*
X38825Y36067D01*
X39110Y35949D01*
X39418Y35949D01*
X39703Y36067D01*
X39921Y36285D01*
X40039Y36570D01*
X40039Y36878D01*
X39921Y37163D01*
X39796Y37287D02*
X41296Y37287D01*
X41296Y37489D02*
X39772Y37489D01*
X39772Y37691D02*
X41296Y37691D01*
X41296Y37893D02*
X39772Y37893D01*
X39772Y38094D02*
X41296Y38094D01*
X41296Y38296D02*
X39772Y38296D01*
X39772Y38498D02*
X41296Y38498D01*
X41296Y38699D02*
X39772Y38699D01*
X39772Y38901D02*
X41296Y38901D01*
X41296Y39103D02*
X39772Y39103D01*
X39772Y39304D02*
X40033Y39304D01*
X39858Y39506D02*
X39772Y39506D01*
X39772Y39708D02*
X39775Y39708D01*
X40534Y39899D02*
X39899Y40534D01*
X39899Y41169D01*
X40217Y41487D01*
X40217Y42204D01*
X40147Y42274D01*
X40852Y42179D02*
X40947Y42274D01*
X40852Y42179D02*
X40852Y41042D01*
X41293Y39708D02*
X41296Y39708D01*
X41296Y39506D02*
X41210Y39506D01*
X41296Y39304D02*
X41035Y39304D01*
X42757Y38629D02*
X42757Y24342D01*
X42439Y24024D01*
X41664Y23975D02*
X40984Y23975D01*
X41186Y23774D02*
X41704Y23774D01*
X41796Y23572D02*
X41360Y23572D01*
X41360Y23370D02*
X41998Y23370D01*
X41360Y23168D02*
X42884Y23168D01*
X42884Y22967D02*
X41360Y22967D01*
X41360Y22765D02*
X42884Y22765D01*
X42884Y22563D02*
X41360Y22563D01*
X41360Y22362D02*
X42884Y22362D01*
X42884Y22160D02*
X41360Y22160D01*
X41360Y21958D02*
X42884Y21958D01*
X42884Y21757D02*
X41360Y21757D01*
X41986Y21555D02*
X42884Y21555D01*
X42884Y21353D02*
X42023Y21353D01*
X42023Y21151D02*
X42884Y21151D01*
X42884Y20950D02*
X42023Y20950D01*
X42023Y20748D02*
X42884Y20748D01*
X42884Y20546D02*
X42023Y20546D01*
X42023Y20345D02*
X42884Y20345D01*
X42884Y20143D02*
X41985Y20143D01*
X42698Y19740D02*
X39085Y19740D01*
X39086Y19941D02*
X42849Y19941D01*
X42617Y19538D02*
X39002Y19538D01*
X38847Y19336D02*
X42617Y19336D01*
X42658Y19134D02*
X38820Y19134D01*
X38820Y18933D02*
X42752Y18933D01*
X42955Y18731D02*
X38820Y18731D01*
X38820Y18529D02*
X38895Y18529D01*
X40268Y18529D02*
X41570Y18529D01*
X41261Y18328D02*
X40514Y18328D01*
X40716Y18126D02*
X41079Y18126D01*
X40957Y17924D02*
X40804Y17924D01*
X39899Y17357D02*
X39582Y17357D01*
X39899Y17357D02*
X41487Y15769D01*
X40428Y16109D02*
X40087Y16109D01*
X38820Y15100D02*
X43024Y15100D01*
X43226Y14899D02*
X38948Y14899D01*
X37042Y13547D02*
X37042Y17357D01*
X34629Y17319D02*
X33740Y17319D01*
X33740Y17117D02*
X34629Y17117D01*
X34629Y16916D02*
X33816Y16916D01*
X33942Y16714D02*
X34629Y16714D01*
X34629Y16512D02*
X34006Y16512D01*
X34006Y16311D02*
X34629Y16311D01*
X34629Y16109D02*
X33948Y16109D01*
X33830Y15907D02*
X34629Y15907D01*
X34629Y15706D02*
X33569Y15706D01*
X32894Y15706D02*
X32695Y15706D01*
X32736Y15504D02*
X34629Y15504D01*
X34629Y15302D02*
X32736Y15302D01*
X32655Y15100D02*
X34629Y15100D01*
X34464Y14899D02*
X32504Y14899D01*
X32164Y14697D02*
X34380Y14697D01*
X35137Y14499D02*
X35137Y19262D01*
X35137Y20849D01*
X35557Y20849D01*
X34600Y20950D02*
X33740Y20950D01*
X33740Y21151D02*
X34600Y21151D01*
X34600Y21353D02*
X33740Y21353D01*
X33740Y21555D02*
X34638Y21555D01*
X34600Y20748D02*
X33740Y20748D01*
X33740Y20546D02*
X34600Y20546D01*
X34600Y20345D02*
X33740Y20345D01*
X33740Y20143D02*
X34629Y20143D01*
X34629Y19941D02*
X33740Y19941D01*
X33740Y19740D02*
X34519Y19740D01*
X34413Y19538D02*
X33740Y19538D01*
X33740Y19336D02*
X34362Y19336D01*
X34362Y19134D02*
X33740Y19134D01*
X33740Y18933D02*
X34434Y18933D01*
X34572Y18731D02*
X33740Y18731D01*
X33740Y18529D02*
X34629Y18529D01*
X34629Y18328D02*
X33740Y18328D01*
X33740Y18126D02*
X34629Y18126D01*
X34629Y17924D02*
X33740Y17924D01*
X33740Y17723D02*
X34629Y17723D01*
X34629Y17521D02*
X33740Y17521D01*
X32279Y17357D02*
X31962Y17039D01*
X31962Y15452D01*
X32602Y15907D02*
X32633Y15907D01*
X32515Y16109D02*
X32470Y16109D01*
X33232Y16404D02*
X33232Y23453D01*
X33295Y23389D01*
X35557Y23389D01*
X35658Y24439D02*
X36153Y24439D01*
X36244Y24463D01*
X36325Y24510D01*
X36371Y24555D01*
X36538Y24388D01*
X37975Y24388D01*
X38213Y24626D01*
X38213Y24674D01*
X38315Y24572D01*
X38315Y24508D01*
X38482Y24342D01*
X38315Y24175D01*
X38315Y24111D01*
X38213Y24009D01*
X38213Y24057D01*
X37975Y24296D01*
X36538Y24296D01*
X36407Y24164D01*
X36275Y24296D01*
X34838Y24296D01*
X34600Y24057D01*
X34600Y23897D01*
X33740Y23897D01*
X33740Y30739D01*
X33888Y30888D01*
X34006Y31173D01*
X34006Y31481D01*
X33888Y31765D01*
X33670Y31983D01*
X33386Y32101D01*
X33078Y32101D01*
X32793Y31983D01*
X32575Y31765D01*
X32457Y31481D01*
X32457Y31173D01*
X32575Y30888D01*
X32724Y30739D01*
X32724Y21441D01*
X32490Y21675D01*
X31835Y22330D01*
X31835Y37778D01*
X33466Y37778D01*
X33524Y37721D01*
X33524Y37269D01*
X33495Y37240D01*
X33495Y36103D01*
X33733Y35865D01*
X35221Y35865D01*
X35350Y35736D01*
X35305Y35690D01*
X35288Y35660D01*
X35270Y35678D01*
X33733Y35678D01*
X33495Y35440D01*
X33495Y34303D01*
X33733Y34065D01*
X33841Y34065D01*
X33841Y32953D01*
X33942Y32710D01*
X34450Y32202D01*
X34450Y31711D01*
X34688Y31473D01*
X34799Y31473D01*
X34799Y31161D01*
X35632Y30328D01*
X34838Y30328D01*
X34600Y30090D01*
X34600Y28753D01*
X34838Y28515D01*
X35049Y28515D01*
X35049Y28106D01*
X34838Y28106D01*
X34600Y27867D01*
X34600Y26531D01*
X34838Y26293D01*
X36275Y26293D01*
X36443Y26460D01*
X36488Y26415D01*
X36569Y26368D01*
X36660Y26344D01*
X37155Y26344D01*
X37155Y27098D01*
X37358Y27098D01*
X37358Y27301D01*
X38127Y27301D01*
X38315Y27112D01*
X38315Y27048D01*
X38522Y26842D01*
X38503Y26831D01*
X38437Y26765D01*
X38390Y26684D01*
X38366Y26593D01*
X38366Y26295D01*
X39273Y26295D01*
X39273Y26198D01*
X38366Y26198D01*
X38366Y25900D01*
X38390Y25809D01*
X38394Y25802D01*
X38213Y25802D01*
X38213Y25962D01*
X37975Y26201D01*
X36538Y26201D01*
X36371Y26033D01*
X36325Y26079D01*
X36244Y26126D01*
X36153Y26150D01*
X35658Y26150D01*
X35658Y25396D01*
X35455Y25396D01*
X35455Y26150D01*
X34960Y26150D01*
X34869Y26126D01*
X34788Y26079D01*
X34722Y26013D01*
X34675Y25931D01*
X34651Y25841D01*
X34651Y25396D01*
X35455Y25396D01*
X35455Y25193D01*
X34651Y25193D01*
X34651Y24747D01*
X34675Y24657D01*
X34722Y24576D01*
X34788Y24510D01*
X34869Y24463D01*
X34960Y24439D01*
X35455Y24439D01*
X35455Y25193D01*
X35658Y25193D01*
X35658Y24439D01*
X35658Y24580D02*
X35455Y24580D01*
X35455Y24782D02*
X35658Y24782D01*
X35658Y24984D02*
X35455Y24984D01*
X35455Y25185D02*
X35658Y25185D01*
X35557Y25294D02*
X35557Y26032D01*
X35772Y26247D01*
X38312Y26247D01*
X39322Y26247D01*
X38366Y26194D02*
X37982Y26194D01*
X37944Y26368D02*
X38025Y26415D01*
X38091Y26481D01*
X38138Y26562D01*
X38162Y26652D01*
X38162Y27098D01*
X37358Y27098D01*
X37358Y26344D01*
X37853Y26344D01*
X37944Y26368D01*
X37992Y26396D02*
X38366Y26396D01*
X38312Y26247D02*
X38312Y26882D01*
X37994Y27199D01*
X37257Y27199D01*
X37358Y27202D02*
X38225Y27202D01*
X38162Y27001D02*
X38363Y27001D01*
X38471Y26799D02*
X38162Y26799D01*
X38148Y26597D02*
X38367Y26597D01*
X38366Y25992D02*
X38183Y25992D01*
X38312Y25294D02*
X37257Y25294D01*
X38312Y25294D02*
X38629Y24977D01*
X39322Y24977D01*
X40198Y24379D02*
X40989Y24379D01*
X40782Y24177D02*
X41664Y24177D01*
X41487Y24977D02*
X41169Y25294D01*
X41169Y27199D01*
X41487Y27517D01*
X41487Y31327D01*
X41169Y31644D01*
X41169Y31962D01*
X40852Y32914D02*
X40852Y33232D01*
X40852Y34502D01*
X40965Y34060D02*
X41168Y34060D01*
X41168Y33859D02*
X40965Y33859D01*
X40965Y33657D02*
X41168Y33657D01*
X41168Y33455D02*
X40965Y33455D01*
X40965Y33253D02*
X40323Y33253D01*
X40852Y33232D02*
X41067Y33232D01*
X40375Y34060D02*
X40163Y34060D01*
X39367Y33232D02*
X39364Y33229D01*
X38527Y32447D02*
X38049Y32447D01*
X37992Y31329D02*
X37407Y31329D01*
X37992Y31329D02*
X38312Y31009D01*
X38312Y30374D01*
X38629Y30057D01*
X39322Y30057D01*
X38629Y28787D02*
X37994Y29422D01*
X37257Y29422D01*
X35307Y31372D01*
X35307Y32279D01*
X36163Y32043D02*
X36696Y32043D01*
X36550Y31842D02*
X36163Y31842D01*
X36092Y31640D02*
X36550Y31640D01*
X36550Y31438D02*
X35959Y31438D01*
X36160Y31236D02*
X36550Y31236D01*
X36550Y31035D02*
X36362Y31035D01*
X35530Y30430D02*
X33740Y30430D01*
X33740Y30631D02*
X35329Y30631D01*
X35127Y30833D02*
X33834Y30833D01*
X33949Y31035D02*
X34925Y31035D01*
X34799Y31236D02*
X34006Y31236D01*
X34006Y31438D02*
X34799Y31438D01*
X34521Y31640D02*
X33940Y31640D01*
X33812Y31842D02*
X34450Y31842D01*
X34450Y32043D02*
X33526Y32043D01*
X32937Y32043D02*
X31835Y32043D01*
X31835Y31842D02*
X32651Y31842D01*
X32523Y31640D02*
X31835Y31640D01*
X31835Y31438D02*
X32457Y31438D01*
X32457Y31236D02*
X31835Y31236D01*
X31835Y31035D02*
X32514Y31035D01*
X32630Y30833D02*
X31835Y30833D01*
X31835Y30631D02*
X32724Y30631D01*
X32724Y30430D02*
X31835Y30430D01*
X31835Y30228D02*
X32724Y30228D01*
X32724Y30026D02*
X31835Y30026D01*
X31835Y29825D02*
X32724Y29825D01*
X32724Y29623D02*
X31835Y29623D01*
X31835Y29421D02*
X32724Y29421D01*
X32724Y29219D02*
X31835Y29219D01*
X31835Y29018D02*
X32724Y29018D01*
X32724Y28816D02*
X31835Y28816D01*
X31835Y28614D02*
X32724Y28614D01*
X32724Y28413D02*
X31835Y28413D01*
X31835Y28211D02*
X32724Y28211D01*
X32724Y28009D02*
X31835Y28009D01*
X31835Y27808D02*
X32724Y27808D01*
X32724Y27606D02*
X31835Y27606D01*
X31835Y27404D02*
X32724Y27404D01*
X32724Y27202D02*
X31835Y27202D01*
X31835Y27001D02*
X32724Y27001D01*
X32724Y26799D02*
X31835Y26799D01*
X31835Y26597D02*
X32724Y26597D01*
X32724Y26396D02*
X31835Y26396D01*
X31835Y26194D02*
X32724Y26194D01*
X32724Y25992D02*
X31835Y25992D01*
X31835Y25791D02*
X32724Y25791D01*
X32724Y25589D02*
X31835Y25589D01*
X31835Y25387D02*
X32724Y25387D01*
X32724Y25185D02*
X31835Y25185D01*
X31835Y24984D02*
X32724Y24984D01*
X32724Y24782D02*
X31835Y24782D01*
X31835Y24580D02*
X32724Y24580D01*
X32724Y24379D02*
X31835Y24379D01*
X31835Y24177D02*
X32724Y24177D01*
X32724Y23975D02*
X31835Y23975D01*
X31835Y23774D02*
X32724Y23774D01*
X32724Y23572D02*
X31835Y23572D01*
X31835Y23370D02*
X32724Y23370D01*
X32724Y23168D02*
X31835Y23168D01*
X31835Y22967D02*
X32724Y22967D01*
X32724Y22765D02*
X31835Y22765D01*
X31835Y22563D02*
X32724Y22563D01*
X32724Y22362D02*
X31835Y22362D01*
X32004Y22160D02*
X32724Y22160D01*
X32724Y21958D02*
X32206Y21958D01*
X32408Y21757D02*
X32724Y21757D01*
X32724Y21555D02*
X32609Y21555D01*
X32279Y21167D02*
X32279Y17357D01*
X30242Y18933D02*
X26810Y18933D01*
X26690Y19134D02*
X30041Y19134D01*
X29954Y19336D02*
X26488Y19336D01*
X26163Y19538D02*
X29917Y19538D01*
X29813Y19740D02*
X26406Y19740D01*
X26608Y19941D02*
X29611Y19941D01*
X29409Y20143D02*
X26776Y20143D01*
X29422Y20849D02*
X30692Y19579D01*
X29422Y20849D02*
X29422Y27834D01*
X28914Y27202D02*
X28116Y27202D01*
X27955Y27001D02*
X28914Y27001D01*
X28914Y26799D02*
X27754Y26799D01*
X27360Y26597D02*
X28914Y26597D01*
X28914Y26396D02*
X18645Y26396D01*
X18093Y26396D02*
X17890Y26396D01*
X17890Y26221D02*
X17890Y26221D01*
X17890Y26597D02*
X18093Y26597D01*
X18093Y26799D02*
X17890Y26799D01*
X17890Y27001D02*
X18093Y27001D01*
X18093Y27202D02*
X17890Y27202D01*
X17890Y27404D02*
X18093Y27404D01*
X18093Y27606D02*
X25480Y27606D01*
X26118Y29421D02*
X30819Y29421D01*
X30819Y29219D02*
X27506Y29219D01*
X27814Y29018D02*
X30819Y29018D01*
X30819Y28816D02*
X28016Y28816D01*
X27676Y30228D02*
X30819Y30228D01*
X30819Y30430D02*
X27884Y30430D01*
X28086Y30631D02*
X30819Y30631D01*
X30819Y30833D02*
X28170Y30833D01*
X28254Y31035D02*
X30819Y31035D01*
X30819Y31236D02*
X28304Y31236D01*
X28304Y31438D02*
X30819Y31438D01*
X30819Y31640D02*
X28304Y31640D01*
X28254Y31842D02*
X30819Y31842D01*
X30819Y32043D02*
X28171Y32043D01*
X28087Y32245D02*
X30819Y32245D01*
X30819Y32447D02*
X27885Y32447D01*
X27678Y32648D02*
X30819Y32648D01*
X30819Y32850D02*
X27191Y32850D01*
X26572Y32850D02*
X26189Y32850D01*
X25987Y33052D02*
X30819Y33052D01*
X30819Y33253D02*
X19177Y33253D01*
X19037Y33455D02*
X30819Y33455D01*
X30819Y33657D02*
X27375Y33657D01*
X27408Y33668D02*
X27601Y33766D01*
X27775Y33892D01*
X27928Y34045D01*
X28055Y34220D01*
X28153Y34412D01*
X28219Y34617D01*
X28253Y34831D01*
X28253Y34837D01*
X26983Y34837D01*
X26983Y33567D01*
X26990Y33567D01*
X27203Y33601D01*
X27408Y33668D01*
X27729Y33859D02*
X30819Y33859D01*
X30819Y34060D02*
X27939Y34060D01*
X28076Y34262D02*
X30819Y34262D01*
X30819Y34464D02*
X28170Y34464D01*
X28227Y34665D02*
X30819Y34665D01*
X30819Y34867D02*
X26983Y34867D01*
X26983Y34837D02*
X26983Y35040D01*
X26780Y35040D01*
X26780Y34837D01*
X25510Y34837D01*
X25510Y34831D01*
X25544Y34617D01*
X25611Y34412D01*
X25709Y34220D01*
X25835Y34045D01*
X25988Y33892D01*
X26163Y33766D01*
X26355Y33668D01*
X26560Y33601D01*
X26774Y33567D01*
X26780Y33567D01*
X26780Y34837D01*
X26983Y34837D01*
X26983Y34665D02*
X26780Y34665D01*
X26780Y34464D02*
X26983Y34464D01*
X26983Y34262D02*
X26780Y34262D01*
X26780Y34060D02*
X26983Y34060D01*
X26983Y33859D02*
X26780Y33859D01*
X26780Y33657D02*
X26983Y33657D01*
X26388Y33657D02*
X18835Y33657D01*
X18714Y34060D02*
X25824Y34060D01*
X25687Y34262D02*
X18949Y34262D01*
X19103Y34464D02*
X25594Y34464D01*
X25536Y34665D02*
X19201Y34665D01*
X19261Y34867D02*
X26780Y34867D01*
X26780Y35040D02*
X25510Y35040D01*
X25510Y35047D01*
X25544Y35260D01*
X25611Y35465D01*
X25709Y35658D01*
X25835Y35832D01*
X25988Y35985D01*
X26163Y36112D01*
X26355Y36210D01*
X26560Y36276D01*
X26774Y36310D01*
X26780Y36310D01*
X26780Y35040D01*
X26780Y35069D02*
X26983Y35069D01*
X26983Y35040D02*
X26983Y36310D01*
X26990Y36310D01*
X27203Y36276D01*
X27408Y36210D01*
X27601Y36112D01*
X27775Y35985D01*
X27928Y35832D01*
X28055Y35658D01*
X28153Y35465D01*
X28219Y35260D01*
X28253Y35047D01*
X28253Y35040D01*
X26983Y35040D01*
X26983Y35270D02*
X26780Y35270D01*
X26780Y35472D02*
X26983Y35472D01*
X26983Y35674D02*
X26780Y35674D01*
X26780Y35876D02*
X26983Y35876D01*
X26983Y36077D02*
X26780Y36077D01*
X26780Y36279D02*
X26983Y36279D01*
X27187Y36279D02*
X30819Y36279D01*
X30819Y36481D02*
X18622Y36481D01*
X18603Y36279D02*
X26576Y36279D01*
X26115Y36077D02*
X18883Y36077D01*
X19056Y35876D02*
X25879Y35876D01*
X25720Y35674D02*
X19172Y35674D01*
X19245Y35472D02*
X25614Y35472D01*
X25547Y35270D02*
X19282Y35270D01*
X19287Y35035D02*
X19287Y35035D01*
X18093Y35069D02*
X25514Y35069D01*
X26035Y33859D02*
X18463Y33859D01*
X17992Y32597D02*
X25724Y32597D01*
X26882Y31439D01*
X25459Y31438D02*
X18713Y31438D01*
X18661Y31236D02*
X25459Y31236D01*
X25509Y31035D02*
X18917Y31035D01*
X19119Y30833D02*
X25593Y30833D01*
X25677Y30631D02*
X19211Y30631D01*
X18939Y31640D02*
X25459Y31640D01*
X25509Y31842D02*
X19136Y31842D01*
X19220Y32043D02*
X25559Y32043D01*
X25879Y30430D02*
X25109Y30430D01*
X25311Y30228D02*
X26088Y30228D01*
X26575Y30026D02*
X25512Y30026D01*
X25714Y29825D02*
X30819Y29825D01*
X30819Y30026D02*
X27189Y30026D01*
X25916Y29623D02*
X30819Y29623D01*
X33740Y29623D02*
X34600Y29623D01*
X34600Y29825D02*
X33740Y29825D01*
X33740Y30026D02*
X34600Y30026D01*
X34738Y30228D02*
X33740Y30228D01*
X33740Y29421D02*
X34600Y29421D01*
X34600Y29219D02*
X33740Y29219D01*
X33740Y29018D02*
X34600Y29018D01*
X34600Y28816D02*
X33740Y28816D01*
X33740Y28614D02*
X34739Y28614D01*
X35049Y28413D02*
X33740Y28413D01*
X33740Y28211D02*
X35049Y28211D01*
X34742Y28009D02*
X33740Y28009D01*
X33740Y27808D02*
X34600Y27808D01*
X34600Y27606D02*
X33740Y27606D01*
X33740Y27404D02*
X34600Y27404D01*
X34600Y27202D02*
X33740Y27202D01*
X33740Y27001D02*
X34600Y27001D01*
X34600Y26799D02*
X33740Y26799D01*
X33740Y26597D02*
X34600Y26597D01*
X34735Y26396D02*
X33740Y26396D01*
X33740Y26194D02*
X36532Y26194D01*
X36521Y26396D02*
X36378Y26396D01*
X37155Y26396D02*
X37358Y26396D01*
X37358Y26597D02*
X37155Y26597D01*
X37155Y26799D02*
X37358Y26799D01*
X37358Y27001D02*
X37155Y27001D01*
X37994Y28152D02*
X35557Y28152D01*
X35557Y27199D01*
X35557Y28152D02*
X35557Y29422D01*
X37994Y28152D02*
X38629Y27517D01*
X39322Y27517D01*
X39322Y28787D02*
X38629Y28787D01*
X41995Y26247D02*
X42122Y26374D01*
X42122Y34819D01*
X41804Y35137D01*
X41804Y42217D01*
X41747Y42274D01*
X43582Y42330D02*
X47964Y42330D01*
X47964Y42485D02*
X47964Y35724D01*
X47767Y35920D01*
X47483Y36038D01*
X47272Y36038D01*
X46122Y37189D01*
X46122Y38359D01*
X46271Y38508D01*
X46389Y38793D01*
X46389Y39101D01*
X46271Y39385D01*
X46053Y39603D01*
X45768Y39721D01*
X45460Y39721D01*
X45175Y39603D01*
X44957Y39385D01*
X44852Y39131D01*
X44852Y40582D01*
X45001Y40730D01*
X45119Y41015D01*
X45119Y41323D01*
X45001Y41608D01*
X44783Y41826D01*
X44498Y41944D01*
X44190Y41944D01*
X43905Y41826D01*
X43687Y41608D01*
X43582Y41354D01*
X43582Y43081D01*
X44043Y43081D01*
X44281Y43319D01*
X44281Y43689D01*
X44471Y43499D01*
X44760Y43210D01*
X44760Y42723D01*
X44998Y42485D01*
X46435Y42485D01*
X46567Y42617D01*
X46698Y42485D01*
X47964Y42485D01*
X47964Y42128D02*
X43582Y42128D01*
X43582Y41927D02*
X44148Y41927D01*
X44540Y41927D02*
X47964Y41927D01*
X47964Y41725D02*
X44884Y41725D01*
X45036Y41523D02*
X47964Y41523D01*
X47964Y41321D02*
X45119Y41321D01*
X45119Y41120D02*
X47964Y41120D01*
X47964Y40918D02*
X45079Y40918D01*
X44987Y40716D02*
X47964Y40716D01*
X47964Y40515D02*
X44852Y40515D01*
X44852Y40313D02*
X47964Y40313D01*
X47964Y40111D02*
X44852Y40111D01*
X44852Y39910D02*
X47964Y39910D01*
X47964Y39708D02*
X45801Y39708D01*
X45427Y39708D02*
X44852Y39708D01*
X44852Y39506D02*
X45078Y39506D01*
X44924Y39304D02*
X44852Y39304D01*
X45614Y38947D02*
X45614Y36978D01*
X47329Y35264D01*
X46554Y35270D02*
X43900Y35270D01*
X43900Y35069D02*
X46571Y35069D01*
X46554Y35110D02*
X46672Y34825D01*
X46890Y34607D01*
X47175Y34489D01*
X47483Y34489D01*
X47767Y34607D01*
X47964Y34803D01*
X47964Y33339D01*
X48229Y33073D01*
X47511Y32355D01*
X47356Y32419D01*
X47048Y32419D01*
X46763Y32301D01*
X46545Y32083D01*
X46427Y31798D01*
X46427Y31490D01*
X46545Y31205D01*
X46763Y30987D01*
X47048Y30869D01*
X47356Y30869D01*
X47508Y30932D01*
X47300Y30725D01*
X47300Y30565D01*
X45888Y30565D01*
X45761Y30692D01*
X45928Y30858D01*
X45928Y31795D01*
X45690Y32033D01*
X44153Y32033D01*
X43955Y31835D01*
X43499Y31835D01*
X43265Y31601D01*
X43265Y32898D01*
X43270Y32892D01*
X43555Y32774D01*
X43863Y32774D01*
X44148Y32892D01*
X44366Y33110D01*
X44484Y33395D01*
X44484Y33703D01*
X44366Y33988D01*
X44148Y34206D01*
X43900Y34309D01*
X43900Y36984D01*
X44005Y36730D01*
X44223Y36512D01*
X44508Y36394D01*
X44816Y36394D01*
X45100Y36512D01*
X45231Y36643D01*
X46554Y35320D01*
X46554Y35110D01*
X46654Y34867D02*
X43900Y34867D01*
X43900Y34665D02*
X46831Y34665D01*
X46402Y35472D02*
X43900Y35472D01*
X43900Y35674D02*
X46200Y35674D01*
X45998Y35876D02*
X43900Y35876D01*
X43900Y36077D02*
X45797Y36077D01*
X45595Y36279D02*
X43900Y36279D01*
X43900Y36481D02*
X44298Y36481D01*
X44052Y36682D02*
X43900Y36682D01*
X43900Y36884D02*
X43941Y36884D01*
X44344Y37486D02*
X44662Y37169D01*
X44344Y37486D02*
X44344Y41169D01*
X43804Y41725D02*
X43582Y41725D01*
X43582Y41523D02*
X43652Y41523D01*
X43582Y42532D02*
X44952Y42532D01*
X44760Y42733D02*
X43582Y42733D01*
X43582Y42935D02*
X44760Y42935D01*
X44760Y43137D02*
X44098Y43137D01*
X44281Y43338D02*
X44631Y43338D01*
X44430Y43540D02*
X44281Y43540D01*
X44979Y43709D02*
X45399Y43709D01*
X45717Y43392D01*
X44979Y43709D02*
X44122Y44567D01*
X43239Y44567D01*
X42344Y44567D01*
X42122Y44344D01*
X40534Y44344D01*
X41122Y44852D02*
X40973Y45001D01*
X40688Y45119D01*
X40380Y45119D01*
X40095Y45001D01*
X39877Y44783D01*
X39772Y44529D01*
X39772Y47249D01*
X39921Y47398D01*
X40039Y47683D01*
X40039Y47991D01*
X40011Y48059D01*
X40673Y48059D01*
X40344Y47730D01*
X40344Y46356D01*
X40641Y46059D01*
X41041Y45659D01*
X42249Y45659D01*
X42249Y45405D01*
X43201Y45405D01*
X43201Y45329D01*
X42249Y45329D01*
X42249Y45075D01*
X42134Y45075D01*
X41911Y44852D01*
X41122Y44852D01*
X41022Y44952D02*
X42011Y44952D01*
X42249Y45154D02*
X39772Y45154D01*
X39772Y45355D02*
X43201Y45355D01*
X43239Y45367D02*
X41874Y45367D01*
X41804Y45297D01*
X42249Y45557D02*
X39772Y45557D01*
X39772Y45759D02*
X40941Y45759D01*
X40739Y45961D02*
X39772Y45961D01*
X39772Y46162D02*
X40538Y46162D01*
X40344Y46364D02*
X39772Y46364D01*
X39772Y46566D02*
X40344Y46566D01*
X40344Y46767D02*
X39772Y46767D01*
X39772Y46969D02*
X40344Y46969D01*
X40344Y47171D02*
X39772Y47171D01*
X39896Y47372D02*
X40344Y47372D01*
X40344Y47574D02*
X39994Y47574D01*
X40039Y47776D02*
X40390Y47776D01*
X40592Y47978D02*
X40039Y47978D01*
X39264Y47837D02*
X39264Y42439D01*
X39347Y42357D01*
X39347Y42274D01*
X39264Y42192D01*
X39264Y36724D01*
X40039Y36682D02*
X41296Y36682D01*
X41296Y36481D02*
X40002Y36481D01*
X39915Y36279D02*
X41296Y36279D01*
X41296Y36077D02*
X39713Y36077D01*
X40036Y36884D02*
X41296Y36884D01*
X41296Y35876D02*
X38555Y35876D01*
X38583Y36077D02*
X38815Y36077D01*
X38614Y36279D02*
X38583Y36279D01*
X38471Y35674D02*
X41296Y35674D01*
X41296Y35472D02*
X38532Y35472D01*
X38532Y35270D02*
X41296Y35270D01*
X41296Y35069D02*
X38532Y35069D01*
X38532Y34665D02*
X41557Y34665D01*
X41614Y34464D02*
X38532Y34464D01*
X38515Y34262D02*
X41614Y34262D01*
X41355Y34867D02*
X37778Y34867D01*
X37778Y35023D02*
X37778Y35665D01*
X37575Y35665D01*
X37575Y35023D01*
X37778Y35023D01*
X37778Y35069D02*
X37575Y35069D01*
X37575Y35270D02*
X37778Y35270D01*
X37778Y35472D02*
X37575Y35472D01*
X37575Y34867D02*
X36191Y34867D01*
X36191Y35023D02*
X35988Y35023D01*
X35988Y35665D01*
X36191Y35665D01*
X36191Y35023D01*
X36191Y35069D02*
X35988Y35069D01*
X35988Y35270D02*
X36191Y35270D01*
X36191Y35472D02*
X35988Y35472D01*
X35295Y35674D02*
X35274Y35674D01*
X33729Y35674D02*
X31835Y35674D01*
X31835Y35876D02*
X33723Y35876D01*
X33521Y36077D02*
X31835Y36077D01*
X31835Y36279D02*
X33495Y36279D01*
X33495Y36481D02*
X31835Y36481D01*
X31835Y36682D02*
X33495Y36682D01*
X33495Y36884D02*
X31835Y36884D01*
X31835Y37086D02*
X33495Y37086D01*
X33524Y37287D02*
X31835Y37287D01*
X31835Y37489D02*
X33524Y37489D01*
X33524Y37691D02*
X31835Y37691D01*
X31327Y38312D02*
X31327Y22119D01*
X32279Y21167D01*
X33740Y21757D02*
X38527Y21757D01*
X38448Y21555D02*
X38176Y21555D01*
X38325Y21958D02*
X33740Y21958D01*
X33740Y22160D02*
X38315Y22160D01*
X38315Y22362D02*
X33740Y22362D01*
X33740Y22563D02*
X34758Y22563D01*
X34600Y22765D02*
X33740Y22765D01*
X33232Y23453D02*
X33232Y31327D01*
X34205Y32447D02*
X31835Y32447D01*
X31835Y32648D02*
X34004Y32648D01*
X33884Y32850D02*
X31835Y32850D01*
X31835Y33052D02*
X33841Y33052D01*
X33841Y33253D02*
X31835Y33253D01*
X31835Y33455D02*
X33841Y33455D01*
X33841Y33657D02*
X31835Y33657D01*
X31835Y33859D02*
X33841Y33859D01*
X33841Y34060D02*
X31835Y34060D01*
X31835Y34262D02*
X33537Y34262D01*
X33495Y34464D02*
X31835Y34464D01*
X31835Y34665D02*
X33495Y34665D01*
X33495Y34867D02*
X31835Y34867D01*
X31835Y35069D02*
X33495Y35069D01*
X33495Y35270D02*
X31835Y35270D01*
X31835Y35472D02*
X33527Y35472D01*
X35162Y34060D02*
X35417Y34060D01*
X35162Y33859D02*
X36611Y33859D01*
X36550Y33657D02*
X35162Y33657D01*
X35162Y33455D02*
X36550Y33455D01*
X36550Y33253D02*
X35266Y33253D01*
X35988Y34060D02*
X36191Y34060D01*
X36191Y34262D02*
X35988Y34262D01*
X35988Y34464D02*
X36191Y34464D01*
X36191Y34665D02*
X35988Y34665D01*
X36761Y34060D02*
X37005Y34060D01*
X38349Y34060D02*
X38571Y34060D01*
X34407Y32245D02*
X31835Y32245D01*
X30819Y35069D02*
X28250Y35069D01*
X28216Y35270D02*
X30819Y35270D01*
X30819Y35472D02*
X28149Y35472D01*
X28043Y35674D02*
X30819Y35674D01*
X30819Y35876D02*
X27884Y35876D01*
X27648Y36077D02*
X30819Y36077D01*
X30819Y36682D02*
X18901Y36682D01*
X19103Y36884D02*
X30819Y36884D01*
X30819Y37086D02*
X28135Y37086D01*
X28304Y37287D02*
X30819Y37287D01*
X30819Y37489D02*
X28304Y37489D01*
X28304Y37691D02*
X30819Y37691D01*
X31327Y38312D02*
X31454Y38439D01*
X32279Y38439D01*
X32148Y39099D02*
X33608Y39099D01*
X33871Y39099D01*
X34114Y38999D01*
X34558Y38554D01*
X34558Y38554D01*
X34744Y38368D01*
X34845Y38126D01*
X34845Y37478D01*
X35270Y37478D01*
X35295Y37453D01*
X35421Y37578D01*
X35740Y37578D01*
X35632Y37840D01*
X35632Y38148D01*
X35750Y38433D01*
X35899Y38582D01*
X35899Y39157D01*
X36196Y39455D01*
X37169Y40427D01*
X37169Y41233D01*
X35699Y41233D01*
X35461Y41471D01*
X35461Y43077D01*
X35699Y43315D01*
X38756Y43315D01*
X38756Y47249D01*
X38607Y47398D01*
X38489Y47683D01*
X38489Y47991D01*
X38518Y48059D01*
X36280Y48059D01*
X36280Y46991D01*
X35962Y46674D01*
X35665Y46376D01*
X35645Y46376D01*
X35645Y46205D01*
X34692Y46205D01*
X34692Y46129D01*
X35645Y46129D01*
X35645Y45865D01*
X35695Y45814D01*
X35695Y43319D01*
X35457Y43081D01*
X33851Y43081D01*
X33613Y43319D01*
X33613Y45814D01*
X33663Y45865D01*
X33663Y46129D01*
X34616Y46129D01*
X34616Y46205D01*
X33685Y46205D01*
X33633Y46152D01*
X33551Y46105D01*
X33461Y46081D01*
X33016Y46081D01*
X33016Y46885D01*
X32813Y46885D01*
X32813Y46081D01*
X32367Y46081D01*
X32277Y46105D01*
X32196Y46152D01*
X32130Y46218D01*
X32083Y46299D01*
X32059Y46390D01*
X32059Y46885D01*
X32813Y46885D01*
X32813Y47088D01*
X32059Y47088D01*
X32059Y47583D01*
X32083Y47674D01*
X32130Y47755D01*
X32175Y47801D01*
X32008Y47968D01*
X32008Y49405D01*
X32246Y49643D01*
X32597Y49643D01*
X32597Y49869D01*
X31918Y49869D01*
X30978Y48929D01*
X28304Y48929D01*
X28304Y48253D01*
X28066Y48014D01*
X25697Y48014D01*
X25459Y48253D01*
X25459Y48599D01*
X19238Y48599D01*
X19133Y48344D01*
X18754Y47965D01*
X18443Y47837D01*
X18754Y47708D01*
X19133Y47329D01*
X19238Y47075D01*
X26284Y47075D01*
X26301Y47058D01*
X26599Y47181D01*
X27165Y47181D01*
X27687Y46965D01*
X28088Y46565D01*
X28304Y46042D01*
X28304Y45476D01*
X28156Y45119D01*
X28306Y45119D01*
X28590Y45001D01*
X28808Y44783D01*
X28926Y44498D01*
X28926Y44190D01*
X28808Y43905D01*
X28590Y43687D01*
X28306Y43569D01*
X27998Y43569D01*
X27713Y43687D01*
X27495Y43905D01*
X27377Y44190D01*
X27377Y44400D01*
X27360Y44418D01*
X27165Y44337D01*
X26599Y44337D01*
X26076Y44553D01*
X25676Y44953D01*
X25459Y45476D01*
X25459Y46042D01*
X25466Y46059D01*
X19238Y46059D01*
X19133Y45804D01*
X18754Y45425D01*
X18369Y45266D01*
X18489Y45227D01*
X18671Y45135D01*
X18836Y45015D01*
X18980Y44871D01*
X19100Y44706D01*
X19192Y44524D01*
X19255Y44330D01*
X19287Y44129D01*
X19287Y44128D01*
X18093Y44128D01*
X18093Y43925D01*
X18093Y42731D01*
X18094Y42731D01*
X18295Y42763D01*
X18489Y42826D01*
X18671Y42919D01*
X18836Y43039D01*
X18980Y43183D01*
X19100Y43348D01*
X19192Y43529D01*
X19255Y43723D01*
X19287Y43925D01*
X18093Y43925D01*
X17890Y43925D01*
X17890Y42731D01*
X17890Y42731D01*
X17688Y42763D01*
X17494Y42826D01*
X17313Y42919D01*
X17230Y42979D01*
X17230Y38818D01*
X17724Y39023D01*
X18259Y39023D01*
X18754Y38818D01*
X19133Y38439D01*
X19175Y38337D01*
X25459Y38337D01*
X25459Y39623D01*
X25697Y39861D01*
X28066Y39861D01*
X28304Y39623D01*
X28304Y39099D01*
X32148Y39099D01*
X34211Y38901D02*
X35899Y38901D01*
X35899Y38699D02*
X34413Y38699D01*
X34615Y38498D02*
X35815Y38498D01*
X35693Y38296D02*
X34774Y38296D01*
X34845Y38094D02*
X35632Y38094D01*
X35632Y37893D02*
X34845Y37893D01*
X34845Y37691D02*
X35694Y37691D01*
X35332Y37489D02*
X34845Y37489D01*
X36407Y37994D02*
X36407Y38947D01*
X37677Y40217D01*
X37677Y42204D01*
X37747Y42274D01*
X38547Y42274D02*
X38629Y42192D01*
X38629Y39772D01*
X37613Y38756D01*
X36651Y39910D02*
X17230Y39910D01*
X17230Y40111D02*
X36853Y40111D01*
X37055Y40313D02*
X17230Y40313D01*
X17230Y40515D02*
X37169Y40515D01*
X37169Y40716D02*
X27032Y40716D01*
X26990Y40710D02*
X27203Y40743D01*
X27408Y40810D01*
X27601Y40908D01*
X27775Y41035D01*
X27928Y41188D01*
X28055Y41362D01*
X28153Y41555D01*
X28219Y41760D01*
X28253Y41973D01*
X28253Y41980D01*
X26983Y41980D01*
X26983Y42183D01*
X26780Y42183D01*
X26780Y43453D01*
X26774Y43453D01*
X26560Y43419D01*
X26355Y43352D01*
X26163Y43254D01*
X25988Y43127D01*
X25835Y42975D01*
X25709Y42800D01*
X25611Y42608D01*
X25544Y42402D01*
X25510Y42189D01*
X25510Y42183D01*
X26780Y42183D01*
X26780Y41980D01*
X25510Y41980D01*
X25510Y41973D01*
X25544Y41760D01*
X25611Y41555D01*
X25709Y41362D01*
X25835Y41188D01*
X25988Y41035D01*
X26163Y40908D01*
X26355Y40810D01*
X26560Y40743D01*
X26774Y40710D01*
X26780Y40710D01*
X26780Y41980D01*
X26983Y41980D01*
X26983Y40710D01*
X26990Y40710D01*
X26983Y40716D02*
X26780Y40716D01*
X26731Y40716D02*
X17230Y40716D01*
X17230Y40918D02*
X26149Y40918D01*
X25903Y41120D02*
X17230Y41120D01*
X17230Y41321D02*
X25738Y41321D01*
X25627Y41523D02*
X17230Y41523D01*
X17230Y41725D02*
X25555Y41725D01*
X25517Y41927D02*
X17230Y41927D01*
X17230Y42128D02*
X26780Y42128D01*
X26882Y42081D02*
X26998Y42198D01*
X29472Y42198D01*
X29422Y42147D01*
X29422Y39582D01*
X28304Y39506D02*
X36248Y39506D01*
X36449Y39708D02*
X28219Y39708D01*
X28304Y39304D02*
X36046Y39304D01*
X35899Y39103D02*
X28304Y39103D01*
X25544Y39708D02*
X17230Y39708D01*
X17230Y39506D02*
X25459Y39506D01*
X25459Y39304D02*
X17230Y39304D01*
X17230Y39103D02*
X25459Y39103D01*
X25459Y38901D02*
X18553Y38901D01*
X18873Y38699D02*
X25459Y38699D01*
X25459Y38498D02*
X19074Y38498D01*
X17430Y38901D02*
X17230Y38901D01*
X17230Y42330D02*
X25532Y42330D01*
X25586Y42532D02*
X17230Y42532D01*
X17230Y42733D02*
X17876Y42733D01*
X17890Y42733D02*
X18093Y42733D01*
X18107Y42733D02*
X25675Y42733D01*
X25807Y42935D02*
X18693Y42935D01*
X18934Y43137D02*
X26001Y43137D01*
X26328Y43338D02*
X19093Y43338D01*
X19196Y43540D02*
X33613Y43540D01*
X33613Y43338D02*
X27435Y43338D01*
X27408Y43352D02*
X27203Y43419D01*
X26990Y43453D01*
X26983Y43453D01*
X26983Y42183D01*
X28253Y42183D01*
X28253Y42189D01*
X28219Y42402D01*
X28153Y42608D01*
X28055Y42800D01*
X27928Y42975D01*
X27775Y43127D01*
X27601Y43254D01*
X27408Y43352D01*
X27762Y43137D02*
X33795Y43137D01*
X33613Y43742D02*
X28645Y43742D01*
X28824Y43944D02*
X33613Y43944D01*
X33613Y44145D02*
X28908Y44145D01*
X28926Y44347D02*
X33613Y44347D01*
X33613Y44549D02*
X28905Y44549D01*
X28822Y44750D02*
X33613Y44750D01*
X33613Y44952D02*
X28639Y44952D01*
X28171Y45154D02*
X33613Y45154D01*
X33613Y45355D02*
X28254Y45355D01*
X28304Y45557D02*
X33613Y45557D01*
X33613Y45759D02*
X28304Y45759D01*
X28304Y45961D02*
X33663Y45961D01*
X33549Y45932D02*
X32914Y45932D01*
X32914Y46987D01*
X32813Y46969D02*
X27677Y46969D01*
X27885Y46767D02*
X32059Y46767D01*
X32059Y46566D02*
X28087Y46566D01*
X28171Y46364D02*
X32065Y46364D01*
X32186Y46162D02*
X28254Y46162D01*
X26882Y45759D02*
X26882Y45614D01*
X28152Y44344D01*
X27377Y44347D02*
X27189Y44347D01*
X27396Y44145D02*
X19284Y44145D01*
X19250Y44347D02*
X26574Y44347D01*
X26087Y44549D02*
X19180Y44549D01*
X19067Y44750D02*
X25879Y44750D01*
X25677Y44952D02*
X18898Y44952D01*
X18633Y45154D02*
X25593Y45154D01*
X25509Y45355D02*
X18585Y45355D01*
X18886Y45557D02*
X25459Y45557D01*
X25459Y45759D02*
X19088Y45759D01*
X19198Y45961D02*
X25459Y45961D01*
X26074Y46567D02*
X26882Y45759D01*
X26074Y46567D02*
X17992Y46567D01*
X18888Y47574D02*
X32059Y47574D01*
X32059Y47372D02*
X19090Y47372D01*
X19199Y47171D02*
X26573Y47171D01*
X27190Y47171D02*
X32059Y47171D01*
X32150Y47776D02*
X18590Y47776D01*
X18766Y47978D02*
X32008Y47978D01*
X32008Y48179D02*
X28231Y48179D01*
X28304Y48381D02*
X32008Y48381D01*
X32008Y48583D02*
X28304Y48583D01*
X28304Y48784D02*
X32008Y48784D01*
X32008Y48986D02*
X31035Y48986D01*
X31237Y49188D02*
X32008Y49188D01*
X32008Y49389D02*
X31439Y49389D01*
X31641Y49591D02*
X32194Y49591D01*
X31842Y49793D02*
X32597Y49793D01*
X33105Y50377D02*
X31708Y50377D01*
X30768Y49437D01*
X26882Y49437D01*
X26551Y49107D01*
X17992Y49107D01*
X19238Y49615D02*
X19133Y49869D01*
X18754Y50248D01*
X18259Y50453D01*
X17724Y50453D01*
X17230Y50248D01*
X17230Y57997D01*
X17244Y58145D01*
X17358Y58420D01*
X17568Y58630D01*
X17843Y58744D01*
X17992Y58759D01*
X43520Y58759D01*
X43315Y58554D01*
X43315Y58505D01*
X38101Y58505D01*
X32894Y53298D01*
X32597Y53000D01*
X32597Y50885D01*
X31497Y50885D01*
X31200Y50587D01*
X30557Y49945D01*
X28304Y49945D01*
X28304Y50621D01*
X28066Y50859D01*
X25697Y50859D01*
X25459Y50621D01*
X25459Y49615D01*
X19238Y49615D01*
X19165Y49793D02*
X25459Y49793D01*
X25459Y49995D02*
X19008Y49995D01*
X18806Y50196D02*
X25459Y50196D01*
X25459Y50398D02*
X18392Y50398D01*
X17591Y50398D02*
X17230Y50398D01*
X17230Y50600D02*
X25459Y50600D01*
X25639Y50801D02*
X17230Y50801D01*
X17230Y51003D02*
X32597Y51003D01*
X32597Y51205D02*
X17230Y51205D01*
X17230Y51406D02*
X32597Y51406D01*
X32597Y51608D02*
X17230Y51608D01*
X17230Y51810D02*
X32597Y51810D01*
X32597Y52012D02*
X17230Y52012D01*
X17230Y52213D02*
X32597Y52213D01*
X32597Y52415D02*
X17230Y52415D01*
X17230Y52617D02*
X32597Y52617D01*
X32597Y52818D02*
X17230Y52818D01*
X17230Y53020D02*
X32617Y53020D01*
X32818Y53222D02*
X17230Y53222D01*
X17230Y53423D02*
X33020Y53423D01*
X33222Y53625D02*
X17230Y53625D01*
X17230Y53827D02*
X19213Y53827D01*
X19480Y53729D02*
X18697Y54014D01*
X18697Y54014D01*
X18059Y54550D01*
X18059Y54550D01*
X17643Y55271D01*
X17643Y55271D01*
X17498Y56092D01*
X17498Y56092D01*
X17643Y56912D01*
X17643Y56912D01*
X18059Y57633D01*
X18059Y57633D01*
X18059Y57633D01*
X18697Y58169D01*
X18697Y58169D01*
X19480Y58454D01*
X20313Y58454D01*
X21096Y58169D01*
X21096Y58169D01*
X21734Y57633D01*
X21734Y57633D01*
X22151Y56912D01*
X22151Y56912D01*
X22295Y56092D01*
X22295Y56092D01*
X22151Y55271D01*
X22151Y55271D01*
X21734Y54550D01*
X21734Y54550D01*
X21734Y54550D01*
X21096Y54014D01*
X21096Y54014D01*
X20313Y53729D01*
X20107Y53729D01*
X19480Y53729D01*
X20313Y53729D02*
X20313Y53729D01*
X20581Y53827D02*
X33423Y53827D01*
X33625Y54029D02*
X21113Y54029D01*
X21353Y54230D02*
X33827Y54230D01*
X34029Y54432D02*
X21594Y54432D01*
X21783Y54634D02*
X34230Y54634D01*
X34432Y54835D02*
X21899Y54835D01*
X22015Y55037D02*
X34634Y55037D01*
X34835Y55239D02*
X22132Y55239D01*
X22180Y55440D02*
X35037Y55440D01*
X35239Y55642D02*
X22216Y55642D01*
X22252Y55844D02*
X35440Y55844D01*
X35642Y56046D02*
X22287Y56046D01*
X22268Y56247D02*
X35844Y56247D01*
X36046Y56449D02*
X22232Y56449D01*
X22197Y56651D02*
X24167Y56651D01*
X24198Y56638D02*
X24486Y56638D01*
X24752Y56748D01*
X24955Y56952D01*
X25066Y57218D01*
X25066Y57506D01*
X24955Y57772D01*
X24752Y57975D01*
X24486Y58086D01*
X24198Y58086D01*
X23932Y57975D01*
X23728Y57772D01*
X23618Y57506D01*
X23618Y57218D01*
X23728Y56952D01*
X23932Y56748D01*
X24198Y56638D01*
X24517Y56651D02*
X36247Y56651D01*
X36449Y56852D02*
X24856Y56852D01*
X24998Y57054D02*
X36651Y57054D01*
X36852Y57256D02*
X25066Y57256D01*
X25066Y57457D02*
X37054Y57457D01*
X37256Y57659D02*
X25002Y57659D01*
X24866Y57861D02*
X37457Y57861D01*
X37659Y58063D02*
X24541Y58063D01*
X24142Y58063D02*
X21223Y58063D01*
X21463Y57861D02*
X23817Y57861D01*
X23681Y57659D02*
X21704Y57659D01*
X21836Y57457D02*
X23618Y57457D01*
X23618Y57256D02*
X21952Y57256D01*
X22069Y57054D02*
X23686Y57054D01*
X23827Y56852D02*
X22161Y56852D01*
X20834Y58264D02*
X37861Y58264D01*
X38063Y58466D02*
X17404Y58466D01*
X17294Y58264D02*
X18959Y58264D01*
X18571Y58063D02*
X17236Y58063D01*
X17230Y57861D02*
X18330Y57861D01*
X18090Y57659D02*
X17230Y57659D01*
X17230Y57457D02*
X17958Y57457D01*
X17841Y57256D02*
X17230Y57256D01*
X17230Y57054D02*
X17725Y57054D01*
X17632Y56852D02*
X17230Y56852D01*
X17230Y56651D02*
X17597Y56651D01*
X17561Y56449D02*
X17230Y56449D01*
X17230Y56247D02*
X17525Y56247D01*
X17506Y56046D02*
X17230Y56046D01*
X17230Y55844D02*
X17542Y55844D01*
X17577Y55642D02*
X17230Y55642D01*
X17230Y55440D02*
X17613Y55440D01*
X17661Y55239D02*
X17230Y55239D01*
X17230Y55037D02*
X17778Y55037D01*
X17894Y54835D02*
X17230Y54835D01*
X17230Y54634D02*
X18011Y54634D01*
X18200Y54432D02*
X17230Y54432D01*
X17230Y54230D02*
X18440Y54230D01*
X18680Y54029D02*
X17230Y54029D01*
X17659Y58668D02*
X43429Y58668D01*
X43315Y57489D02*
X43315Y57439D01*
X44028Y56727D01*
X43315Y56014D01*
X43315Y55965D01*
X37466Y55965D01*
X37169Y55667D01*
X35639Y54137D01*
X35639Y51840D01*
X35461Y51663D01*
X35461Y50056D01*
X35585Y49932D01*
X35578Y49932D01*
X35457Y50052D01*
X33851Y50052D01*
X33613Y49814D01*
X33613Y49613D01*
X33613Y50587D01*
X33613Y52579D01*
X38522Y57489D01*
X43315Y57489D01*
X43315Y57457D02*
X38491Y57457D01*
X38289Y57256D02*
X43499Y57256D01*
X43700Y57054D02*
X38087Y57054D01*
X37886Y56852D02*
X43902Y56852D01*
X43952Y56651D02*
X37684Y56651D01*
X37482Y56449D02*
X43750Y56449D01*
X43548Y56247D02*
X37281Y56247D01*
X37079Y56046D02*
X43347Y56046D01*
X44662Y55457D02*
X37677Y55457D01*
X36147Y53927D01*
X36147Y50859D01*
X35461Y50801D02*
X33613Y50801D01*
X33613Y50600D02*
X35461Y50600D01*
X35461Y50398D02*
X33613Y50398D01*
X33613Y50196D02*
X35461Y50196D01*
X35515Y49995D02*
X35522Y49995D01*
X34712Y49424D02*
X34654Y49367D01*
X34712Y49424D02*
X41804Y49424D01*
X44662Y52282D01*
X47202Y52282D01*
X47202Y55457D01*
X48282Y54634D02*
X48661Y54634D01*
X48472Y54823D02*
X49184Y54110D01*
X50299Y54110D01*
X50821Y54632D01*
X50821Y49377D01*
X50672Y49228D01*
X50554Y48943D01*
X50554Y48635D01*
X50672Y48350D01*
X50890Y48132D01*
X50902Y48128D01*
X50496Y47722D01*
X50398Y47958D01*
X50250Y48107D01*
X50250Y51540D01*
X49952Y51837D01*
X49297Y52492D01*
X49000Y52790D01*
X47710Y52790D01*
X47710Y54110D01*
X47759Y54110D01*
X48472Y54823D01*
X48081Y54432D02*
X48863Y54432D01*
X49064Y54230D02*
X47879Y54230D01*
X47710Y54029D02*
X50821Y54029D01*
X50821Y54230D02*
X50419Y54230D01*
X50621Y54432D02*
X50821Y54432D01*
X50821Y53827D02*
X47710Y53827D01*
X47710Y53625D02*
X50821Y53625D01*
X50821Y53423D02*
X47710Y53423D01*
X47710Y53222D02*
X50821Y53222D01*
X50821Y53020D02*
X47710Y53020D01*
X47710Y52818D02*
X50821Y52818D01*
X50821Y52617D02*
X49173Y52617D01*
X49297Y52492D02*
X49297Y52492D01*
X49374Y52415D02*
X50821Y52415D01*
X50821Y52213D02*
X49576Y52213D01*
X49778Y52012D02*
X50821Y52012D01*
X50821Y51810D02*
X49979Y51810D01*
X50181Y51608D02*
X50821Y51608D01*
X50821Y51406D02*
X50250Y51406D01*
X50250Y51205D02*
X50821Y51205D01*
X50821Y51003D02*
X50250Y51003D01*
X50250Y50801D02*
X50821Y50801D01*
X50821Y50600D02*
X50250Y50600D01*
X50250Y50398D02*
X50821Y50398D01*
X50821Y50196D02*
X50250Y50196D01*
X50250Y49995D02*
X50821Y49995D01*
X50821Y49793D02*
X50250Y49793D01*
X50250Y49591D02*
X50821Y49591D01*
X50821Y49389D02*
X50250Y49389D01*
X50250Y49188D02*
X50656Y49188D01*
X50572Y48986D02*
X50250Y48986D01*
X50250Y48784D02*
X50554Y48784D01*
X50576Y48583D02*
X50250Y48583D01*
X50250Y48381D02*
X50660Y48381D01*
X50843Y48179D02*
X50250Y48179D01*
X50379Y47978D02*
X50752Y47978D01*
X50550Y47776D02*
X50474Y47776D01*
X49742Y47519D02*
X49742Y51329D01*
X48789Y52282D01*
X47202Y52282D01*
X47412Y51774D02*
X44872Y51774D01*
X44301Y51202D01*
X44941Y51202D01*
X44941Y51231D01*
X45179Y51469D01*
X46938Y51469D01*
X47176Y51231D01*
X47176Y51094D01*
X47296Y51094D01*
X47608Y50782D01*
X47608Y50340D01*
X47296Y50027D01*
X47176Y50027D01*
X47176Y49792D01*
X47237Y49731D01*
X47301Y49636D01*
X47344Y49530D01*
X47367Y49418D01*
X47367Y49372D01*
X46070Y49372D01*
X46070Y49350D01*
X47367Y49350D01*
X47367Y49303D01*
X47344Y49191D01*
X47301Y49086D01*
X47237Y48991D01*
X47176Y48930D01*
X47176Y48694D01*
X47296Y48694D01*
X47608Y48382D01*
X47608Y47940D01*
X47296Y47627D01*
X47176Y47627D01*
X47176Y47491D01*
X46938Y47252D01*
X45179Y47252D01*
X44941Y47491D01*
X44941Y47627D01*
X44822Y47627D01*
X44509Y47940D01*
X44509Y47976D01*
X44426Y48059D01*
X44281Y48059D01*
X44281Y47319D01*
X44230Y47268D01*
X44230Y47022D01*
X44363Y47156D01*
X45800Y47156D01*
X45968Y46988D01*
X46013Y47034D01*
X46094Y47081D01*
X46185Y47105D01*
X46680Y47105D01*
X46680Y46351D01*
X46883Y46351D01*
X46883Y47105D01*
X47378Y47105D01*
X47469Y47081D01*
X47550Y47034D01*
X47616Y46968D01*
X47663Y46886D01*
X47687Y46796D01*
X47687Y46351D01*
X46883Y46351D01*
X46883Y46148D01*
X47687Y46148D01*
X47687Y45702D01*
X47663Y45612D01*
X47616Y45531D01*
X47550Y45465D01*
X47469Y45418D01*
X47378Y45394D01*
X46883Y45394D01*
X46883Y46148D01*
X46680Y46148D01*
X46680Y45394D01*
X46185Y45394D01*
X46094Y45418D01*
X46013Y45465D01*
X45968Y45510D01*
X45800Y45343D01*
X45487Y45343D01*
X45487Y44872D01*
X45507Y44852D01*
X48281Y44852D01*
X48281Y45507D01*
X48566Y45792D01*
X48318Y45792D01*
X48033Y45910D01*
X47815Y46128D01*
X47697Y46413D01*
X47697Y46721D01*
X47815Y47005D01*
X47964Y47154D01*
X47964Y50424D01*
X47815Y50573D01*
X47697Y50858D01*
X47697Y51166D01*
X47815Y51450D01*
X48033Y51668D01*
X48287Y51774D01*
X47412Y51774D01*
X47797Y51406D02*
X47001Y51406D01*
X47176Y51205D02*
X47713Y51205D01*
X47697Y51003D02*
X47387Y51003D01*
X47588Y50801D02*
X47720Y50801D01*
X47804Y50600D02*
X47608Y50600D01*
X47608Y50398D02*
X47964Y50398D01*
X47964Y50196D02*
X47465Y50196D01*
X47646Y50059D02*
X47519Y49932D01*
X47519Y49424D01*
X47456Y49361D01*
X47075Y49361D01*
X46884Y49424D02*
X46821Y49361D01*
X46059Y49361D01*
X46048Y49372D02*
X46048Y49350D01*
X44751Y49350D01*
X44751Y49303D01*
X44773Y49191D01*
X44817Y49086D01*
X44824Y49075D01*
X44281Y49075D01*
X44281Y49814D01*
X44043Y50052D01*
X43786Y50052D01*
X43920Y50186D01*
X44663Y50186D01*
X44822Y50027D01*
X44941Y50027D01*
X44941Y49792D01*
X44880Y49731D01*
X44817Y49636D01*
X44773Y49530D01*
X44751Y49418D01*
X44751Y49372D01*
X46048Y49372D01*
X44941Y49793D02*
X44281Y49793D01*
X44281Y49591D02*
X44798Y49591D01*
X44751Y49389D02*
X44281Y49389D01*
X44281Y49188D02*
X44774Y49188D01*
X44637Y48567D02*
X45043Y48161D01*
X44673Y47776D02*
X44281Y47776D01*
X44281Y47978D02*
X44507Y47978D01*
X44281Y47574D02*
X44941Y47574D01*
X45059Y47372D02*
X44281Y47372D01*
X44230Y47171D02*
X47964Y47171D01*
X47964Y47372D02*
X47058Y47372D01*
X46884Y47519D02*
X47519Y47519D01*
X47519Y49424D01*
X47367Y49389D02*
X47964Y49389D01*
X47964Y49188D02*
X47343Y49188D01*
X47233Y48986D02*
X47964Y48986D01*
X47964Y48784D02*
X47176Y48784D01*
X47407Y48583D02*
X47964Y48583D01*
X47964Y48381D02*
X47608Y48381D01*
X47608Y48179D02*
X47964Y48179D01*
X47964Y47978D02*
X47608Y47978D01*
X47444Y47776D02*
X47964Y47776D01*
X47964Y47574D02*
X47176Y47574D01*
X46884Y47519D02*
X46782Y47417D01*
X46782Y46249D01*
X46883Y46162D02*
X47801Y46162D01*
X47717Y46364D02*
X47687Y46364D01*
X47687Y46566D02*
X47697Y46566D01*
X47687Y46767D02*
X47716Y46767D01*
X47800Y46969D02*
X47615Y46969D01*
X46883Y46969D02*
X46680Y46969D01*
X46680Y46767D02*
X46883Y46767D01*
X46883Y46566D02*
X46680Y46566D01*
X46680Y46364D02*
X46883Y46364D01*
X46883Y45961D02*
X46680Y45961D01*
X46680Y45759D02*
X46883Y45759D01*
X46883Y45557D02*
X46680Y45557D01*
X45813Y45355D02*
X48281Y45355D01*
X48281Y45154D02*
X45487Y45154D01*
X45487Y44952D02*
X48281Y44952D01*
X48331Y45557D02*
X47631Y45557D01*
X47687Y45759D02*
X48533Y45759D01*
X48789Y45297D02*
X51329Y47837D01*
X52917Y47837D01*
X53019Y47939D01*
X54187Y47939D01*
X54822Y47304D01*
X54822Y46389D01*
X55457Y46389D02*
X55457Y44979D01*
X52917Y42439D01*
X52917Y41029D01*
X52917Y40217D01*
X52599Y39899D01*
X52599Y39264D01*
X53552Y38312D01*
X53552Y37677D01*
X53524Y37649D01*
X52614Y37649D01*
X52508Y37649D01*
X50631Y35772D01*
X49844Y35772D01*
X49742Y35874D01*
X50223Y34918D02*
X49073Y34918D01*
X48980Y35011D01*
X48980Y33760D01*
X49158Y33581D01*
X49158Y33581D01*
X49456Y33283D01*
X49456Y33283D01*
X49952Y32787D01*
X50105Y32787D01*
X50105Y33100D01*
X50237Y33232D01*
X50105Y33363D01*
X50105Y34800D01*
X50223Y34918D01*
X50172Y34867D02*
X48980Y34867D01*
X48980Y34665D02*
X50105Y34665D01*
X50105Y34464D02*
X48980Y34464D01*
X48980Y34262D02*
X50105Y34262D01*
X50105Y34060D02*
X48980Y34060D01*
X48980Y33859D02*
X50105Y33859D01*
X50105Y33657D02*
X49082Y33657D01*
X49284Y33455D02*
X50105Y33455D01*
X50215Y33253D02*
X49486Y33253D01*
X49687Y33052D02*
X50105Y33052D01*
X50105Y32850D02*
X49889Y32850D01*
X49742Y32279D02*
X50592Y32279D01*
X50694Y32382D01*
X51012Y32382D01*
X51012Y30057D01*
X50377Y30057D01*
X49957Y30057D01*
X49742Y30057D01*
X50377Y30057D02*
X50377Y30374D01*
X51012Y30057D02*
X51647Y30057D01*
X51187Y29421D02*
X50913Y29421D01*
X50744Y29219D02*
X51456Y29219D01*
X51456Y29018D02*
X50148Y29018D01*
X50148Y28816D02*
X51456Y28816D01*
X51456Y28614D02*
X50148Y28614D01*
X50148Y28413D02*
X51456Y28413D01*
X51456Y28211D02*
X50148Y28211D01*
X50097Y28009D02*
X51456Y28009D01*
X51456Y27808D02*
X49164Y27808D01*
X49164Y27840D01*
X49050Y27840D01*
X49050Y27808D01*
X49164Y27808D01*
X49107Y27834D02*
X47519Y27834D01*
X46884Y28469D01*
X46567Y28787D01*
X44922Y28787D01*
X44970Y28816D02*
X47749Y28816D01*
X47749Y29018D02*
X45877Y29018D01*
X45854Y29219D02*
X47469Y29219D01*
X47300Y29421D02*
X45761Y29421D01*
X45877Y28614D02*
X47926Y28614D01*
X48065Y28413D02*
X45870Y28413D01*
X45749Y28211D02*
X48065Y28211D01*
X48116Y28009D02*
X45904Y28009D01*
X45928Y27808D02*
X49049Y27808D01*
X49107Y27834D02*
X49107Y27751D01*
X49107Y26882D01*
X49050Y27202D02*
X49164Y27202D01*
X49164Y27404D02*
X49050Y27404D01*
X49050Y27606D02*
X49164Y27606D01*
X50097Y27606D02*
X51456Y27606D01*
X51456Y27404D02*
X50097Y27404D01*
X50014Y27202D02*
X51456Y27202D01*
X51456Y27001D02*
X46453Y27001D01*
X46792Y26799D02*
X51456Y26799D01*
X51456Y26597D02*
X46942Y26597D01*
X47024Y26396D02*
X51456Y26396D01*
X51456Y26194D02*
X47024Y26194D01*
X46982Y25992D02*
X51456Y25992D01*
X51456Y25791D02*
X46889Y25791D01*
X46733Y25589D02*
X51456Y25589D01*
X51456Y25387D02*
X46918Y25387D01*
X47001Y25185D02*
X51456Y25185D01*
X51456Y24984D02*
X47024Y24984D01*
X47007Y24782D02*
X51456Y24782D01*
X51456Y24580D02*
X46924Y24580D01*
X46747Y24379D02*
X49579Y24379D01*
X49473Y24177D02*
X46180Y24177D01*
X46381Y23975D02*
X49473Y23975D01*
X49473Y23774D02*
X46583Y23774D01*
X46785Y23572D02*
X49473Y23572D01*
X50329Y23704D02*
X51964Y23704D01*
X51964Y29104D01*
X53552Y30692D01*
X53552Y37677D01*
X52726Y36534D02*
X51992Y35799D01*
X51964Y35799D01*
X51964Y35137D01*
X52282Y34819D01*
X52282Y34082D01*
X51012Y34082D01*
X52282Y32382D02*
X52282Y31009D01*
X54187Y29739D02*
X52917Y28469D01*
X52917Y27834D01*
X54707Y27001D02*
X55253Y27001D01*
X55266Y27006D02*
X55018Y26903D01*
X54800Y26685D01*
X54682Y26401D01*
X54682Y26093D01*
X54800Y25808D01*
X55018Y25590D01*
X55303Y25472D01*
X55611Y25472D01*
X55895Y25590D01*
X56113Y25808D01*
X56231Y26093D01*
X56231Y26303D01*
X56282Y26354D01*
X56282Y28714D01*
X56363Y28633D01*
X57543Y28633D01*
X57539Y28623D01*
X57539Y28315D01*
X57626Y28106D01*
X57381Y28106D01*
X57143Y27867D01*
X57143Y26531D01*
X57194Y26480D01*
X56854Y26140D01*
X56854Y24613D01*
X56746Y24613D01*
X56508Y24375D01*
X56508Y24112D01*
X55411Y24112D01*
X55411Y24322D01*
X55172Y24561D01*
X53836Y24561D01*
X53628Y24353D01*
X53691Y24505D01*
X53691Y24813D01*
X53573Y25098D01*
X53425Y25247D01*
X53425Y25719D01*
X55266Y27560D01*
X55266Y27006D01*
X55266Y27202D02*
X54908Y27202D01*
X55110Y27404D02*
X55266Y27404D01*
X54949Y27961D02*
X52917Y25929D01*
X52917Y24659D01*
X53639Y24379D02*
X53654Y24379D01*
X53691Y24580D02*
X56713Y24580D01*
X56854Y24782D02*
X53691Y24782D01*
X53621Y24984D02*
X56854Y24984D01*
X56854Y25185D02*
X53486Y25185D01*
X53425Y25387D02*
X56854Y25387D01*
X56854Y25589D02*
X55893Y25589D01*
X56096Y25791D02*
X56854Y25791D01*
X56727Y25929D02*
X56727Y26882D01*
X57143Y26799D02*
X56282Y26799D01*
X56282Y26597D02*
X57143Y26597D01*
X57110Y26396D02*
X56282Y26396D01*
X56231Y26194D02*
X56908Y26194D01*
X56854Y25992D02*
X56190Y25992D01*
X56727Y25929D02*
X56092Y25294D01*
X56092Y24342D01*
X56511Y24379D02*
X55354Y24379D01*
X55411Y24177D02*
X56508Y24177D01*
X56409Y23604D02*
X54504Y23604D01*
X54404Y23704D01*
X51964Y23704D01*
X51456Y24379D02*
X51079Y24379D01*
X52429Y22754D02*
X49107Y22754D01*
X48332Y22765D02*
X47392Y22765D01*
X47392Y22563D02*
X48347Y22563D01*
X48431Y22362D02*
X47392Y22362D01*
X47392Y22160D02*
X48605Y22160D01*
X48356Y22967D02*
X47390Y22967D01*
X47188Y23168D02*
X48440Y23168D01*
X48627Y23370D02*
X46987Y23370D01*
X46884Y22754D02*
X46884Y20849D01*
X44662Y18627D01*
X45376Y18328D02*
X46269Y18328D01*
X46067Y18126D02*
X45257Y18126D01*
X44990Y17924D02*
X45980Y17924D01*
X45896Y17723D02*
X43365Y17723D01*
X43286Y17924D02*
X44333Y17924D01*
X44067Y18126D02*
X43164Y18126D01*
X42983Y18328D02*
X43947Y18328D01*
X43887Y18529D02*
X42673Y18529D01*
X42223Y18529D02*
X42020Y18529D01*
X42020Y18328D02*
X42223Y18328D01*
X42223Y18126D02*
X42020Y18126D01*
X42020Y17924D02*
X42223Y17924D01*
X42223Y17723D02*
X42020Y17723D01*
X42020Y17521D02*
X42223Y17521D01*
X43828Y18731D02*
X43887Y18731D01*
X44161Y19222D02*
X44166Y19235D01*
X44166Y19543D01*
X44048Y19827D01*
X43900Y19976D01*
X43900Y30799D01*
X43920Y30819D01*
X43955Y30819D01*
X44082Y30692D01*
X43915Y30525D01*
X43915Y29588D01*
X44122Y29382D01*
X44103Y29371D01*
X44037Y29305D01*
X43990Y29224D01*
X43966Y29133D01*
X43966Y28835D01*
X44873Y28835D01*
X44873Y28738D01*
X43966Y28738D01*
X43966Y28440D01*
X43990Y28349D01*
X44037Y28268D01*
X44103Y28202D01*
X44122Y28191D01*
X43915Y27985D01*
X43915Y27048D01*
X44082Y26882D01*
X43915Y26715D01*
X43915Y25778D01*
X44082Y25612D01*
X43915Y25445D01*
X43915Y24508D01*
X44082Y24342D01*
X43915Y24175D01*
X43915Y23238D01*
X44082Y23072D01*
X43915Y22905D01*
X43915Y21968D01*
X44153Y21730D01*
X44447Y21730D01*
X44322Y21605D01*
X44204Y21321D01*
X44204Y21013D01*
X44322Y20728D01*
X44540Y20510D01*
X44825Y20392D01*
X45133Y20392D01*
X45418Y20510D01*
X45636Y20728D01*
X45754Y21013D01*
X45754Y21321D01*
X45636Y21605D01*
X45511Y21730D01*
X45690Y21730D01*
X45928Y21968D01*
X45928Y22905D01*
X45761Y23072D01*
X45805Y23115D01*
X46376Y22544D01*
X46376Y21060D01*
X44718Y19401D01*
X44508Y19401D01*
X44223Y19283D01*
X44161Y19222D01*
X44166Y19336D02*
X44350Y19336D01*
X44166Y19538D02*
X44854Y19538D01*
X45056Y19740D02*
X44085Y19740D01*
X43935Y19941D02*
X45258Y19941D01*
X45460Y20143D02*
X43900Y20143D01*
X43900Y20345D02*
X45661Y20345D01*
X45863Y20546D02*
X45454Y20546D01*
X45644Y20748D02*
X46065Y20748D01*
X46266Y20950D02*
X45728Y20950D01*
X45754Y21151D02*
X46376Y21151D01*
X46376Y21353D02*
X45740Y21353D01*
X45657Y21555D02*
X46376Y21555D01*
X46376Y21757D02*
X45716Y21757D01*
X45918Y21958D02*
X46376Y21958D01*
X46376Y22160D02*
X45928Y22160D01*
X45928Y22362D02*
X46376Y22362D01*
X46357Y22563D02*
X45928Y22563D01*
X45928Y22765D02*
X46155Y22765D01*
X45953Y22967D02*
X45866Y22967D01*
X45932Y23707D02*
X44922Y23707D01*
X43915Y23774D02*
X43900Y23774D01*
X43900Y23975D02*
X43915Y23975D01*
X43900Y24177D02*
X43917Y24177D01*
X43900Y24379D02*
X44045Y24379D01*
X43915Y24580D02*
X43900Y24580D01*
X43900Y24782D02*
X43915Y24782D01*
X43900Y24984D02*
X43915Y24984D01*
X43900Y25185D02*
X43915Y25185D01*
X43900Y25387D02*
X43915Y25387D01*
X43900Y25589D02*
X44059Y25589D01*
X43915Y25791D02*
X43900Y25791D01*
X43900Y25992D02*
X43915Y25992D01*
X43900Y26194D02*
X43915Y26194D01*
X43900Y26396D02*
X43915Y26396D01*
X43900Y26597D02*
X43915Y26597D01*
X43900Y26799D02*
X43999Y26799D01*
X43963Y27001D02*
X43900Y27001D01*
X43900Y27202D02*
X43915Y27202D01*
X43900Y27404D02*
X43915Y27404D01*
X43900Y27606D02*
X43915Y27606D01*
X43900Y27808D02*
X43915Y27808D01*
X43900Y28009D02*
X43940Y28009D01*
X43900Y28211D02*
X44094Y28211D01*
X43973Y28413D02*
X43900Y28413D01*
X43900Y28614D02*
X43966Y28614D01*
X43900Y28816D02*
X44873Y28816D01*
X43966Y29018D02*
X43900Y29018D01*
X43900Y29219D02*
X43989Y29219D01*
X43900Y29421D02*
X44082Y29421D01*
X43915Y29623D02*
X43900Y29623D01*
X43900Y29825D02*
X43915Y29825D01*
X43900Y30026D02*
X43915Y30026D01*
X43900Y30228D02*
X43915Y30228D01*
X43900Y30430D02*
X43915Y30430D01*
X43900Y30631D02*
X44022Y30631D01*
X43392Y31009D02*
X43392Y19389D01*
X45484Y18731D02*
X50504Y18731D01*
X50504Y18529D02*
X50428Y18529D01*
X50504Y18933D02*
X45686Y18933D01*
X45888Y19134D02*
X50504Y19134D01*
X50504Y19336D02*
X46090Y19336D01*
X46291Y19538D02*
X50504Y19538D01*
X50504Y19740D02*
X46493Y19740D01*
X46695Y19941D02*
X50504Y19941D01*
X50334Y20143D02*
X46896Y20143D01*
X47098Y20345D02*
X50251Y20345D01*
X50237Y20546D02*
X47300Y20546D01*
X47392Y20748D02*
X50263Y20748D01*
X50346Y20950D02*
X47392Y20950D01*
X47392Y21151D02*
X49557Y21151D01*
X49473Y21353D02*
X47392Y21353D01*
X47392Y21555D02*
X49473Y21555D01*
X49473Y21757D02*
X47392Y21757D01*
X47392Y21958D02*
X49473Y21958D01*
X50329Y21804D02*
X51644Y21804D01*
X51647Y21802D01*
X52421Y21757D02*
X53598Y21757D01*
X53598Y21958D02*
X53058Y21958D01*
X53047Y21948D02*
X53286Y22186D01*
X53286Y23196D01*
X53598Y23196D01*
X53598Y22886D01*
X53729Y22754D01*
X53598Y22622D01*
X53598Y21186D01*
X53836Y20948D01*
X55172Y20948D01*
X55382Y21158D01*
X55429Y21111D01*
X55838Y21111D01*
X55838Y20956D01*
X56135Y20659D01*
X56262Y20532D01*
X63478Y20532D01*
X63775Y20829D01*
X63902Y20956D01*
X63902Y20998D01*
X64282Y20998D01*
X64521Y21236D01*
X64521Y22372D01*
X64282Y22611D01*
X63046Y22611D01*
X62808Y22372D01*
X62808Y21548D01*
X62396Y21548D01*
X62396Y22622D01*
X62264Y22754D01*
X62396Y22886D01*
X62396Y23096D01*
X62847Y23096D01*
X63046Y22898D01*
X64282Y22898D01*
X64521Y23136D01*
X64521Y24272D01*
X64282Y24511D01*
X63071Y24511D01*
X63098Y24538D01*
X63216Y24823D01*
X63216Y25131D01*
X63098Y25415D01*
X62950Y25564D01*
X62950Y25596D01*
X62955Y25590D01*
X63240Y25472D01*
X63548Y25472D01*
X63833Y25590D01*
X64051Y25808D01*
X64169Y26093D01*
X64169Y26401D01*
X64060Y26663D01*
X64062Y26663D01*
X64301Y26901D01*
X64301Y28337D01*
X64169Y28469D01*
X64301Y28601D01*
X64301Y30037D01*
X64227Y30111D01*
X64368Y30253D01*
X64486Y30538D01*
X64486Y30846D01*
X64368Y31130D01*
X64220Y31279D01*
X64220Y34535D01*
X64538Y34535D01*
X64538Y35289D01*
X64741Y35289D01*
X64741Y34535D01*
X65236Y34535D01*
X65327Y34559D01*
X65408Y34606D01*
X65454Y34652D01*
X65621Y34484D01*
X66696Y34484D01*
X66696Y33760D01*
X64791Y31855D01*
X64791Y30276D01*
X64631Y30276D01*
X64393Y30037D01*
X64393Y28601D01*
X64524Y28469D01*
X64393Y28337D01*
X64393Y26901D01*
X64631Y26663D01*
X64791Y26663D01*
X64791Y26199D01*
X64642Y26050D01*
X64524Y25766D01*
X64524Y25458D01*
X64642Y25173D01*
X64860Y24955D01*
X65145Y24837D01*
X65453Y24837D01*
X65738Y24955D01*
X65956Y25173D01*
X66074Y25458D01*
X66074Y25766D01*
X65956Y26050D01*
X65807Y26199D01*
X65807Y26663D01*
X65968Y26663D01*
X66155Y26850D01*
X66415Y26742D01*
X66723Y26742D01*
X67008Y26860D01*
X67226Y27078D01*
X67331Y27332D01*
X67331Y24870D01*
X67311Y24850D01*
X67014Y24552D01*
X67014Y23282D01*
X66994Y23262D01*
X66621Y23262D01*
X66621Y23322D01*
X66383Y23561D01*
X65146Y23561D01*
X64908Y23322D01*
X64908Y22186D01*
X65146Y21948D01*
X66383Y21948D01*
X66621Y22186D01*
X66621Y22246D01*
X67415Y22246D01*
X67712Y22544D01*
X68030Y22861D01*
X68030Y23056D01*
X68035Y23050D01*
X68320Y22932D01*
X68628Y22932D01*
X68913Y23050D01*
X69131Y23268D01*
X69249Y23553D01*
X69249Y23861D01*
X69131Y24145D01*
X68982Y24294D01*
X68982Y25659D01*
X69051Y25590D01*
X69336Y25472D01*
X69644Y25472D01*
X69929Y25590D01*
X70147Y25808D01*
X70265Y26093D01*
X70265Y26267D01*
X70471Y26473D01*
X70569Y26375D01*
X70880Y26247D01*
X70569Y26118D01*
X70190Y25739D01*
X69985Y25244D01*
X69985Y24709D01*
X70190Y24214D01*
X70569Y23835D01*
X70880Y23707D01*
X70569Y23578D01*
X70190Y23199D01*
X69985Y22704D01*
X69985Y22169D01*
X70190Y21674D01*
X70569Y21295D01*
X71064Y21090D01*
X71599Y21090D01*
X72094Y21295D01*
X72094Y13547D01*
X72079Y13398D01*
X71965Y13123D01*
X71755Y12913D01*
X71480Y12799D01*
X71332Y12785D01*
X62313Y12785D01*
X62518Y13279D01*
X62518Y13814D01*
X62313Y14309D01*
X61934Y14688D01*
X61680Y14793D01*
X61680Y15345D01*
X61382Y15642D01*
X60727Y16297D01*
X60727Y16448D01*
X60981Y16194D01*
X61279Y15896D01*
X63605Y15896D01*
X64240Y16531D01*
X64537Y16829D01*
X64537Y18992D01*
X64686Y19140D01*
X64804Y19425D01*
X64804Y19733D01*
X64686Y20018D01*
X64468Y20236D01*
X64183Y20354D01*
X63875Y20354D01*
X63590Y20236D01*
X63372Y20018D01*
X63254Y19733D01*
X63254Y19425D01*
X63372Y19140D01*
X63521Y18992D01*
X63521Y17250D01*
X63184Y16912D01*
X62496Y16912D01*
X62645Y17061D01*
X62645Y18668D01*
X62407Y18906D01*
X62315Y18906D01*
X62315Y18992D01*
X62463Y19140D01*
X62581Y19425D01*
X62581Y19733D01*
X62463Y20018D01*
X62245Y20236D01*
X61961Y20354D01*
X61653Y20354D01*
X61368Y20236D01*
X61150Y20018D01*
X61032Y19733D01*
X61032Y19425D01*
X61150Y19140D01*
X61299Y18992D01*
X61299Y18906D01*
X59810Y18906D01*
X59571Y18668D01*
X59571Y17061D01*
X59711Y16922D01*
X59711Y15876D01*
X60009Y15579D01*
X60664Y14924D01*
X60664Y14793D01*
X60409Y14688D01*
X60030Y14309D01*
X59825Y13814D01*
X59825Y13279D01*
X60030Y12785D01*
X53423Y12785D01*
X53628Y13279D01*
X53628Y13814D01*
X53423Y14309D01*
X53044Y14688D01*
X52549Y14893D01*
X52014Y14893D01*
X51520Y14688D01*
X51520Y16215D01*
X52014Y16010D01*
X52549Y16010D01*
X53044Y16215D01*
X53423Y16594D01*
X53628Y17089D01*
X53628Y17624D01*
X53423Y18119D01*
X53044Y18498D01*
X52549Y18703D01*
X52014Y18703D01*
X51520Y18498D01*
X51520Y19944D01*
X51668Y20093D01*
X51786Y20378D01*
X51786Y20686D01*
X51668Y20970D01*
X51612Y21027D01*
X51801Y21027D01*
X52085Y21145D01*
X52303Y21363D01*
X52421Y21648D01*
X52421Y21948D01*
X53047Y21948D01*
X53260Y22160D02*
X53598Y22160D01*
X53598Y22362D02*
X53286Y22362D01*
X53286Y22563D02*
X53598Y22563D01*
X53719Y22765D02*
X53286Y22765D01*
X53286Y22967D02*
X53598Y22967D01*
X53598Y23168D02*
X53286Y23168D01*
X54504Y21904D02*
X55354Y21904D01*
X55639Y21619D01*
X56346Y21619D01*
X56346Y21167D01*
X56473Y21040D01*
X63267Y21040D01*
X63394Y21167D01*
X63394Y21534D01*
X63664Y21804D01*
X63664Y21754D01*
X63896Y20950D02*
X72094Y20950D01*
X72094Y21151D02*
X71747Y21151D01*
X72094Y20748D02*
X63694Y20748D01*
X63492Y20546D02*
X72094Y20546D01*
X72094Y20345D02*
X64205Y20345D01*
X63853Y20345D02*
X61983Y20345D01*
X61630Y20345D02*
X51773Y20345D01*
X51786Y20546D02*
X56248Y20546D01*
X56046Y20748D02*
X51761Y20748D01*
X51677Y20950D02*
X53834Y20950D01*
X53632Y21151D02*
X52092Y21151D01*
X52294Y21353D02*
X53598Y21353D01*
X53598Y21555D02*
X52383Y21555D01*
X51012Y20532D02*
X51012Y14817D01*
X49742Y13547D01*
X48472Y14499D02*
X49742Y15769D01*
X49742Y17357D01*
X48520Y17924D02*
X48424Y17924D01*
X48336Y18126D02*
X48607Y18126D01*
X48809Y18328D02*
X48134Y18328D01*
X47888Y18529D02*
X49055Y18529D01*
X47202Y17357D02*
X47202Y13547D01*
X46247Y14495D02*
X45370Y14495D01*
X45436Y14294D02*
X46054Y14294D01*
X45970Y14092D02*
X45436Y14092D01*
X45379Y13890D02*
X45887Y13890D01*
X45855Y13689D02*
X45264Y13689D01*
X45009Y13487D02*
X45855Y13487D01*
X45855Y13285D02*
X43468Y13285D01*
X43468Y13487D02*
X44315Y13487D01*
X44059Y13689D02*
X43468Y13689D01*
X43436Y13890D02*
X43944Y13890D01*
X43887Y14092D02*
X43353Y14092D01*
X43269Y14294D02*
X43831Y14294D01*
X43630Y14495D02*
X43077Y14495D01*
X42862Y14697D02*
X43428Y14697D01*
X45242Y14697D02*
X46461Y14697D01*
X45936Y13083D02*
X43387Y13083D01*
X43303Y12882D02*
X46020Y12882D01*
X51520Y14697D02*
X51541Y14697D01*
X51520Y14899D02*
X60664Y14899D01*
X60487Y15100D02*
X51520Y15100D01*
X51520Y15302D02*
X60285Y15302D01*
X60084Y15504D02*
X51520Y15504D01*
X51520Y15706D02*
X59882Y15706D01*
X59711Y15907D02*
X51520Y15907D01*
X51520Y16109D02*
X51776Y16109D01*
X52787Y16109D02*
X59711Y16109D01*
X59711Y16311D02*
X53139Y16311D01*
X53341Y16512D02*
X59711Y16512D01*
X59711Y16714D02*
X53473Y16714D01*
X53556Y16916D02*
X59711Y16916D01*
X59571Y17117D02*
X53628Y17117D01*
X53628Y17319D02*
X59571Y17319D01*
X59571Y17521D02*
X53628Y17521D01*
X53587Y17723D02*
X59571Y17723D01*
X59571Y17924D02*
X53504Y17924D01*
X53416Y18126D02*
X59571Y18126D01*
X59571Y18328D02*
X53214Y18328D01*
X52968Y18529D02*
X59571Y18529D01*
X59635Y18731D02*
X51520Y18731D01*
X51520Y18529D02*
X51595Y18529D01*
X51520Y18933D02*
X61299Y18933D01*
X61156Y19134D02*
X51520Y19134D01*
X51520Y19336D02*
X61069Y19336D01*
X61032Y19538D02*
X51520Y19538D01*
X51520Y19740D02*
X61035Y19740D01*
X61118Y19941D02*
X51520Y19941D01*
X51689Y20143D02*
X61275Y20143D01*
X61807Y19579D02*
X61807Y17979D01*
X61921Y17865D01*
X62645Y17924D02*
X63521Y17924D01*
X63521Y17723D02*
X62645Y17723D01*
X62645Y17521D02*
X63521Y17521D01*
X63521Y17319D02*
X62645Y17319D01*
X62645Y17117D02*
X63389Y17117D01*
X63187Y16916D02*
X62499Y16916D01*
X63394Y16404D02*
X61489Y16404D01*
X61172Y16722D01*
X61172Y17928D01*
X61108Y17865D01*
X60295Y17865D02*
X60219Y17788D01*
X60219Y16087D01*
X61172Y15134D01*
X61172Y13547D01*
X62127Y14495D02*
X67251Y14495D01*
X67173Y14631D02*
X67589Y13910D01*
X68227Y13374D01*
X69010Y13089D01*
X69216Y13089D01*
X69843Y13089D01*
X70626Y13374D01*
X71264Y13910D01*
X71681Y14631D01*
X71681Y14631D01*
X71825Y15452D01*
X71681Y16272D01*
X71264Y16993D01*
X71264Y16993D01*
X70626Y17529D01*
X70626Y17529D01*
X69843Y17814D01*
X69010Y17814D01*
X68227Y17529D01*
X67589Y16993D01*
X67173Y16272D01*
X67028Y15452D01*
X67028Y15452D01*
X67173Y14631D01*
X67173Y14631D01*
X67161Y14697D02*
X61912Y14697D01*
X61680Y14899D02*
X67126Y14899D01*
X67090Y15100D02*
X61680Y15100D01*
X61680Y15302D02*
X67054Y15302D01*
X67037Y15504D02*
X61520Y15504D01*
X61319Y15706D02*
X67073Y15706D01*
X67108Y15907D02*
X63616Y15907D01*
X63817Y16109D02*
X67144Y16109D01*
X67195Y16311D02*
X64019Y16311D01*
X64221Y16512D02*
X67311Y16512D01*
X67428Y16714D02*
X64422Y16714D01*
X64537Y16916D02*
X67544Y16916D01*
X67589Y16993D02*
X67589Y16993D01*
X67737Y17117D02*
X64537Y17117D01*
X64537Y17319D02*
X67977Y17319D01*
X68218Y17521D02*
X64537Y17521D01*
X64537Y17723D02*
X68759Y17723D01*
X68227Y17529D02*
X68227Y17529D01*
X70094Y17723D02*
X70895Y17723D01*
X70922Y17695D02*
X71188Y17585D01*
X71476Y17585D01*
X71742Y17695D01*
X71945Y17899D01*
X72056Y18165D01*
X72056Y18453D01*
X71945Y18719D01*
X71742Y18923D01*
X71476Y19033D01*
X71188Y19033D01*
X70922Y18923D01*
X70718Y18719D01*
X70608Y18453D01*
X70608Y18165D01*
X70718Y17899D01*
X70922Y17695D01*
X70708Y17924D02*
X64537Y17924D01*
X64537Y18126D02*
X70624Y18126D01*
X70608Y18328D02*
X64537Y18328D01*
X64537Y18529D02*
X70639Y18529D01*
X70730Y18731D02*
X64537Y18731D01*
X64537Y18933D02*
X70946Y18933D01*
X71718Y18933D02*
X72094Y18933D01*
X72094Y19134D02*
X64680Y19134D01*
X64767Y19336D02*
X72094Y19336D01*
X72094Y19538D02*
X64804Y19538D01*
X64801Y19740D02*
X72094Y19740D01*
X72094Y19941D02*
X64718Y19941D01*
X64561Y20143D02*
X72094Y20143D01*
X72094Y18731D02*
X71934Y18731D01*
X72024Y18529D02*
X72094Y18529D01*
X72094Y18328D02*
X72056Y18328D01*
X72039Y18126D02*
X72094Y18126D01*
X72094Y17924D02*
X71956Y17924D01*
X72094Y17723D02*
X71769Y17723D01*
X72094Y17521D02*
X70636Y17521D01*
X70876Y17319D02*
X72094Y17319D01*
X72094Y17117D02*
X71116Y17117D01*
X71309Y16916D02*
X72094Y16916D01*
X72094Y16714D02*
X71425Y16714D01*
X71542Y16512D02*
X72094Y16512D01*
X72094Y16311D02*
X71658Y16311D01*
X71681Y16272D02*
X71681Y16272D01*
X71709Y16109D02*
X72094Y16109D01*
X72094Y15907D02*
X71745Y15907D01*
X71781Y15706D02*
X72094Y15706D01*
X72094Y15504D02*
X71816Y15504D01*
X71825Y15452D02*
X71825Y15452D01*
X71799Y15302D02*
X72094Y15302D01*
X72094Y15100D02*
X71763Y15100D01*
X71728Y14899D02*
X72094Y14899D01*
X72094Y14697D02*
X71692Y14697D01*
X71602Y14495D02*
X72094Y14495D01*
X72094Y14294D02*
X71486Y14294D01*
X71369Y14092D02*
X72094Y14092D01*
X72094Y13890D02*
X71241Y13890D01*
X71264Y13910D02*
X71264Y13910D01*
X71264Y13910D01*
X71000Y13689D02*
X72094Y13689D01*
X72088Y13487D02*
X70760Y13487D01*
X70626Y13374D02*
X70626Y13374D01*
X70381Y13285D02*
X72032Y13285D01*
X71925Y13083D02*
X62437Y13083D01*
X62518Y13285D02*
X68472Y13285D01*
X68227Y13374D02*
X68227Y13374D01*
X68093Y13487D02*
X62518Y13487D01*
X62518Y13689D02*
X67853Y13689D01*
X67613Y13890D02*
X62486Y13890D01*
X62403Y14092D02*
X67484Y14092D01*
X67589Y13910D02*
X67589Y13910D01*
X67368Y14294D02*
X62319Y14294D01*
X60431Y14697D02*
X53022Y14697D01*
X53237Y14495D02*
X60217Y14495D01*
X60024Y14294D02*
X53429Y14294D01*
X53513Y14092D02*
X59940Y14092D01*
X59857Y13890D02*
X53596Y13890D01*
X53628Y13689D02*
X59825Y13689D01*
X59825Y13487D02*
X53628Y13487D01*
X53628Y13285D02*
X59825Y13285D01*
X59906Y13083D02*
X53547Y13083D01*
X53463Y12882D02*
X59990Y12882D01*
X62353Y12882D02*
X71679Y12882D01*
X64029Y17039D02*
X64029Y19579D01*
X63497Y20143D02*
X62338Y20143D01*
X62495Y19941D02*
X63341Y19941D01*
X63257Y19740D02*
X62579Y19740D01*
X62581Y19538D02*
X63254Y19538D01*
X63291Y19336D02*
X62545Y19336D01*
X62458Y19134D02*
X63378Y19134D01*
X63521Y18933D02*
X62315Y18933D01*
X62582Y18731D02*
X63521Y18731D01*
X63521Y18529D02*
X62645Y18529D01*
X62645Y18328D02*
X63521Y18328D01*
X63521Y18126D02*
X62645Y18126D01*
X64029Y17039D02*
X63394Y16404D01*
X61268Y15907D02*
X61117Y15907D01*
X61066Y16109D02*
X60915Y16109D01*
X60864Y16311D02*
X60727Y16311D01*
X55844Y20950D02*
X55174Y20950D01*
X55376Y21151D02*
X55388Y21151D01*
X56346Y21619D02*
X57644Y21619D01*
X57679Y21584D01*
X57654Y22119D02*
X57044Y22119D01*
X56790Y22373D01*
X57036Y22619D01*
X57654Y22619D01*
X58261Y22563D02*
X58368Y22563D01*
X58314Y22437D02*
X58314Y22881D01*
X59140Y23707D01*
X59164Y23707D01*
X58949Y23922D01*
X58949Y24977D01*
X59267Y25294D01*
X60219Y25294D01*
X60664Y25387D02*
X57870Y25387D01*
X57870Y25185D02*
X60664Y25185D01*
X60664Y24984D02*
X57870Y24984D01*
X57870Y24782D02*
X60664Y24782D01*
X60664Y24604D02*
X60500Y24672D01*
X60192Y24672D01*
X59907Y24554D01*
X59877Y24523D01*
X59851Y24538D01*
X59761Y24562D01*
X59266Y24562D01*
X59266Y23808D01*
X59571Y23808D01*
X59571Y23743D01*
X59629Y23605D01*
X59266Y23605D01*
X59266Y23808D01*
X59063Y23808D01*
X59063Y24562D01*
X58567Y24562D01*
X58477Y24538D01*
X58396Y24491D01*
X58350Y24445D01*
X58182Y24613D01*
X57870Y24613D01*
X57870Y25719D01*
X57890Y25739D01*
X60644Y25739D01*
X60664Y25719D01*
X60664Y24604D01*
X59971Y24580D02*
X58215Y24580D01*
X59063Y24379D02*
X59266Y24379D01*
X59266Y24177D02*
X59063Y24177D01*
X59063Y23975D02*
X59266Y23975D01*
X59266Y23774D02*
X59571Y23774D01*
X59584Y23707D02*
X59164Y23707D01*
X58387Y22931D02*
X58368Y22912D01*
X58368Y22326D01*
X58419Y22275D01*
X58419Y22119D01*
X58419Y21963D01*
X58368Y21912D01*
X58368Y21548D01*
X58251Y21548D01*
X58251Y21816D01*
X58261Y21826D01*
X58261Y22878D01*
X58350Y22968D01*
X58387Y22931D01*
X58351Y22967D02*
X58349Y22967D01*
X58368Y22765D02*
X58261Y22765D01*
X58314Y22437D02*
X58632Y22119D01*
X58974Y22119D01*
X58574Y22119D02*
X58574Y22119D01*
X58419Y22119D01*
X58574Y22119D01*
X58574Y22119D01*
X58419Y22160D02*
X58261Y22160D01*
X58261Y22362D02*
X58368Y22362D01*
X58414Y21958D02*
X58261Y21958D01*
X58251Y21757D02*
X58368Y21757D01*
X58368Y21555D02*
X58251Y21555D01*
X58974Y21619D02*
X59973Y21619D01*
X60187Y21833D01*
X60219Y21802D01*
X60187Y21833D02*
X60258Y21904D01*
X61489Y21904D01*
X62396Y21958D02*
X62808Y21958D01*
X62808Y21757D02*
X62396Y21757D01*
X62396Y21555D02*
X62808Y21555D01*
X62808Y22160D02*
X62396Y22160D01*
X62396Y22362D02*
X62808Y22362D01*
X62999Y22563D02*
X62396Y22563D01*
X62275Y22765D02*
X64908Y22765D01*
X64908Y22563D02*
X64330Y22563D01*
X64521Y22362D02*
X64908Y22362D01*
X64934Y22160D02*
X64521Y22160D01*
X64521Y21958D02*
X65135Y21958D01*
X64521Y21757D02*
X70156Y21757D01*
X70073Y21958D02*
X66393Y21958D01*
X66595Y22160D02*
X69989Y22160D01*
X69985Y22362D02*
X67530Y22362D01*
X67732Y22563D02*
X69985Y22563D01*
X70011Y22765D02*
X67933Y22765D01*
X68030Y22967D02*
X68236Y22967D01*
X68712Y22967D02*
X70094Y22967D01*
X70178Y23168D02*
X69032Y23168D01*
X69173Y23370D02*
X70361Y23370D01*
X70563Y23572D02*
X69249Y23572D01*
X69249Y23774D02*
X70718Y23774D01*
X70429Y23975D02*
X69201Y23975D01*
X69099Y24177D02*
X70228Y24177D01*
X70122Y24379D02*
X68982Y24379D01*
X68982Y24580D02*
X70039Y24580D01*
X69985Y24782D02*
X68982Y24782D01*
X68982Y24984D02*
X69985Y24984D01*
X69985Y25185D02*
X68982Y25185D01*
X68982Y25387D02*
X70045Y25387D01*
X70128Y25589D02*
X69926Y25589D01*
X70130Y25791D02*
X70242Y25791D01*
X70223Y25992D02*
X70443Y25992D01*
X70265Y26194D02*
X70753Y26194D01*
X70549Y26396D02*
X70394Y26396D01*
X69692Y27202D02*
X68982Y27202D01*
X68982Y27001D02*
X69286Y27001D01*
X69336Y27021D02*
X69051Y26903D01*
X68982Y26834D01*
X68982Y29211D01*
X69617Y29846D01*
X69617Y37407D01*
X69766Y37555D01*
X69884Y37840D01*
X69884Y38148D01*
X69766Y38433D01*
X69548Y38651D01*
X69296Y38755D01*
X71940Y38755D01*
X72094Y38909D01*
X72094Y36184D01*
X72011Y36245D01*
X71829Y36337D01*
X71635Y36400D01*
X71434Y36432D01*
X71433Y36432D01*
X71433Y35238D01*
X71230Y35238D01*
X71230Y35035D01*
X70036Y35035D01*
X70036Y35035D01*
X70068Y34833D01*
X70131Y34639D01*
X70224Y34458D01*
X70344Y34293D01*
X70488Y34149D01*
X70653Y34029D01*
X70834Y33936D01*
X71028Y33873D01*
X71069Y33867D01*
X71028Y33860D01*
X70834Y33797D01*
X70653Y33705D01*
X70488Y33585D01*
X70344Y33441D01*
X70224Y33276D01*
X70131Y33094D01*
X70068Y32900D01*
X70036Y32699D01*
X70036Y32698D01*
X71230Y32698D01*
X71230Y32495D01*
X70036Y32495D01*
X70036Y32495D01*
X70068Y32293D01*
X70131Y32099D01*
X70224Y31918D01*
X70344Y31753D01*
X70488Y31609D01*
X70653Y31489D01*
X70834Y31396D01*
X70954Y31357D01*
X70569Y31198D01*
X70190Y30819D01*
X69985Y30324D01*
X69985Y29789D01*
X70190Y29294D01*
X70569Y28915D01*
X70880Y28787D01*
X70569Y28658D01*
X70190Y28279D01*
X69985Y27784D01*
X69985Y27496D01*
X69511Y27021D01*
X69336Y27021D01*
X68982Y27404D02*
X69893Y27404D01*
X69985Y27606D02*
X68982Y27606D01*
X68982Y27808D02*
X69995Y27808D01*
X70079Y28009D02*
X68982Y28009D01*
X68982Y28211D02*
X70162Y28211D01*
X70324Y28413D02*
X68982Y28413D01*
X68982Y28614D02*
X70526Y28614D01*
X70809Y28816D02*
X68982Y28816D01*
X68982Y29018D02*
X70467Y29018D01*
X70265Y29219D02*
X68990Y29219D01*
X69192Y29421D02*
X70138Y29421D01*
X70054Y29623D02*
X69394Y29623D01*
X69595Y29825D02*
X69985Y29825D01*
X69985Y30026D02*
X69617Y30026D01*
X69617Y30228D02*
X69985Y30228D01*
X70029Y30430D02*
X69617Y30430D01*
X69617Y30631D02*
X70113Y30631D01*
X70204Y30833D02*
X69617Y30833D01*
X69617Y31035D02*
X70406Y31035D01*
X70662Y31236D02*
X69617Y31236D01*
X69617Y31438D02*
X70752Y31438D01*
X70456Y31640D02*
X69617Y31640D01*
X69617Y31842D02*
X70279Y31842D01*
X70160Y32043D02*
X69617Y32043D01*
X69617Y32245D02*
X70084Y32245D01*
X70044Y32447D02*
X69617Y32447D01*
X69617Y32648D02*
X71230Y32648D01*
X71230Y32698D02*
X71230Y35035D01*
X71433Y35035D01*
X71433Y33841D01*
X71433Y32698D01*
X71230Y32698D01*
X71332Y32597D02*
X71332Y35137D01*
X71332Y38312D01*
X72094Y38296D02*
X69823Y38296D01*
X69884Y38094D02*
X72094Y38094D01*
X72094Y37893D02*
X69884Y37893D01*
X69822Y37691D02*
X72094Y37691D01*
X72094Y37489D02*
X69700Y37489D01*
X69617Y37287D02*
X72094Y37287D01*
X72094Y37086D02*
X69617Y37086D01*
X69617Y36884D02*
X72094Y36884D01*
X72094Y36682D02*
X69617Y36682D01*
X69617Y36481D02*
X72094Y36481D01*
X72094Y36279D02*
X71943Y36279D01*
X71433Y36279D02*
X71230Y36279D01*
X71230Y36432D02*
X71230Y35238D01*
X70036Y35238D01*
X70036Y35239D01*
X70068Y35440D01*
X70131Y35634D01*
X70224Y35816D01*
X70344Y35981D01*
X70488Y36125D01*
X70653Y36245D01*
X70834Y36337D01*
X71028Y36400D01*
X71230Y36432D01*
X71230Y36432D01*
X71230Y36077D02*
X71433Y36077D01*
X71433Y35876D02*
X71230Y35876D01*
X71230Y35674D02*
X71433Y35674D01*
X71433Y35472D02*
X71230Y35472D01*
X71230Y35270D02*
X71433Y35270D01*
X71230Y35069D02*
X69617Y35069D01*
X69617Y35270D02*
X70041Y35270D01*
X70079Y35472D02*
X69617Y35472D01*
X69617Y35674D02*
X70152Y35674D01*
X70267Y35876D02*
X69617Y35876D01*
X69617Y36077D02*
X70440Y36077D01*
X70720Y36279D02*
X69617Y36279D01*
X69617Y34867D02*
X70063Y34867D01*
X70123Y34665D02*
X69617Y34665D01*
X69617Y34464D02*
X70221Y34464D01*
X70374Y34262D02*
X69617Y34262D01*
X69617Y34060D02*
X70609Y34060D01*
X70587Y33657D02*
X69617Y33657D01*
X69617Y33859D02*
X71023Y33859D01*
X71230Y33859D02*
X71433Y33859D01*
X71433Y34060D02*
X71230Y34060D01*
X71230Y34262D02*
X71433Y34262D01*
X71433Y34464D02*
X71230Y34464D01*
X71230Y34665D02*
X71433Y34665D01*
X71433Y34867D02*
X71230Y34867D01*
X71230Y33657D02*
X71433Y33657D01*
X71433Y33455D02*
X71230Y33455D01*
X71230Y33253D02*
X71433Y33253D01*
X71433Y33052D02*
X71230Y33052D01*
X71230Y32850D02*
X71433Y32850D01*
X70358Y33455D02*
X69617Y33455D01*
X69617Y33253D02*
X70212Y33253D01*
X70117Y33052D02*
X69617Y33052D01*
X69617Y32850D02*
X70060Y32850D01*
X67204Y33549D02*
X67204Y39582D01*
X67839Y40217D01*
X68554Y40515D02*
X68865Y40515D01*
X68865Y40716D02*
X68435Y40716D01*
X68496Y40655D02*
X68278Y40873D01*
X67993Y40991D01*
X67685Y40991D01*
X67400Y40873D01*
X67268Y40741D01*
X67268Y41380D01*
X66970Y41677D01*
X66653Y41995D01*
X65530Y41995D01*
X65530Y42405D01*
X66440Y42405D01*
X66665Y42631D01*
X66665Y42291D01*
X66796Y41977D01*
X67037Y41736D01*
X67351Y41605D01*
X67692Y41605D01*
X68007Y41736D01*
X68248Y41977D01*
X68378Y42291D01*
X68378Y42632D01*
X68248Y42947D01*
X68007Y43188D01*
X67692Y43318D01*
X67351Y43318D01*
X67037Y43188D01*
X66796Y42947D01*
X66678Y42663D01*
X66678Y45880D01*
X66620Y45938D01*
X66627Y45965D01*
X66627Y46238D01*
X65045Y46238D01*
X65045Y46285D01*
X64998Y46285D01*
X64998Y46238D01*
X63416Y46238D01*
X63416Y45965D01*
X63423Y45938D01*
X63365Y45880D01*
X63365Y45424D01*
X63359Y45424D01*
X63359Y46917D01*
X63121Y47156D01*
X61684Y47156D01*
X61553Y47024D01*
X61421Y47156D01*
X59984Y47156D01*
X59746Y46917D01*
X59746Y46757D01*
X59668Y46757D01*
X58632Y47793D01*
X58334Y48091D01*
X57405Y48091D01*
X57151Y47837D01*
X56854Y47539D01*
X56854Y47367D01*
X56681Y47367D01*
X56681Y48657D01*
X56513Y48825D01*
X56559Y48871D01*
X56606Y48952D01*
X56630Y49042D01*
X56630Y49538D01*
X55876Y49538D01*
X55876Y49741D01*
X55673Y49741D01*
X55673Y50545D01*
X55227Y50545D01*
X55137Y50521D01*
X55056Y50474D01*
X54990Y50408D01*
X54980Y50392D01*
X54971Y50408D01*
X54905Y50474D01*
X54824Y50521D01*
X54733Y50545D01*
X54288Y50545D01*
X54288Y49741D01*
X54085Y49741D01*
X54085Y50545D01*
X53640Y50545D01*
X53549Y50521D01*
X53468Y50474D01*
X53402Y50408D01*
X53355Y50326D01*
X53331Y50236D01*
X53331Y49741D01*
X54085Y49741D01*
X54085Y49538D01*
X53331Y49538D01*
X53331Y49042D01*
X53355Y48952D01*
X53402Y48871D01*
X53448Y48825D01*
X53280Y48657D01*
X53280Y48525D01*
X53071Y48611D01*
X52763Y48611D01*
X52478Y48493D01*
X52329Y48345D01*
X51980Y48345D01*
X51986Y48350D01*
X52104Y48635D01*
X52104Y48943D01*
X51986Y49228D01*
X51837Y49377D01*
X51837Y54949D01*
X54061Y54949D01*
X53968Y54855D01*
X53968Y54686D01*
X53659Y54377D01*
X53361Y54080D01*
X53361Y54012D01*
X53149Y53800D01*
X53031Y53515D01*
X53031Y53207D01*
X53149Y52922D01*
X53367Y52704D01*
X53652Y52586D01*
X53960Y52586D01*
X54244Y52704D01*
X54462Y52922D01*
X54580Y53207D01*
X54580Y53280D01*
X55642Y53280D01*
X55774Y53412D01*
X55906Y53280D01*
X57342Y53280D01*
X57581Y53518D01*
X57581Y53679D01*
X57913Y53679D01*
X58162Y53430D01*
X58162Y53002D01*
X58400Y52764D01*
X60260Y52764D01*
X60499Y53002D01*
X60499Y54101D01*
X60260Y54339D01*
X58690Y54339D01*
X58632Y54397D01*
X58632Y55159D01*
X58334Y55457D01*
X57826Y55965D01*
X51088Y55965D01*
X51088Y56014D01*
X50340Y56763D01*
X51037Y57460D01*
X51037Y57895D01*
X49843Y57895D01*
X49843Y58098D01*
X51037Y58098D01*
X51037Y58533D01*
X50812Y58759D01*
X71332Y58759D01*
X71480Y58744D01*
X71755Y58630D01*
X71965Y58420D01*
X72079Y58145D01*
X72094Y57997D01*
X72094Y50414D01*
X71940Y50568D01*
X69103Y50568D01*
X68865Y50330D01*
X68865Y47993D01*
X69103Y47755D01*
X71940Y47755D01*
X72094Y47909D01*
X72094Y41414D01*
X71940Y41568D01*
X69103Y41568D01*
X68865Y41330D01*
X68865Y38993D01*
X69090Y38769D01*
X68955Y38769D01*
X68931Y38759D01*
X68931Y38783D01*
X68813Y39068D01*
X68595Y39286D01*
X68311Y39404D01*
X68003Y39404D01*
X67718Y39286D01*
X67712Y39280D01*
X67712Y39371D01*
X67783Y39442D01*
X67993Y39442D01*
X68278Y39560D01*
X68496Y39778D01*
X68614Y40063D01*
X68614Y40371D01*
X68496Y40655D01*
X68614Y40313D02*
X68865Y40313D01*
X68865Y40111D02*
X68614Y40111D01*
X68550Y39910D02*
X68865Y39910D01*
X68865Y39708D02*
X68426Y39708D01*
X68148Y39506D02*
X68865Y39506D01*
X68865Y39304D02*
X68551Y39304D01*
X68779Y39103D02*
X68865Y39103D01*
X68883Y38901D02*
X68958Y38901D01*
X69431Y38699D02*
X72094Y38699D01*
X72094Y38498D02*
X69701Y38498D01*
X69109Y37994D02*
X69109Y30057D01*
X68474Y29422D01*
X68474Y23707D01*
X67839Y24659D02*
X67522Y24342D01*
X67522Y23072D01*
X67204Y22754D01*
X65764Y22754D01*
X64908Y22967D02*
X64351Y22967D01*
X64521Y23168D02*
X64908Y23168D01*
X64955Y23370D02*
X64521Y23370D01*
X64521Y23572D02*
X67014Y23572D01*
X67014Y23774D02*
X64521Y23774D01*
X64521Y23975D02*
X67014Y23975D01*
X67014Y24177D02*
X64521Y24177D01*
X64414Y24379D02*
X67014Y24379D01*
X67042Y24580D02*
X63116Y24580D01*
X63200Y24782D02*
X67244Y24782D01*
X67331Y24984D02*
X65767Y24984D01*
X65961Y25185D02*
X67331Y25185D01*
X67331Y25387D02*
X66045Y25387D01*
X66074Y25589D02*
X67331Y25589D01*
X67331Y25791D02*
X66064Y25791D01*
X65980Y25992D02*
X67331Y25992D01*
X67331Y26194D02*
X65812Y26194D01*
X65807Y26396D02*
X67331Y26396D01*
X67331Y26597D02*
X65807Y26597D01*
X66104Y26799D02*
X66277Y26799D01*
X66861Y26799D02*
X67331Y26799D01*
X67331Y27001D02*
X67149Y27001D01*
X67278Y27202D02*
X67331Y27202D01*
X66569Y27517D02*
X65299Y27517D01*
X65299Y27619D01*
X65299Y27517D02*
X65299Y25612D01*
X64524Y25589D02*
X63830Y25589D01*
X64034Y25791D02*
X64535Y25791D01*
X64618Y25992D02*
X64127Y25992D01*
X64169Y26194D02*
X64786Y26194D01*
X64791Y26396D02*
X64169Y26396D01*
X64087Y26597D02*
X64791Y26597D01*
X64495Y26799D02*
X64199Y26799D01*
X64301Y27001D02*
X64393Y27001D01*
X64393Y27202D02*
X64301Y27202D01*
X64301Y27404D02*
X64393Y27404D01*
X64393Y27606D02*
X64301Y27606D01*
X64301Y27808D02*
X64393Y27808D01*
X64393Y28009D02*
X64301Y28009D01*
X64301Y28211D02*
X64393Y28211D01*
X64468Y28413D02*
X64225Y28413D01*
X64301Y28614D02*
X64393Y28614D01*
X64393Y28816D02*
X64301Y28816D01*
X64301Y29018D02*
X64393Y29018D01*
X64393Y29219D02*
X64301Y29219D01*
X64301Y29421D02*
X64393Y29421D01*
X64393Y29623D02*
X64301Y29623D01*
X64301Y29825D02*
X64393Y29825D01*
X64393Y30026D02*
X64301Y30026D01*
X64344Y30228D02*
X64583Y30228D01*
X64442Y30430D02*
X64791Y30430D01*
X64791Y30631D02*
X64486Y30631D01*
X64486Y30833D02*
X64791Y30833D01*
X64791Y31035D02*
X64408Y31035D01*
X64262Y31236D02*
X64791Y31236D01*
X64791Y31438D02*
X64220Y31438D01*
X64220Y31640D02*
X64791Y31640D01*
X64791Y31842D02*
X64220Y31842D01*
X64220Y32043D02*
X64980Y32043D01*
X65182Y32245D02*
X64220Y32245D01*
X64220Y32447D02*
X65383Y32447D01*
X65585Y32648D02*
X64220Y32648D01*
X64220Y32850D02*
X65787Y32850D01*
X65988Y33052D02*
X64220Y33052D01*
X64220Y33253D02*
X66190Y33253D01*
X66392Y33455D02*
X64220Y33455D01*
X64220Y33657D02*
X66593Y33657D01*
X66696Y33859D02*
X64220Y33859D01*
X64220Y34060D02*
X66696Y34060D01*
X66696Y34262D02*
X64220Y34262D01*
X64220Y34464D02*
X66696Y34464D01*
X66340Y35391D02*
X66340Y37589D01*
X66252Y37677D01*
X65747Y37677D01*
X65429Y37359D01*
X65490Y37299D01*
X66252Y37677D02*
X66760Y38185D01*
X66760Y41169D01*
X66442Y41487D01*
X65299Y41487D01*
X65022Y41764D01*
X65022Y43062D01*
X65022Y43862D02*
X63293Y43862D01*
X63204Y43773D01*
X62530Y43773D01*
X62403Y43646D01*
X62403Y42122D01*
X63359Y42128D02*
X64514Y42128D01*
X64514Y41927D02*
X63359Y41927D01*
X63359Y41725D02*
X64514Y41725D01*
X64514Y41568D02*
X63603Y41568D01*
X63365Y41330D01*
X63365Y38993D01*
X63603Y38755D01*
X66252Y38755D01*
X66252Y38511D01*
X66098Y38666D01*
X64761Y38666D01*
X64523Y38428D01*
X64523Y36291D01*
X64741Y36072D01*
X64741Y35492D01*
X64538Y35492D01*
X64538Y36246D01*
X64220Y36246D01*
X64220Y36772D01*
X64368Y36920D01*
X64486Y37205D01*
X64486Y37513D01*
X64368Y37798D01*
X64150Y38016D01*
X63866Y38134D01*
X63558Y38134D01*
X63536Y38125D01*
X63536Y38428D01*
X63297Y38666D01*
X62315Y38666D01*
X62315Y39629D01*
X62463Y39778D01*
X62581Y40063D01*
X62581Y40371D01*
X62463Y40655D01*
X62245Y40873D01*
X61961Y40991D01*
X61653Y40991D01*
X61368Y40873D01*
X61150Y40655D01*
X61032Y40371D01*
X61032Y40063D01*
X61150Y39778D01*
X61299Y39629D01*
X61299Y34395D01*
X61138Y34234D01*
X61138Y35053D01*
X60900Y35291D01*
X59363Y35291D01*
X59125Y35053D01*
X59125Y33809D01*
X58185Y32868D01*
X57063Y32868D01*
X56825Y32630D01*
X56825Y31784D01*
X56573Y31784D01*
X56288Y31666D01*
X56282Y31660D01*
X56282Y32327D01*
X56431Y32475D01*
X56549Y32760D01*
X56549Y33068D01*
X56545Y33078D01*
X57900Y33078D01*
X58138Y33316D01*
X58138Y35053D01*
X57900Y35291D01*
X56974Y35291D01*
X56937Y35327D01*
X56282Y35982D01*
X56282Y37604D01*
X56363Y37523D01*
X56536Y37523D01*
X56536Y36831D01*
X56825Y36542D01*
X56825Y35738D01*
X57063Y35500D01*
X58500Y35500D01*
X58632Y35632D01*
X58763Y35500D01*
X60200Y35500D01*
X60438Y35738D01*
X60438Y37075D01*
X60200Y37313D01*
X59396Y37313D01*
X59140Y37570D01*
X59140Y41911D01*
X59437Y41614D01*
X59746Y41614D01*
X59746Y41453D01*
X59984Y41215D01*
X61421Y41215D01*
X61553Y41347D01*
X61684Y41215D01*
X63121Y41215D01*
X63359Y41453D01*
X63359Y42790D01*
X63265Y42884D01*
X63359Y42977D01*
X63359Y43265D01*
X63365Y43265D01*
X63365Y42643D01*
X63603Y42405D01*
X64514Y42405D01*
X64514Y41568D01*
X64514Y42330D02*
X63359Y42330D01*
X63359Y42532D02*
X63477Y42532D01*
X63365Y42733D02*
X63359Y42733D01*
X63365Y42935D02*
X63317Y42935D01*
X63359Y43137D02*
X63365Y43137D01*
X63585Y44662D02*
X65022Y44662D01*
X66678Y44750D02*
X72094Y44750D01*
X72094Y44549D02*
X66678Y44549D01*
X66678Y44347D02*
X72094Y44347D01*
X72094Y44145D02*
X66678Y44145D01*
X66678Y43944D02*
X72094Y43944D01*
X72094Y43742D02*
X66678Y43742D01*
X66678Y43540D02*
X72094Y43540D01*
X72094Y43338D02*
X66678Y43338D01*
X66678Y43137D02*
X66986Y43137D01*
X66791Y42935D02*
X66678Y42935D01*
X66678Y42733D02*
X66707Y42733D01*
X66665Y42532D02*
X66566Y42532D01*
X66665Y42330D02*
X65530Y42330D01*
X65530Y42128D02*
X66733Y42128D01*
X66721Y41927D02*
X66846Y41927D01*
X66922Y41725D02*
X67063Y41725D01*
X67124Y41523D02*
X69058Y41523D01*
X68865Y41321D02*
X67268Y41321D01*
X67268Y41120D02*
X68865Y41120D01*
X68865Y40918D02*
X68170Y40918D01*
X67508Y40918D02*
X67268Y40918D01*
X67981Y41725D02*
X72094Y41725D01*
X72094Y41927D02*
X68198Y41927D01*
X68311Y42128D02*
X72094Y42128D01*
X72094Y42330D02*
X68378Y42330D01*
X68378Y42532D02*
X72094Y42532D01*
X72094Y42733D02*
X68336Y42733D01*
X68253Y42935D02*
X72094Y42935D01*
X72094Y43137D02*
X68058Y43137D01*
X66678Y44952D02*
X72094Y44952D01*
X72094Y45154D02*
X66678Y45154D01*
X66678Y45355D02*
X72094Y45355D01*
X72094Y45557D02*
X66678Y45557D01*
X66678Y45759D02*
X72094Y45759D01*
X72094Y45961D02*
X66626Y45961D01*
X66627Y46162D02*
X67010Y46162D01*
X67037Y46136D02*
X67351Y46005D01*
X67692Y46005D01*
X68007Y46136D01*
X68248Y46377D01*
X68378Y46691D01*
X68378Y47032D01*
X68248Y47347D01*
X68007Y47588D01*
X67692Y47718D01*
X67351Y47718D01*
X67037Y47588D01*
X66796Y47347D01*
X66665Y47032D01*
X66665Y46691D01*
X66796Y46377D01*
X67037Y46136D01*
X66808Y46364D02*
X66627Y46364D01*
X66627Y46285D02*
X66627Y46558D01*
X66603Y46649D01*
X66556Y46730D01*
X66490Y46796D01*
X66409Y46843D01*
X66318Y46867D01*
X65045Y46867D01*
X65045Y46285D01*
X66627Y46285D01*
X66625Y46566D02*
X66717Y46566D01*
X66665Y46767D02*
X66519Y46767D01*
X66665Y46969D02*
X63307Y46969D01*
X63359Y46767D02*
X63524Y46767D01*
X63553Y46796D02*
X63487Y46730D01*
X63440Y46649D01*
X63416Y46558D01*
X63416Y46285D01*
X64998Y46285D01*
X64998Y46867D01*
X63725Y46867D01*
X63634Y46843D01*
X63553Y46796D01*
X63418Y46566D02*
X63359Y46566D01*
X63359Y46364D02*
X63416Y46364D01*
X63416Y46162D02*
X63359Y46162D01*
X63359Y45961D02*
X63417Y45961D01*
X63365Y45759D02*
X63359Y45759D01*
X63359Y45557D02*
X63365Y45557D01*
X63331Y44916D02*
X62403Y44916D01*
X62403Y46249D01*
X60703Y46249D02*
X59457Y46249D01*
X58124Y47583D01*
X57616Y47583D01*
X57362Y47329D01*
X57362Y46389D01*
X56727Y46389D02*
X56727Y44344D01*
X56092Y43709D01*
X55568Y43137D02*
X54333Y43137D01*
X54534Y43338D02*
X55407Y43338D01*
X55435Y43270D02*
X55653Y43052D01*
X55677Y43042D01*
X55653Y43032D01*
X55435Y42814D01*
X55317Y42530D01*
X55317Y42222D01*
X55406Y42007D01*
X55098Y42007D01*
X55047Y41957D01*
X54822Y41957D01*
X54822Y41029D01*
X54822Y42439D01*
X54822Y41957D02*
X54596Y41957D01*
X54545Y42007D01*
X53425Y42007D01*
X53425Y42229D01*
X55965Y44769D01*
X55965Y45411D01*
X56219Y45411D01*
X56219Y44555D01*
X56148Y44484D01*
X55938Y44484D01*
X55653Y44366D01*
X55435Y44148D01*
X55317Y43863D01*
X55317Y43555D01*
X55435Y43270D01*
X55323Y43540D02*
X54736Y43540D01*
X54938Y43742D02*
X55317Y43742D01*
X55350Y43944D02*
X55139Y43944D01*
X55341Y44145D02*
X55434Y44145D01*
X55543Y44347D02*
X55634Y44347D01*
X55745Y44549D02*
X56213Y44549D01*
X56219Y44750D02*
X55946Y44750D01*
X55965Y44952D02*
X56219Y44952D01*
X56219Y45154D02*
X55965Y45154D01*
X55965Y45355D02*
X56219Y45355D01*
X56092Y46389D02*
X56092Y47622D01*
X55774Y47939D01*
X55457Y47622D01*
X55457Y46389D01*
X54949Y45411D02*
X54463Y45411D01*
X54412Y45462D01*
X54187Y45462D01*
X54187Y46389D01*
X54187Y44344D01*
X52599Y42757D01*
X51329Y42757D01*
X51329Y44027D01*
X51493Y44204D02*
X51734Y44204D01*
X51697Y44117D01*
X51697Y43809D01*
X51815Y43524D01*
X52033Y43306D01*
X52318Y43188D01*
X52626Y43188D01*
X52911Y43306D01*
X53129Y43524D01*
X53247Y43809D01*
X53247Y44019D01*
X54060Y44832D01*
X54060Y45462D01*
X54187Y45462D01*
X54187Y46389D01*
X54187Y46389D01*
X54187Y46364D02*
X54187Y46364D01*
X54187Y46162D02*
X54187Y46162D01*
X54187Y45961D02*
X54187Y45961D01*
X54187Y45759D02*
X54187Y45759D01*
X54187Y45557D02*
X54187Y45557D01*
X54060Y45355D02*
X54949Y45355D01*
X54949Y45411D02*
X54949Y45190D01*
X52706Y42947D01*
X52409Y42650D01*
X52409Y42007D01*
X51288Y42007D01*
X51050Y41769D01*
X51050Y40290D01*
X51139Y40201D01*
X51139Y39475D01*
X51119Y39455D01*
X50914Y39250D01*
X50885Y39280D01*
X50885Y44709D01*
X50910Y44734D01*
X50990Y44540D01*
X51208Y44322D01*
X51493Y44204D01*
X51709Y44145D02*
X50885Y44145D01*
X50885Y43944D02*
X51697Y43944D01*
X51725Y43742D02*
X50885Y43742D01*
X50885Y43540D02*
X51809Y43540D01*
X52001Y43338D02*
X50885Y43338D01*
X50885Y43137D02*
X52896Y43137D01*
X52943Y43338D02*
X53098Y43338D01*
X53135Y43540D02*
X53299Y43540D01*
X53219Y43742D02*
X53501Y43742D01*
X53703Y43944D02*
X53247Y43944D01*
X53373Y44145D02*
X53904Y44145D01*
X54106Y44347D02*
X53574Y44347D01*
X53776Y44549D02*
X54308Y44549D01*
X54509Y44750D02*
X53978Y44750D01*
X54060Y44952D02*
X54711Y44952D01*
X54913Y45154D02*
X54060Y45154D01*
X53552Y45043D02*
X53552Y46389D01*
X53552Y45043D02*
X52472Y43963D01*
X52694Y42935D02*
X50885Y42935D01*
X50885Y42733D02*
X52492Y42733D01*
X52409Y42532D02*
X50885Y42532D01*
X50885Y42330D02*
X52409Y42330D01*
X52409Y42128D02*
X50885Y42128D01*
X50885Y41927D02*
X51207Y41927D01*
X51050Y41725D02*
X50885Y41725D01*
X50885Y41523D02*
X51050Y41523D01*
X51050Y41321D02*
X50885Y41321D01*
X50885Y41120D02*
X51050Y41120D01*
X51050Y40918D02*
X50885Y40918D01*
X50885Y40716D02*
X51050Y40716D01*
X51050Y40515D02*
X50885Y40515D01*
X50885Y40313D02*
X51050Y40313D01*
X51139Y40111D02*
X50885Y40111D01*
X50885Y39910D02*
X51139Y39910D01*
X51139Y39708D02*
X50885Y39708D01*
X50885Y39506D02*
X51139Y39506D01*
X50969Y39304D02*
X50885Y39304D01*
X51329Y38947D02*
X51329Y37664D01*
X51314Y37649D01*
X51239Y37574D01*
X49742Y37574D01*
X48980Y38437D02*
X48980Y43181D01*
X49000Y43201D01*
X49297Y43499D01*
X49297Y45086D01*
X49602Y45391D01*
X49602Y45143D01*
X49720Y44858D01*
X49869Y44709D01*
X49869Y39280D01*
X49720Y39131D01*
X49602Y38847D01*
X49602Y38539D01*
X49605Y38531D01*
X49073Y38531D01*
X48980Y38437D01*
X48980Y38498D02*
X49040Y38498D01*
X48980Y38699D02*
X49602Y38699D01*
X49624Y38901D02*
X48980Y38901D01*
X48980Y39103D02*
X49708Y39103D01*
X49869Y39304D02*
X48980Y39304D01*
X48980Y39506D02*
X49869Y39506D01*
X49869Y39708D02*
X48980Y39708D01*
X48980Y39910D02*
X49869Y39910D01*
X49869Y40111D02*
X48980Y40111D01*
X48980Y40313D02*
X49869Y40313D01*
X49869Y40515D02*
X48980Y40515D01*
X48980Y40716D02*
X49869Y40716D01*
X49869Y40918D02*
X48980Y40918D01*
X48980Y41120D02*
X49869Y41120D01*
X49869Y41321D02*
X48980Y41321D01*
X48980Y41523D02*
X49869Y41523D01*
X49869Y41725D02*
X48980Y41725D01*
X48980Y41927D02*
X49869Y41927D01*
X49869Y42128D02*
X48980Y42128D01*
X48980Y42330D02*
X49869Y42330D01*
X49869Y42532D02*
X48980Y42532D01*
X48980Y42733D02*
X49869Y42733D01*
X49869Y42935D02*
X48980Y42935D01*
X48980Y43137D02*
X49869Y43137D01*
X49869Y43338D02*
X49137Y43338D01*
X49297Y43540D02*
X49869Y43540D01*
X49869Y43742D02*
X49297Y43742D01*
X49297Y43944D02*
X49869Y43944D01*
X49869Y44145D02*
X49297Y44145D01*
X49297Y44347D02*
X49869Y44347D01*
X49869Y44549D02*
X49297Y44549D01*
X49297Y44750D02*
X49827Y44750D01*
X49681Y44952D02*
X49297Y44952D01*
X49365Y45154D02*
X49602Y45154D01*
X49602Y45355D02*
X49566Y45355D01*
X48789Y45297D02*
X48789Y44344D01*
X48789Y43709D01*
X48472Y43392D01*
X48472Y33549D01*
X48948Y33073D01*
X47519Y31644D01*
X47202Y31644D01*
X46427Y31640D02*
X45928Y31640D01*
X45928Y31438D02*
X46448Y31438D01*
X46532Y31236D02*
X45928Y31236D01*
X45928Y31035D02*
X46715Y31035D01*
X47300Y30631D02*
X45822Y30631D01*
X45903Y30833D02*
X47408Y30833D01*
X48257Y30057D02*
X48257Y29002D01*
X48472Y28787D01*
X48884Y28787D01*
X49107Y28564D01*
X48116Y27606D02*
X45928Y27606D01*
X45928Y27404D02*
X48116Y27404D01*
X48200Y27202D02*
X45928Y27202D01*
X45880Y27001D02*
X46045Y27001D01*
X46249Y26247D02*
X44922Y26247D01*
X44922Y24977D02*
X46249Y24977D01*
X45932Y23707D02*
X46884Y22754D01*
X44979Y22379D02*
X44979Y21167D01*
X44204Y21151D02*
X43900Y21151D01*
X43900Y20950D02*
X44230Y20950D01*
X44314Y20748D02*
X43900Y20748D01*
X43900Y20546D02*
X44504Y20546D01*
X44218Y21353D02*
X43900Y21353D01*
X43900Y21555D02*
X44301Y21555D01*
X44127Y21757D02*
X43900Y21757D01*
X43900Y21958D02*
X43925Y21958D01*
X43915Y22160D02*
X43900Y22160D01*
X43900Y22362D02*
X43915Y22362D01*
X43900Y22563D02*
X43915Y22563D01*
X43900Y22765D02*
X43915Y22765D01*
X43900Y22967D02*
X43977Y22967D01*
X43985Y23168D02*
X43900Y23168D01*
X43900Y23370D02*
X43915Y23370D01*
X43900Y23572D02*
X43915Y23572D01*
X42884Y23370D02*
X42881Y23370D01*
X44662Y22437D02*
X44922Y22437D01*
X44979Y22379D01*
X41067Y20849D02*
X40852Y20849D01*
X40852Y23389D01*
X40534Y23707D01*
X39322Y23707D01*
X38629Y23707D01*
X38312Y23389D01*
X37257Y23389D01*
X38213Y22765D02*
X38315Y22765D01*
X38315Y22563D02*
X38056Y22563D01*
X39322Y22437D02*
X39322Y20894D01*
X39367Y20849D01*
X37257Y20849D01*
X36458Y22563D02*
X36356Y22563D01*
X36394Y24177D02*
X36420Y24177D01*
X35557Y25294D02*
X35137Y25294D01*
X34184Y26247D01*
X33740Y25992D02*
X34710Y25992D01*
X34651Y25791D02*
X33740Y25791D01*
X33740Y25589D02*
X34651Y25589D01*
X34651Y25185D02*
X33740Y25185D01*
X33740Y24984D02*
X34651Y24984D01*
X34651Y24782D02*
X33740Y24782D01*
X33740Y24580D02*
X34719Y24580D01*
X34720Y24177D02*
X33740Y24177D01*
X33740Y24379D02*
X38445Y24379D01*
X38317Y24177D02*
X38094Y24177D01*
X38168Y24580D02*
X38307Y24580D01*
X35658Y25589D02*
X35455Y25589D01*
X35455Y25791D02*
X35658Y25791D01*
X35658Y25992D02*
X35455Y25992D01*
X35455Y25387D02*
X33740Y25387D01*
X33740Y23975D02*
X34600Y23975D01*
X28914Y24580D02*
X28248Y24580D01*
X28212Y24782D02*
X28914Y24782D01*
X28914Y24984D02*
X28143Y24984D01*
X28034Y25185D02*
X28914Y25185D01*
X28914Y25387D02*
X27873Y25387D01*
X27632Y25589D02*
X28914Y25589D01*
X28914Y26194D02*
X17230Y26194D01*
X17230Y26396D02*
X17338Y26396D01*
X17992Y30057D02*
X24764Y30057D01*
X26780Y40918D02*
X26983Y40918D01*
X26983Y41120D02*
X26780Y41120D01*
X26780Y41321D02*
X26983Y41321D01*
X26983Y41523D02*
X26780Y41523D01*
X26780Y41725D02*
X26983Y41725D01*
X26983Y41927D02*
X26780Y41927D01*
X26882Y42081D02*
X24936Y44027D01*
X17992Y44027D01*
X18093Y43944D02*
X27479Y43944D01*
X27658Y43742D02*
X19258Y43742D01*
X19287Y43925D02*
X19287Y43925D01*
X18093Y43742D02*
X17890Y43742D01*
X17890Y43540D02*
X18093Y43540D01*
X18093Y43338D02*
X17890Y43338D01*
X17890Y43137D02*
X18093Y43137D01*
X18093Y42935D02*
X17890Y42935D01*
X17290Y42935D02*
X17230Y42935D01*
X18968Y48179D02*
X25533Y48179D01*
X25459Y48381D02*
X19148Y48381D01*
X19232Y48583D02*
X25459Y48583D01*
X28304Y49995D02*
X30607Y49995D01*
X30809Y50196D02*
X28304Y50196D01*
X28304Y50398D02*
X31011Y50398D01*
X31212Y50600D02*
X28304Y50600D01*
X28124Y50801D02*
X31414Y50801D01*
X33105Y50377D02*
X33105Y48877D01*
X32914Y48687D01*
X34534Y48687D01*
X34654Y48567D01*
X35772Y48567D01*
X35772Y47202D01*
X35454Y46884D01*
X34737Y46884D01*
X34654Y46967D01*
X34502Y46249D02*
X33867Y46249D01*
X33549Y45932D01*
X33643Y46162D02*
X34616Y46162D01*
X34584Y46167D02*
X34502Y46249D01*
X34819Y46249D01*
X34692Y46162D02*
X38756Y46162D01*
X38756Y45961D02*
X35645Y45961D01*
X35695Y45759D02*
X38756Y45759D01*
X38756Y45557D02*
X35695Y45557D01*
X35695Y45355D02*
X38756Y45355D01*
X38756Y45154D02*
X35695Y45154D01*
X35695Y44952D02*
X38756Y44952D01*
X38756Y44750D02*
X35695Y44750D01*
X35695Y44549D02*
X38756Y44549D01*
X38756Y44347D02*
X35695Y44347D01*
X35695Y44145D02*
X38756Y44145D01*
X38756Y43944D02*
X35695Y43944D01*
X35695Y43742D02*
X38756Y43742D01*
X38756Y43540D02*
X35695Y43540D01*
X35695Y43338D02*
X38756Y43338D01*
X39772Y44549D02*
X39780Y44549D01*
X39772Y44750D02*
X39864Y44750D01*
X39772Y44952D02*
X40046Y44952D01*
X41252Y46167D02*
X40852Y46567D01*
X40852Y47519D01*
X41487Y48154D01*
X41804Y47837D01*
X43169Y47837D01*
X43239Y47767D01*
X43201Y47005D02*
X43201Y46929D01*
X42249Y46929D01*
X42249Y46675D01*
X41462Y46675D01*
X41360Y46777D01*
X41360Y47309D01*
X41487Y47436D01*
X41594Y47329D01*
X42198Y47329D01*
X42198Y47319D01*
X42249Y47268D01*
X42249Y47005D01*
X43201Y47005D01*
X43201Y46969D02*
X41360Y46969D01*
X41360Y47171D02*
X42249Y47171D01*
X42249Y46767D02*
X41369Y46767D01*
X41423Y47372D02*
X41550Y47372D01*
X41487Y48154D02*
X41074Y48567D01*
X35772Y48567D01*
X36280Y47978D02*
X38489Y47978D01*
X38489Y47776D02*
X36280Y47776D01*
X36280Y47574D02*
X38534Y47574D01*
X38633Y47372D02*
X36280Y47372D01*
X36280Y47171D02*
X38756Y47171D01*
X38756Y46969D02*
X36257Y46969D01*
X36056Y46767D02*
X38756Y46767D01*
X38756Y46566D02*
X35854Y46566D01*
X35645Y46364D02*
X38756Y46364D01*
X41252Y46167D02*
X43239Y46167D01*
X44999Y46167D01*
X45082Y46249D01*
X44979Y46147D01*
X44979Y44662D01*
X45297Y44344D01*
X48789Y44344D01*
X48472Y43392D02*
X47417Y43392D01*
X46652Y42532D02*
X46481Y42532D01*
X47202Y42122D02*
X47519Y41804D01*
X47519Y38947D01*
X47964Y38901D02*
X46389Y38901D01*
X46388Y39103D02*
X47964Y39103D01*
X47964Y39304D02*
X46304Y39304D01*
X46150Y39506D02*
X47964Y39506D01*
X47964Y38699D02*
X46350Y38699D01*
X46261Y38498D02*
X47964Y38498D01*
X47964Y38296D02*
X46122Y38296D01*
X46122Y38094D02*
X47964Y38094D01*
X47964Y37893D02*
X46122Y37893D01*
X46122Y37691D02*
X47964Y37691D01*
X47964Y37489D02*
X46122Y37489D01*
X46122Y37287D02*
X47964Y37287D01*
X47964Y37086D02*
X46225Y37086D01*
X46427Y36884D02*
X47964Y36884D01*
X47964Y36682D02*
X46628Y36682D01*
X46830Y36481D02*
X47964Y36481D01*
X47964Y36279D02*
X47032Y36279D01*
X47233Y36077D02*
X47964Y36077D01*
X47964Y35876D02*
X47812Y35876D01*
X47826Y34665D02*
X47964Y34665D01*
X47964Y34464D02*
X43900Y34464D01*
X44013Y34262D02*
X47964Y34262D01*
X47964Y34060D02*
X44294Y34060D01*
X44420Y33859D02*
X47964Y33859D01*
X47964Y33657D02*
X44484Y33657D01*
X44484Y33455D02*
X47964Y33455D01*
X48049Y33253D02*
X44425Y33253D01*
X44307Y33052D02*
X48208Y33052D01*
X48007Y32850D02*
X44046Y32850D01*
X43373Y32850D02*
X43265Y32850D01*
X43265Y32648D02*
X47805Y32648D01*
X47603Y32447D02*
X43265Y32447D01*
X43265Y32245D02*
X46707Y32245D01*
X46528Y32043D02*
X43265Y32043D01*
X43265Y31842D02*
X43962Y31842D01*
X43709Y31327D02*
X43392Y31009D01*
X43709Y31327D02*
X44922Y31327D01*
X45881Y31842D02*
X46445Y31842D01*
X44922Y30057D02*
X48257Y30057D01*
X49742Y32279D02*
X48948Y33073D01*
X43709Y33549D02*
X43392Y33867D01*
X43392Y37677D01*
X43709Y37994D01*
X43709Y38947D01*
X43074Y39582D01*
X43074Y39899D01*
X43074Y43919D01*
X43239Y43767D02*
X43074Y43602D01*
X43074Y39899D01*
X45025Y36481D02*
X45393Y36481D01*
X50377Y38693D02*
X50377Y45297D01*
X50885Y44549D02*
X50986Y44549D01*
X50885Y44347D02*
X51183Y44347D01*
X51647Y44979D02*
X51647Y46389D01*
X51999Y48381D02*
X52365Y48381D01*
X52082Y48583D02*
X52693Y48583D01*
X53140Y48583D02*
X53280Y48583D01*
X53407Y48784D02*
X52104Y48784D01*
X52086Y48986D02*
X53346Y48986D01*
X53331Y49188D02*
X52003Y49188D01*
X51837Y49389D02*
X53331Y49389D01*
X53331Y49793D02*
X51837Y49793D01*
X51837Y49995D02*
X53331Y49995D01*
X53331Y50196D02*
X51837Y50196D01*
X51837Y50398D02*
X53397Y50398D01*
X54085Y50398D02*
X54288Y50398D01*
X54288Y50196D02*
X54085Y50196D01*
X54085Y49995D02*
X54288Y49995D01*
X54288Y49793D02*
X54085Y49793D01*
X54187Y49639D02*
X54187Y51012D01*
X55774Y51012D01*
X55774Y51329D01*
X56409Y51964D01*
X60537Y51964D01*
X60854Y51647D01*
X61172Y51964D01*
X61172Y57044D01*
X60854Y57362D01*
X59330Y57362D01*
X50377Y57362D01*
X49742Y57997D01*
X49843Y58063D02*
X58411Y58063D01*
X58431Y58074D02*
X58350Y58027D01*
X58284Y57961D01*
X58237Y57880D01*
X58213Y57789D01*
X58213Y57451D01*
X59241Y57451D01*
X59241Y58098D01*
X58521Y58098D01*
X58431Y58074D01*
X58232Y57861D02*
X51037Y57861D01*
X51037Y57659D02*
X58213Y57659D01*
X58213Y57457D02*
X51034Y57457D01*
X50833Y57256D02*
X58213Y57256D01*
X58213Y57273D02*
X58213Y56934D01*
X58237Y56843D01*
X58284Y56762D01*
X58350Y56696D01*
X58431Y56649D01*
X58521Y56625D01*
X59241Y56625D01*
X59241Y57273D01*
X58213Y57273D01*
X58213Y57054D02*
X50631Y57054D01*
X50429Y56852D02*
X58234Y56852D01*
X58429Y56651D02*
X50451Y56651D01*
X50653Y56449D02*
X67091Y56449D01*
X67127Y56651D02*
X65925Y56651D01*
X65849Y56574D02*
X66087Y56812D01*
X66087Y57911D01*
X65849Y58149D01*
X63988Y58149D01*
X63750Y57911D01*
X63750Y56812D01*
X63988Y56574D01*
X65849Y56574D01*
X66087Y56852D02*
X67162Y56852D01*
X67173Y56912D02*
X67028Y56092D01*
X67028Y56092D01*
X67173Y55271D01*
X67589Y54550D01*
X68227Y54014D01*
X69010Y53729D01*
X69637Y53729D01*
X69843Y53729D01*
X69843Y53729D01*
X70626Y54014D01*
X71264Y54550D01*
X71681Y55271D01*
X71681Y55271D01*
X71825Y56092D01*
X71681Y56912D01*
X71264Y57633D01*
X71264Y57633D01*
X70626Y58169D01*
X70626Y58169D01*
X69843Y58454D01*
X69010Y58454D01*
X68227Y58169D01*
X67589Y57633D01*
X67173Y56912D01*
X67173Y56912D01*
X67255Y57054D02*
X66087Y57054D01*
X66087Y57256D02*
X67371Y57256D01*
X67488Y57457D02*
X66087Y57457D01*
X66087Y57659D02*
X67620Y57659D01*
X67589Y57633D02*
X67589Y57633D01*
X67589Y57633D01*
X67860Y57861D02*
X66087Y57861D01*
X65935Y58063D02*
X68101Y58063D01*
X68227Y58169D02*
X68227Y58169D01*
X68489Y58264D02*
X51037Y58264D01*
X51037Y58466D02*
X71919Y58466D01*
X72030Y58264D02*
X70364Y58264D01*
X70753Y58063D02*
X72087Y58063D01*
X72094Y57861D02*
X70993Y57861D01*
X71234Y57659D02*
X72094Y57659D01*
X72094Y57457D02*
X71366Y57457D01*
X71482Y57256D02*
X72094Y57256D01*
X72094Y57054D02*
X71599Y57054D01*
X71681Y56912D02*
X71681Y56912D01*
X71691Y56852D02*
X72094Y56852D01*
X72094Y56651D02*
X71727Y56651D01*
X71762Y56449D02*
X72094Y56449D01*
X72094Y56247D02*
X71798Y56247D01*
X71825Y56092D02*
X71825Y56092D01*
X71817Y56046D02*
X72094Y56046D01*
X72094Y55844D02*
X71782Y55844D01*
X71746Y55642D02*
X72094Y55642D01*
X72094Y55440D02*
X71710Y55440D01*
X71662Y55239D02*
X72094Y55239D01*
X72094Y55037D02*
X71545Y55037D01*
X71429Y54835D02*
X72094Y54835D01*
X72094Y54634D02*
X71313Y54634D01*
X71264Y54550D02*
X71264Y54550D01*
X71264Y54550D01*
X71124Y54432D02*
X72094Y54432D01*
X72094Y54230D02*
X70883Y54230D01*
X70643Y54029D02*
X72094Y54029D01*
X72094Y53827D02*
X70111Y53827D01*
X70626Y54014D02*
X70626Y54014D01*
X68743Y53827D02*
X66087Y53827D01*
X66087Y54029D02*
X68210Y54029D01*
X68227Y54014D02*
X68227Y54014D01*
X67970Y54230D02*
X65957Y54230D01*
X65849Y54339D02*
X66087Y54101D01*
X66087Y53002D01*
X65849Y52764D01*
X63988Y52764D01*
X63750Y53002D01*
X63750Y54101D01*
X63988Y54339D01*
X65849Y54339D01*
X66087Y53625D02*
X72094Y53625D01*
X72094Y53423D02*
X66087Y53423D01*
X66087Y53222D02*
X72094Y53222D01*
X72094Y53020D02*
X66087Y53020D01*
X65903Y52818D02*
X72094Y52818D01*
X72094Y52617D02*
X54033Y52617D01*
X54358Y52818D02*
X58346Y52818D01*
X58162Y53020D02*
X54503Y53020D01*
X54580Y53222D02*
X58162Y53222D01*
X58162Y53423D02*
X57486Y53423D01*
X57581Y53625D02*
X57967Y53625D01*
X58124Y54187D02*
X56624Y54187D01*
X58124Y54187D02*
X58124Y54949D01*
X57616Y55457D01*
X51329Y55457D01*
X51329Y48789D01*
X51837Y49591D02*
X54085Y49591D01*
X54288Y49591D02*
X55673Y49591D01*
X55673Y49538D02*
X54288Y49538D01*
X54288Y49741D01*
X55042Y49741D01*
X55673Y49741D01*
X55673Y49538D01*
X55774Y49639D02*
X55774Y51012D01*
X56015Y51003D02*
X51837Y51003D01*
X51837Y50801D02*
X56015Y50801D01*
X56015Y50794D02*
X56119Y50545D01*
X55876Y50545D01*
X55876Y49741D01*
X56630Y49741D01*
X56630Y50176D01*
X56636Y50173D01*
X56716Y50173D01*
X57078Y49812D01*
X57078Y48456D01*
X57316Y48218D01*
X59052Y48218D01*
X59291Y48456D01*
X59291Y50392D01*
X59052Y50631D01*
X57696Y50631D01*
X57555Y50771D01*
X57565Y50794D01*
X57565Y51102D01*
X57447Y51387D01*
X57229Y51605D01*
X56944Y51723D01*
X56636Y51723D01*
X56351Y51605D01*
X56133Y51387D01*
X56015Y51102D01*
X56015Y50794D01*
X56096Y50600D02*
X51837Y50600D01*
X51837Y51205D02*
X56058Y51205D01*
X56153Y51406D02*
X51837Y51406D01*
X51837Y51608D02*
X56359Y51608D01*
X56790Y50948D02*
X56790Y50818D01*
X58184Y49424D01*
X57078Y49389D02*
X56630Y49389D01*
X56630Y49188D02*
X57078Y49188D01*
X57078Y48986D02*
X56615Y48986D01*
X56554Y48784D02*
X57078Y48784D01*
X57078Y48583D02*
X56681Y48583D01*
X56681Y48381D02*
X57153Y48381D01*
X57292Y47978D02*
X56681Y47978D01*
X56681Y48179D02*
X63365Y48179D01*
X63365Y47993D02*
X63603Y47755D01*
X66440Y47755D01*
X66678Y47993D01*
X66678Y50330D01*
X66440Y50568D01*
X63603Y50568D01*
X63365Y50330D01*
X63365Y47993D01*
X63381Y47978D02*
X58447Y47978D01*
X58649Y47776D02*
X63583Y47776D01*
X63365Y48381D02*
X61944Y48381D01*
X61969Y48406D02*
X62016Y48487D01*
X62040Y48577D01*
X62040Y49323D01*
X61086Y49323D01*
X61086Y49526D01*
X60883Y49526D01*
X60883Y50580D01*
X60237Y50580D01*
X60147Y50556D01*
X60066Y50509D01*
X60000Y50443D01*
X59953Y50361D01*
X59929Y50271D01*
X59929Y49526D01*
X60883Y49526D01*
X60883Y49323D01*
X61086Y49323D01*
X61086Y48269D01*
X61731Y48269D01*
X61821Y48293D01*
X61903Y48340D01*
X61969Y48406D01*
X62040Y48583D02*
X63365Y48583D01*
X63365Y48784D02*
X62040Y48784D01*
X62040Y48986D02*
X63365Y48986D01*
X63365Y49188D02*
X62040Y49188D01*
X62040Y49526D02*
X61086Y49526D01*
X61086Y50580D01*
X61731Y50580D01*
X61821Y50556D01*
X61903Y50509D01*
X61969Y50443D01*
X62016Y50361D01*
X62040Y50271D01*
X62040Y49526D01*
X62040Y49591D02*
X63365Y49591D01*
X63365Y49389D02*
X61086Y49389D01*
X60984Y49424D02*
X60984Y49294D01*
X62442Y47837D01*
X62759Y48154D01*
X62759Y49107D01*
X63365Y49793D02*
X62040Y49793D01*
X62040Y49995D02*
X63365Y49995D01*
X63365Y50196D02*
X62040Y50196D01*
X61994Y50398D02*
X63433Y50398D01*
X61086Y50398D02*
X60883Y50398D01*
X60883Y50196D02*
X61086Y50196D01*
X61086Y49995D02*
X60883Y49995D01*
X60883Y49793D02*
X61086Y49793D01*
X61172Y49612D02*
X60984Y49424D01*
X60883Y49389D02*
X59291Y49389D01*
X59291Y49188D02*
X59929Y49188D01*
X59929Y49323D02*
X59929Y48577D01*
X59953Y48487D01*
X60000Y48406D01*
X60066Y48340D01*
X60147Y48293D01*
X60237Y48269D01*
X60883Y48269D01*
X60883Y49323D01*
X59929Y49323D01*
X59929Y49591D02*
X59291Y49591D01*
X59291Y49793D02*
X59929Y49793D01*
X59929Y49995D02*
X59291Y49995D01*
X59291Y50196D02*
X59929Y50196D01*
X59974Y50398D02*
X59285Y50398D01*
X59083Y50600D02*
X72094Y50600D01*
X72094Y50801D02*
X57565Y50801D01*
X57565Y51003D02*
X72094Y51003D01*
X72094Y51205D02*
X57522Y51205D01*
X57427Y51406D02*
X72094Y51406D01*
X72094Y51608D02*
X57221Y51608D01*
X55876Y50398D02*
X55673Y50398D01*
X55673Y50196D02*
X55876Y50196D01*
X55876Y49995D02*
X55673Y49995D01*
X55673Y49793D02*
X55876Y49793D01*
X55876Y49591D02*
X57078Y49591D01*
X57078Y49793D02*
X56630Y49793D01*
X56630Y49995D02*
X56895Y49995D01*
X54984Y50398D02*
X54977Y50398D01*
X53579Y52617D02*
X51837Y52617D01*
X51837Y52818D02*
X53253Y52818D01*
X53108Y53020D02*
X51837Y53020D01*
X51837Y53222D02*
X53031Y53222D01*
X53031Y53423D02*
X51837Y53423D01*
X51837Y53625D02*
X53076Y53625D01*
X53176Y53827D02*
X51837Y53827D01*
X51837Y54029D02*
X53361Y54029D01*
X53512Y54230D02*
X51837Y54230D01*
X51837Y54432D02*
X53714Y54432D01*
X53915Y54634D02*
X51837Y54634D01*
X51837Y54835D02*
X53968Y54835D01*
X54187Y54187D02*
X53869Y53869D01*
X53869Y53425D01*
X53806Y53361D01*
X54187Y54187D02*
X54924Y54187D01*
X58124Y54187D02*
X58759Y53552D01*
X59330Y53552D01*
X58632Y54432D02*
X67730Y54432D01*
X67589Y54550D02*
X67589Y54550D01*
X67541Y54634D02*
X58632Y54634D01*
X58632Y54835D02*
X67424Y54835D01*
X67308Y55037D02*
X58632Y55037D01*
X58552Y55239D02*
X67191Y55239D01*
X67173Y55271D02*
X67173Y55271D01*
X67143Y55440D02*
X58350Y55440D01*
X58149Y55642D02*
X67107Y55642D01*
X67072Y55844D02*
X57947Y55844D01*
X59241Y56651D02*
X59419Y56651D01*
X59419Y56625D02*
X59419Y57273D01*
X59419Y57451D01*
X59241Y57451D01*
X59241Y57273D01*
X59419Y57273D01*
X60448Y57273D01*
X60448Y56934D01*
X60424Y56843D01*
X60377Y56762D01*
X60311Y56696D01*
X60229Y56649D01*
X60139Y56625D01*
X59419Y56625D01*
X59419Y56852D02*
X59241Y56852D01*
X59241Y57054D02*
X59419Y57054D01*
X59419Y57256D02*
X59241Y57256D01*
X59241Y57457D02*
X59419Y57457D01*
X59419Y57451D02*
X59419Y58098D01*
X60139Y58098D01*
X60229Y58074D01*
X60311Y58027D01*
X60377Y57961D01*
X60424Y57880D01*
X60448Y57789D01*
X60448Y57451D01*
X59419Y57451D01*
X59419Y57659D02*
X59241Y57659D01*
X59241Y57861D02*
X59419Y57861D01*
X59419Y58063D02*
X59241Y58063D01*
X60249Y58063D02*
X63901Y58063D01*
X63750Y57861D02*
X60429Y57861D01*
X60448Y57659D02*
X63750Y57659D01*
X63750Y57457D02*
X60448Y57457D01*
X60448Y57256D02*
X63750Y57256D01*
X63750Y57054D02*
X60448Y57054D01*
X60426Y56852D02*
X63750Y56852D01*
X63911Y56651D02*
X60232Y56651D01*
X60369Y54230D02*
X63879Y54230D01*
X63750Y54029D02*
X60499Y54029D01*
X60499Y53827D02*
X63750Y53827D01*
X63750Y53625D02*
X60499Y53625D01*
X60499Y53423D02*
X63750Y53423D01*
X63750Y53222D02*
X60499Y53222D01*
X60499Y53020D02*
X63750Y53020D01*
X63934Y52818D02*
X60315Y52818D01*
X60854Y51647D02*
X61172Y51329D01*
X61172Y49612D01*
X61086Y49591D02*
X60883Y49591D01*
X60883Y49188D02*
X61086Y49188D01*
X61086Y48986D02*
X60883Y48986D01*
X60883Y48784D02*
X61086Y48784D01*
X61086Y48583D02*
X60883Y48583D01*
X60883Y48381D02*
X61086Y48381D01*
X60024Y48381D02*
X59216Y48381D01*
X59291Y48583D02*
X59929Y48583D01*
X59929Y48784D02*
X59291Y48784D01*
X59291Y48986D02*
X59929Y48986D01*
X58851Y47574D02*
X67023Y47574D01*
X66821Y47372D02*
X59052Y47372D01*
X59254Y47171D02*
X66723Y47171D01*
X66461Y47776D02*
X69083Y47776D01*
X68881Y47978D02*
X66662Y47978D01*
X66678Y48179D02*
X68865Y48179D01*
X68865Y48381D02*
X66678Y48381D01*
X66678Y48583D02*
X68865Y48583D01*
X68865Y48784D02*
X66678Y48784D01*
X66678Y48986D02*
X68865Y48986D01*
X68865Y49188D02*
X66678Y49188D01*
X66678Y49389D02*
X68865Y49389D01*
X68865Y49591D02*
X66678Y49591D01*
X66678Y49793D02*
X68865Y49793D01*
X68865Y49995D02*
X66678Y49995D01*
X66678Y50196D02*
X68865Y50196D01*
X68933Y50398D02*
X66610Y50398D01*
X68020Y47574D02*
X72094Y47574D01*
X72094Y47372D02*
X68222Y47372D01*
X68321Y47171D02*
X72094Y47171D01*
X72094Y46969D02*
X68378Y46969D01*
X68378Y46767D02*
X72094Y46767D01*
X72094Y46566D02*
X68326Y46566D01*
X68235Y46364D02*
X72094Y46364D01*
X72094Y46162D02*
X68033Y46162D01*
X65045Y46364D02*
X64998Y46364D01*
X64982Y46302D02*
X65022Y46262D01*
X64982Y46302D02*
X64982Y47202D01*
X64664Y47519D01*
X62759Y47519D01*
X62442Y47837D01*
X59798Y46969D02*
X59456Y46969D01*
X59657Y46767D02*
X59746Y46767D01*
X58632Y45932D02*
X58632Y37359D01*
X59267Y36724D01*
X59267Y36407D01*
X59482Y36407D01*
X60438Y36481D02*
X61299Y36481D01*
X61299Y36682D02*
X60438Y36682D01*
X60438Y36884D02*
X61299Y36884D01*
X61299Y37086D02*
X60427Y37086D01*
X60226Y37287D02*
X61299Y37287D01*
X61299Y37489D02*
X59220Y37489D01*
X59313Y37645D02*
X59247Y37711D01*
X59200Y37792D01*
X59176Y37882D01*
X59176Y38528D01*
X60030Y38528D01*
X60030Y38731D01*
X60030Y39685D01*
X59485Y39685D01*
X59394Y39661D01*
X59313Y39614D01*
X59247Y39548D01*
X59200Y39466D01*
X59176Y39376D01*
X59176Y38731D01*
X60030Y38731D01*
X60233Y38731D01*
X60233Y39685D01*
X60778Y39685D01*
X60869Y39661D01*
X60950Y39614D01*
X61016Y39548D01*
X61063Y39466D01*
X61087Y39376D01*
X61087Y38731D01*
X60233Y38731D01*
X60233Y38528D01*
X61087Y38528D01*
X61087Y37882D01*
X61063Y37792D01*
X61016Y37711D01*
X60950Y37645D01*
X60869Y37598D01*
X60778Y37574D01*
X60233Y37574D01*
X60233Y38528D01*
X60030Y38528D01*
X60030Y37574D01*
X59485Y37574D01*
X59394Y37598D01*
X59313Y37645D01*
X59267Y37691D02*
X59140Y37691D01*
X59140Y37893D02*
X59176Y37893D01*
X59176Y38094D02*
X59140Y38094D01*
X59140Y38296D02*
X59176Y38296D01*
X59176Y38498D02*
X59140Y38498D01*
X59140Y38699D02*
X60030Y38699D01*
X60132Y38629D02*
X60132Y40193D01*
X60918Y40979D01*
X62442Y40979D01*
X62950Y40471D01*
X62950Y39455D01*
X62759Y39264D01*
X62315Y39304D02*
X63365Y39304D01*
X63365Y39103D02*
X62315Y39103D01*
X62315Y38901D02*
X63458Y38901D01*
X63465Y38498D02*
X64593Y38498D01*
X64523Y38296D02*
X63536Y38296D01*
X63961Y38094D02*
X64523Y38094D01*
X64523Y37893D02*
X64274Y37893D01*
X64413Y37691D02*
X64523Y37691D01*
X64523Y37489D02*
X64486Y37489D01*
X64486Y37287D02*
X64523Y37287D01*
X64523Y37086D02*
X64437Y37086D01*
X64523Y36884D02*
X64332Y36884D01*
X64220Y36682D02*
X64523Y36682D01*
X64523Y36481D02*
X64220Y36481D01*
X64220Y36279D02*
X64535Y36279D01*
X64538Y36077D02*
X64736Y36077D01*
X64741Y35876D02*
X64538Y35876D01*
X64538Y35674D02*
X64741Y35674D01*
X64640Y35391D02*
X64640Y34590D01*
X64855Y34375D01*
X65109Y34375D01*
X65299Y34184D01*
X64741Y34665D02*
X64538Y34665D01*
X64538Y34867D02*
X64741Y34867D01*
X64741Y35069D02*
X64538Y35069D01*
X64538Y35270D02*
X64741Y35270D01*
X67204Y33549D02*
X65299Y31644D01*
X65299Y29319D01*
X63394Y29319D02*
X63394Y30374D01*
X63712Y30692D01*
X63712Y37359D01*
X62629Y37359D02*
X62442Y37359D01*
X62442Y33232D01*
X62442Y31644D01*
X62759Y31327D01*
X62759Y30692D01*
X62442Y30374D01*
X62442Y27199D01*
X62442Y24977D01*
X63216Y24984D02*
X64831Y24984D01*
X64637Y25185D02*
X63194Y25185D01*
X63110Y25387D02*
X64554Y25387D01*
X62958Y25589D02*
X62950Y25589D01*
X63394Y26247D02*
X63394Y27619D01*
X62442Y27199D02*
X59799Y27199D01*
X59584Y27199D01*
X59584Y28469D01*
X58632Y29422D01*
X58632Y29739D01*
X58632Y31112D01*
X59482Y31962D01*
X59267Y31962D01*
X59621Y32868D02*
X59831Y33078D01*
X60900Y33078D01*
X60981Y33159D01*
X60981Y32704D01*
X61279Y32406D01*
X61299Y32386D01*
X61299Y31597D01*
X61150Y31448D01*
X61032Y31163D01*
X61032Y30855D01*
X61132Y30614D01*
X60900Y30846D01*
X59363Y30846D01*
X59140Y30622D01*
X59140Y30901D01*
X59294Y31055D01*
X60200Y31055D01*
X60438Y31293D01*
X60438Y32630D01*
X60200Y32868D01*
X59621Y32868D01*
X59805Y33052D02*
X60981Y33052D01*
X60981Y32850D02*
X60218Y32850D01*
X60420Y32648D02*
X61037Y32648D01*
X61238Y32447D02*
X60438Y32447D01*
X60438Y32245D02*
X61299Y32245D01*
X61299Y32043D02*
X60438Y32043D01*
X60438Y31842D02*
X61299Y31842D01*
X61299Y31640D02*
X60438Y31640D01*
X60438Y31438D02*
X61146Y31438D01*
X61062Y31236D02*
X60381Y31236D01*
X60912Y30833D02*
X61041Y30833D01*
X61032Y31035D02*
X59273Y31035D01*
X59351Y30833D02*
X59140Y30833D01*
X59140Y30631D02*
X59149Y30631D01*
X57044Y30692D02*
X56727Y31009D01*
X57044Y30692D02*
X57044Y29739D01*
X57132Y29739D01*
X57539Y28614D02*
X56282Y28614D01*
X56282Y28413D02*
X57539Y28413D01*
X57583Y28211D02*
X56282Y28211D01*
X56282Y28009D02*
X57285Y28009D01*
X57143Y27808D02*
X56282Y27808D01*
X56282Y27606D02*
X57143Y27606D01*
X57143Y27404D02*
X56282Y27404D01*
X56282Y27202D02*
X57143Y27202D01*
X57143Y27001D02*
X56282Y27001D01*
X55774Y26564D02*
X55457Y26247D01*
X55774Y26564D02*
X55774Y32914D01*
X55457Y33621D02*
X55457Y35371D01*
X56125Y34702D01*
X56125Y33607D01*
X55928Y33689D01*
X55620Y33689D01*
X55457Y33621D01*
X55457Y33657D02*
X55543Y33657D01*
X55457Y33859D02*
X56125Y33859D01*
X56125Y34060D02*
X55457Y34060D01*
X55457Y34262D02*
X56125Y34262D01*
X56125Y34464D02*
X55457Y34464D01*
X55457Y34665D02*
X56125Y34665D01*
X55960Y34867D02*
X55457Y34867D01*
X55457Y35069D02*
X55759Y35069D01*
X55557Y35270D02*
X55457Y35270D01*
X55774Y35772D02*
X56727Y34819D01*
X56727Y34502D01*
X57044Y34502D01*
X57044Y34184D01*
X57132Y34184D01*
X58138Y34262D02*
X59125Y34262D01*
X59125Y34464D02*
X58138Y34464D01*
X58138Y34665D02*
X59125Y34665D01*
X59125Y34867D02*
X58138Y34867D01*
X58122Y35069D02*
X59142Y35069D01*
X59343Y35270D02*
X57920Y35270D01*
X56890Y35674D02*
X56590Y35674D01*
X56389Y35876D02*
X56825Y35876D01*
X56825Y36077D02*
X56282Y36077D01*
X56282Y36279D02*
X56825Y36279D01*
X56825Y36481D02*
X56282Y36481D01*
X56282Y36682D02*
X56685Y36682D01*
X56536Y36884D02*
X56282Y36884D01*
X56282Y37086D02*
X56536Y37086D01*
X56536Y37287D02*
X56282Y37287D01*
X56282Y37489D02*
X56536Y37489D01*
X57044Y37042D02*
X57679Y36407D01*
X57782Y36407D01*
X57044Y37042D02*
X57044Y38542D01*
X57132Y38629D01*
X57044Y38629D01*
X59140Y38901D02*
X59176Y38901D01*
X59176Y39103D02*
X59140Y39103D01*
X59140Y39304D02*
X59176Y39304D01*
X59140Y39506D02*
X59223Y39506D01*
X59140Y39708D02*
X61220Y39708D01*
X61299Y39506D02*
X61040Y39506D01*
X61087Y39304D02*
X61299Y39304D01*
X61299Y39103D02*
X61087Y39103D01*
X61087Y38901D02*
X61299Y38901D01*
X61299Y38699D02*
X60233Y38699D01*
X60132Y38629D02*
X60854Y37907D01*
X60854Y35772D01*
X60438Y35876D02*
X61299Y35876D01*
X61299Y36077D02*
X60438Y36077D01*
X60438Y36279D02*
X61299Y36279D01*
X61299Y35674D02*
X60374Y35674D01*
X60920Y35270D02*
X61299Y35270D01*
X61299Y35069D02*
X61122Y35069D01*
X61138Y34867D02*
X61299Y34867D01*
X61299Y34665D02*
X61138Y34665D01*
X61138Y34464D02*
X61299Y34464D01*
X61166Y34262D02*
X61138Y34262D01*
X61489Y33867D02*
X61807Y34184D01*
X61807Y40217D01*
X62522Y40515D02*
X63365Y40515D01*
X63365Y40716D02*
X62403Y40716D01*
X62138Y40918D02*
X63365Y40918D01*
X63365Y41120D02*
X59140Y41120D01*
X59140Y41321D02*
X59878Y41321D01*
X59746Y41523D02*
X59140Y41523D01*
X59140Y41725D02*
X59326Y41725D01*
X59648Y42122D02*
X59330Y42439D01*
X59330Y43709D01*
X59808Y44327D02*
X59769Y44366D01*
X59484Y44484D01*
X59176Y44484D01*
X59140Y44469D01*
X59140Y45344D01*
X59288Y45493D01*
X59391Y45741D01*
X59746Y45741D01*
X59746Y45581D01*
X59811Y45516D01*
X59797Y45462D01*
X59797Y45017D01*
X60601Y45017D01*
X60601Y44814D01*
X59797Y44814D01*
X59797Y44369D01*
X59808Y44327D01*
X59803Y44347D02*
X59788Y44347D01*
X59797Y44549D02*
X59140Y44549D01*
X59140Y44750D02*
X59797Y44750D01*
X59797Y45154D02*
X59140Y45154D01*
X59151Y45355D02*
X59797Y45355D01*
X59770Y45557D02*
X59315Y45557D01*
X59330Y44979D02*
X59394Y44916D01*
X60703Y44916D01*
X60703Y43646D01*
X60804Y43747D02*
X60601Y43747D01*
X60601Y44501D01*
X60601Y44814D01*
X60804Y44814D01*
X60804Y43747D01*
X60804Y43944D02*
X60601Y43944D01*
X60601Y44145D02*
X60804Y44145D01*
X60804Y44347D02*
X60601Y44347D01*
X60601Y44549D02*
X60804Y44549D01*
X60804Y44750D02*
X60601Y44750D01*
X60601Y44952D02*
X59140Y44952D01*
X57679Y44979D02*
X57679Y43074D01*
X57362Y42757D01*
X56727Y42439D02*
X57362Y41804D01*
X57362Y41029D01*
X59140Y40918D02*
X61476Y40918D01*
X61211Y40716D02*
X59140Y40716D01*
X59140Y40515D02*
X61092Y40515D01*
X61032Y40313D02*
X59140Y40313D01*
X59140Y40111D02*
X61032Y40111D01*
X61095Y39910D02*
X59140Y39910D01*
X60030Y39506D02*
X60233Y39506D01*
X60233Y39304D02*
X60030Y39304D01*
X60030Y39103D02*
X60233Y39103D01*
X60233Y38901D02*
X60030Y38901D01*
X60030Y38498D02*
X60233Y38498D01*
X60233Y38296D02*
X60030Y38296D01*
X60030Y38094D02*
X60233Y38094D01*
X60233Y37893D02*
X60030Y37893D01*
X60030Y37691D02*
X60233Y37691D01*
X60996Y37691D02*
X61299Y37691D01*
X61299Y37893D02*
X61087Y37893D01*
X61087Y38094D02*
X61299Y38094D01*
X61299Y38296D02*
X61087Y38296D01*
X61087Y38498D02*
X61299Y38498D01*
X62315Y38699D02*
X66252Y38699D01*
X67712Y39304D02*
X67763Y39304D01*
X68157Y38629D02*
X67839Y38312D01*
X67839Y24659D01*
X67014Y23370D02*
X66573Y23370D01*
X64521Y21555D02*
X70310Y21555D01*
X70511Y21353D02*
X64521Y21353D01*
X64436Y21151D02*
X70917Y21151D01*
X69054Y25589D02*
X68982Y25589D01*
X63664Y23704D02*
X63564Y23604D01*
X61489Y23604D01*
X61172Y23922D01*
X61172Y25929D01*
X60854Y26247D01*
X57679Y26247D01*
X57362Y25929D01*
X57362Y23809D01*
X57464Y23707D01*
X57362Y23604D01*
X56409Y23604D01*
X56409Y22754D01*
X56790Y22373D01*
X56318Y22127D02*
X55850Y22127D01*
X55565Y22412D01*
X55411Y22412D01*
X55411Y22622D01*
X55279Y22754D01*
X55411Y22886D01*
X55411Y23096D01*
X55901Y23096D01*
X55901Y22544D01*
X56199Y22246D01*
X56282Y22163D01*
X56282Y22163D01*
X56318Y22127D01*
X56285Y22160D02*
X55817Y22160D01*
X55615Y22362D02*
X56083Y22362D01*
X55901Y22563D02*
X55411Y22563D01*
X55290Y22765D02*
X55901Y22765D01*
X55901Y22967D02*
X55411Y22967D01*
X58974Y22619D02*
X60084Y22619D01*
X60346Y22881D01*
X60346Y23897D01*
X62396Y22967D02*
X62977Y22967D01*
X60664Y25589D02*
X57870Y25589D01*
X58099Y27199D02*
X58314Y27199D01*
X58314Y28469D01*
X60132Y29739D02*
X61172Y29739D01*
X61489Y29422D01*
X61489Y28469D01*
X61125Y30631D02*
X61114Y30631D01*
X61807Y31009D02*
X61807Y32597D01*
X61489Y32914D01*
X61489Y33867D01*
X60219Y33867D02*
X60219Y34184D01*
X60132Y34184D01*
X60219Y33867D02*
X59902Y33867D01*
X57997Y31962D01*
X57782Y31962D01*
X56825Y32043D02*
X56282Y32043D01*
X56282Y31842D02*
X56825Y31842D01*
X56825Y32245D02*
X56282Y32245D01*
X56402Y32447D02*
X56825Y32447D01*
X56844Y32648D02*
X56503Y32648D01*
X56549Y32850D02*
X57045Y32850D01*
X56549Y33052D02*
X58368Y33052D01*
X58570Y33253D02*
X58076Y33253D01*
X58138Y33455D02*
X58772Y33455D01*
X58973Y33657D02*
X58138Y33657D01*
X58138Y33859D02*
X59125Y33859D01*
X59125Y34060D02*
X58138Y34060D01*
X56792Y35472D02*
X61299Y35472D01*
X56125Y33657D02*
X56006Y33657D01*
X55774Y35772D02*
X55774Y39899D01*
X54631Y39899D02*
X54631Y39709D01*
X54187Y39264D01*
X54187Y29739D01*
X54949Y27961D02*
X54949Y38947D01*
X53552Y39899D02*
X53552Y41029D01*
X51647Y41029D02*
X51647Y39264D01*
X51329Y38947D01*
X54822Y41029D02*
X54822Y41957D01*
X54822Y41927D02*
X54822Y41927D01*
X54822Y41725D02*
X54822Y41725D01*
X54822Y41523D02*
X54822Y41523D01*
X54822Y41321D02*
X54822Y41321D01*
X54822Y41120D02*
X54822Y41120D01*
X54822Y41029D02*
X54822Y41029D01*
X55356Y42128D02*
X53425Y42128D01*
X53526Y42330D02*
X55317Y42330D01*
X55318Y42532D02*
X53728Y42532D01*
X53929Y42733D02*
X55401Y42733D01*
X55555Y42935D02*
X54131Y42935D01*
X56092Y42376D02*
X56155Y42439D01*
X56727Y42439D01*
X59648Y42122D02*
X60703Y42122D01*
X61527Y41321D02*
X61578Y41321D01*
X62581Y40313D02*
X63365Y40313D01*
X63365Y40111D02*
X62581Y40111D01*
X62518Y39910D02*
X63365Y39910D01*
X63365Y39708D02*
X62393Y39708D01*
X62315Y39506D02*
X63365Y39506D01*
X63365Y41321D02*
X63227Y41321D01*
X63359Y41523D02*
X63558Y41523D01*
X63585Y44662D02*
X63331Y44916D01*
X64998Y46566D02*
X65045Y46566D01*
X65045Y46767D02*
X64998Y46767D01*
X71961Y47776D02*
X72094Y47776D01*
X72094Y51810D02*
X51837Y51810D01*
X51837Y52012D02*
X72094Y52012D01*
X72094Y52213D02*
X51837Y52213D01*
X51837Y52415D02*
X72094Y52415D01*
X67036Y56046D02*
X51057Y56046D01*
X50855Y56247D02*
X67055Y56247D01*
X71665Y58668D02*
X50903Y58668D01*
X47202Y57997D02*
X47202Y57362D01*
X45932Y56092D01*
X45932Y53552D01*
X45614Y53234D01*
X38312Y53234D01*
X37042Y51964D01*
X37042Y50954D01*
X36947Y50859D01*
X37697Y51901D02*
X38522Y52726D01*
X41153Y52726D01*
X41147Y52720D01*
X41029Y52436D01*
X41029Y52128D01*
X41123Y51901D01*
X40594Y51901D01*
X37697Y51901D01*
X37807Y52012D02*
X41078Y52012D01*
X41029Y52213D02*
X38009Y52213D01*
X38211Y52415D02*
X41029Y52415D01*
X41104Y52617D02*
X38413Y52617D01*
X37783Y53423D02*
X36655Y53423D01*
X36655Y53222D02*
X37581Y53222D01*
X37379Y53020D02*
X36655Y53020D01*
X36655Y52818D02*
X37177Y52818D01*
X36976Y52617D02*
X36655Y52617D01*
X36655Y52415D02*
X36774Y52415D01*
X36831Y52472D02*
X36655Y52296D01*
X36655Y53716D01*
X37887Y54949D01*
X43315Y54949D01*
X43315Y54899D01*
X44104Y54110D01*
X45219Y54110D01*
X45424Y54315D01*
X45424Y53762D01*
X45404Y53742D01*
X38101Y53742D01*
X36831Y52472D01*
X36831Y52472D01*
X36655Y53625D02*
X37984Y53625D01*
X37370Y54432D02*
X43783Y54432D01*
X43984Y54230D02*
X37169Y54230D01*
X36967Y54029D02*
X45424Y54029D01*
X45424Y54230D02*
X45339Y54230D01*
X45424Y53827D02*
X36765Y53827D01*
X36135Y54634D02*
X35667Y54634D01*
X35869Y54835D02*
X36337Y54835D01*
X36539Y55037D02*
X36070Y55037D01*
X36272Y55239D02*
X36740Y55239D01*
X36942Y55440D02*
X36474Y55440D01*
X36676Y55642D02*
X37144Y55642D01*
X37345Y55844D02*
X36877Y55844D01*
X37774Y54835D02*
X43379Y54835D01*
X43581Y54634D02*
X37572Y54634D01*
X35934Y54432D02*
X35465Y54432D01*
X35264Y54230D02*
X35732Y54230D01*
X35639Y54029D02*
X35062Y54029D01*
X34860Y53827D02*
X35639Y53827D01*
X35639Y53625D02*
X34659Y53625D01*
X34457Y53423D02*
X35639Y53423D01*
X35639Y53222D02*
X34255Y53222D01*
X34053Y53020D02*
X35639Y53020D01*
X35639Y52818D02*
X33852Y52818D01*
X33650Y52617D02*
X35639Y52617D01*
X35639Y52415D02*
X33613Y52415D01*
X33613Y52213D02*
X35639Y52213D01*
X35639Y52012D02*
X33613Y52012D01*
X33613Y51810D02*
X35608Y51810D01*
X35461Y51608D02*
X33613Y51608D01*
X33613Y51406D02*
X35461Y51406D01*
X35461Y51205D02*
X33613Y51205D01*
X33613Y51003D02*
X35461Y51003D01*
X33793Y49995D02*
X33613Y49995D01*
X33613Y49793D02*
X33613Y49793D01*
X33613Y49613D02*
X33613Y49613D01*
X33105Y50377D02*
X33105Y52790D01*
X38312Y57997D01*
X44662Y57997D01*
X49742Y55457D02*
X51329Y55457D01*
X47973Y51608D02*
X44707Y51608D01*
X44505Y51406D02*
X45117Y51406D01*
X44941Y51205D02*
X44303Y51205D01*
X43709Y50694D02*
X43239Y50224D01*
X43239Y49367D01*
X43239Y48567D02*
X44637Y48567D01*
X44662Y47519D02*
X44109Y46967D01*
X43239Y46967D01*
X43277Y46969D02*
X44177Y46969D01*
X44213Y47005D02*
X43277Y47005D01*
X43277Y46929D01*
X44136Y46929D01*
X44213Y47005D01*
X44230Y45476D02*
X44363Y45343D01*
X44471Y45343D01*
X44471Y44936D01*
X44332Y45075D01*
X44230Y45075D01*
X44230Y45329D01*
X43277Y45329D01*
X43277Y45405D01*
X44230Y45405D01*
X44230Y45476D01*
X44351Y45355D02*
X43277Y45355D01*
X44230Y45154D02*
X44471Y45154D01*
X44455Y44952D02*
X44471Y44952D01*
X47687Y45961D02*
X47982Y45961D01*
X48472Y46567D02*
X48472Y51012D01*
X47964Y49995D02*
X47176Y49995D01*
X47176Y49793D02*
X47964Y49793D01*
X47964Y49591D02*
X47319Y49591D01*
X44941Y49995D02*
X44100Y49995D01*
X43709Y50694D02*
X44909Y50694D01*
X45043Y50561D01*
X43673Y52012D02*
X42531Y52012D01*
X42579Y52128D02*
X42579Y52436D01*
X42461Y52720D01*
X42455Y52726D01*
X44388Y52726D01*
X42432Y50771D01*
X42432Y51663D01*
X42357Y51738D01*
X42461Y51843D01*
X42579Y52128D01*
X42579Y52213D02*
X43875Y52213D01*
X44077Y52415D02*
X42579Y52415D01*
X42504Y52617D02*
X44278Y52617D01*
X43471Y51810D02*
X42428Y51810D01*
X42432Y51608D02*
X43270Y51608D01*
X43068Y51406D02*
X42432Y51406D01*
X42432Y51205D02*
X42866Y51205D01*
X42665Y51003D02*
X42432Y51003D01*
X42432Y50801D02*
X42463Y50801D01*
X41804Y50694D02*
X41804Y52282D01*
X41747Y50859D02*
X41747Y50752D01*
X41804Y50694D01*
X34654Y46167D02*
X34584Y46167D01*
X33016Y46162D02*
X32813Y46162D01*
X32813Y46364D02*
X33016Y46364D01*
X33016Y46566D02*
X32813Y46566D01*
X32813Y46767D02*
X33016Y46767D01*
X32914Y45932D02*
X32914Y44979D01*
X32914Y43506D01*
X31606Y42198D01*
X29472Y42198D01*
X28231Y42330D02*
X35461Y42330D01*
X35461Y42532D02*
X28178Y42532D01*
X28089Y42733D02*
X35461Y42733D01*
X35461Y42935D02*
X27957Y42935D01*
X26983Y42935D02*
X26780Y42935D01*
X26780Y42733D02*
X26983Y42733D01*
X26983Y42532D02*
X26780Y42532D01*
X26780Y42330D02*
X26983Y42330D01*
X26983Y42128D02*
X35461Y42128D01*
X35461Y41927D02*
X28246Y41927D01*
X28208Y41725D02*
X35461Y41725D01*
X35461Y41523D02*
X28137Y41523D01*
X28025Y41321D02*
X35610Y41321D01*
X37169Y41120D02*
X27860Y41120D01*
X27614Y40918D02*
X37169Y40918D01*
X35520Y43137D02*
X35513Y43137D01*
X26983Y43137D02*
X26780Y43137D01*
X26780Y43338D02*
X26983Y43338D01*
X43265Y31640D02*
X43304Y31640D01*
X53496Y25791D02*
X54817Y25791D01*
X54724Y25992D02*
X53698Y25992D01*
X53900Y26194D02*
X54682Y26194D01*
X54682Y26396D02*
X54102Y26396D01*
X54303Y26597D02*
X54763Y26597D01*
X54913Y26799D02*
X54505Y26799D01*
X55020Y25589D02*
X53425Y25589D01*
X46515Y18529D02*
X45436Y18529D01*
X24698Y17319D02*
X21346Y17319D01*
X21106Y17521D02*
X24496Y17521D01*
X24398Y17723D02*
X20564Y17723D01*
X56681Y47372D02*
X56854Y47372D01*
X56889Y47574D02*
X56681Y47574D01*
X56681Y47776D02*
X57090Y47776D01*
X71985Y41523D02*
X72094Y41523D01*
X72086Y38901D02*
X72094Y38901D01*
D36*
X71332Y38312D03*
X69109Y37994D03*
X68157Y38629D03*
X67839Y40217D03*
X63712Y37359D03*
X60854Y35772D03*
X62442Y33232D03*
X60918Y32089D03*
X61807Y31009D03*
X63712Y30692D03*
X61489Y28469D03*
X58632Y29739D03*
X58314Y28469D03*
X56727Y26882D03*
X55457Y26247D03*
X52917Y27834D03*
X51647Y30057D03*
X52282Y31009D03*
X55774Y32914D03*
X55647Y34883D03*
X52726Y36534D03*
X50377Y38693D03*
X53552Y39899D03*
X54631Y39899D03*
X54949Y38947D03*
X55774Y39899D03*
X56092Y42376D03*
X54822Y42439D03*
X56092Y43709D03*
X57679Y44979D03*
X58632Y45932D03*
X59330Y44979D03*
X59330Y43709D03*
X57362Y42757D03*
X52472Y43963D03*
X51329Y44027D03*
X51647Y44979D03*
X50377Y45297D03*
X48472Y46567D03*
X47519Y47519D03*
X49742Y47519D03*
X51329Y48789D03*
X52917Y47837D03*
X54187Y51012D03*
X56790Y50948D03*
X53806Y53361D03*
X50377Y52282D03*
X48472Y51012D03*
X47646Y50059D03*
X44662Y47519D03*
X41804Y45297D03*
X40534Y44344D03*
X39264Y47837D03*
X34502Y51329D03*
X40217Y52282D03*
X41804Y52282D03*
X43392Y52282D03*
X40217Y54504D03*
X32597Y57362D03*
X32914Y44979D03*
X28152Y44344D03*
X29422Y39582D03*
X36407Y37994D03*
X37613Y38756D03*
X39264Y36724D03*
X40852Y37042D03*
X42757Y38629D03*
X44662Y37169D03*
X45614Y38947D03*
X47519Y38947D03*
X44344Y41169D03*
X47202Y42122D03*
X49234Y42503D03*
X51329Y42757D03*
X61807Y40217D03*
X62759Y39264D03*
X65299Y34184D03*
X56727Y31009D03*
X49742Y34375D03*
X47329Y35264D03*
X45297Y32914D03*
X43709Y33549D03*
X41169Y31962D03*
X40534Y31009D03*
X40534Y29422D03*
X41995Y26247D03*
X41487Y24977D03*
X42439Y24024D03*
X46249Y24977D03*
X46249Y26247D03*
X46884Y28469D03*
X49107Y26882D03*
X52917Y24659D03*
X55711Y22818D03*
X56092Y24342D03*
X60219Y25294D03*
X60346Y23897D03*
X60219Y21802D03*
X61807Y19579D03*
X64029Y19579D03*
X68474Y23707D03*
X65299Y25612D03*
X63394Y26247D03*
X62442Y24977D03*
X66569Y27517D03*
X69490Y26247D03*
X51647Y21802D03*
X51012Y20532D03*
X49107Y22754D03*
X44979Y21167D03*
X43392Y19389D03*
X44662Y18627D03*
X44662Y14182D03*
X48472Y14499D03*
X38312Y19897D03*
X35137Y19262D03*
X33232Y16404D03*
X31962Y15452D03*
X35137Y14499D03*
X30692Y19579D03*
X28787Y19897D03*
X26882Y26247D03*
X29422Y27834D03*
X34184Y26247D03*
X33232Y31327D03*
X36089Y33549D03*
X40852Y34502D03*
X47202Y31644D03*
X40534Y39899D03*
X40852Y41042D03*
X29422Y34819D03*
X62759Y49107D03*
D37*
X37677Y36622D02*
X36089Y36622D01*
X36039Y36672D01*
X34502Y36672D01*
X34184Y36989D01*
X34184Y37994D01*
X33740Y38439D01*
X32279Y38439D01*
X26882Y38439D01*
X26120Y37677D01*
X17992Y37677D01*
X34502Y34872D02*
X34502Y33084D01*
X35307Y32279D01*
X37407Y33229D02*
X39364Y33229D01*
X39367Y33232D02*
X39367Y31372D01*
M02*
