%
M48
M71
T01C0.381
T02C0.900
T03C1.016
T04C1.200
T05C3.302
%
T01
X30692Y19579
X28787Y19897
X33232Y16404
X31962Y15452
X35137Y14499
X35137Y19262
X38312Y19897
X43392Y19389
X44662Y18627
X44979Y21167
X42439Y24024
X41487Y24977
X41995Y26247
X40534Y29422
X40534Y31009
X41169Y31962
X43709Y33549
X45297Y32914
X47202Y31644
X46884Y28469
X49107Y26882
X46249Y26247
X46249Y24977
X49107Y22754
X51647Y21802
X51012Y20532
X55711Y22818
X56092Y24342
X55457Y26247
X56727Y26882
X58314Y28469
X58632Y29739
X56727Y31009
X55774Y32914
X55647Y34883
X52726Y36534
X50377Y38693
X53552Y39899
X54631Y39899
X54949Y38947
X55774Y39899
X56092Y42376
X54822Y42439
X56092Y43709
X57679Y44979
X58632Y45932
X59330Y44979
X59330Y43709
X57362Y42757
X52472Y43963
X51329Y44027
X51647Y44979
X50377Y45297
X48472Y46567
X47519Y47519
X49742Y47519
X51329Y48789
X52917Y47837
X54187Y51012
X56790Y50948
X53806Y53361
X50377Y52282
X48472Y51012
X47646Y50059
X44662Y47519
X41804Y45297
X40534Y44344
X39264Y47837
X34502Y51329
X40217Y52282
X41804Y52282
X43392Y52282
X40217Y54504
X32597Y57362
X32914Y44979
X28152Y44344
X29422Y39582
X36407Y37994
X37613Y38756
X39264Y36724
X40852Y37042
X42757Y38629
X44662Y37169
X45614Y38947
X47519Y38947
X44344Y41169
X47202Y42122
X49234Y42503
X51329Y42757
X61807Y40217
X62759Y39264
X63712Y37359
X60854Y35772
X62442Y33232
X60918Y32089
X61807Y31009
X63712Y30692
X61489Y28469
X63394Y26247
X62442Y24977
X60219Y25294
X60346Y23897
X60219Y21802
X61807Y19579
X64029Y19579
X68474Y23707
X65299Y25612
X66569Y27517
X69490Y26247
X65299Y34184
X69109Y37994
X68157Y38629
X67839Y40217
X71332Y38312
X62759Y49107
X47329Y35264
X49742Y34375
X52282Y31009
X51647Y30057
X52917Y27834
X52917Y24659
X48472Y14499
X44662Y14182
X34184Y26247
X29422Y27834
X26882Y26247
X33232Y31327
X36089Y33549
X40852Y34502
X40534Y39899
X40852Y41042
X29422Y34819
T02
X67522Y42462
X67522Y46862
T03
X71332Y35137
X71332Y32597
X71332Y30057
X71332Y27517
X71332Y24977
X71332Y22437
X61172Y13547
X52282Y13547
X49742Y13547
X47202Y13547
X47202Y17357
X49742Y17357
X52282Y17357
X42122Y17357
X39582Y17357
X37042Y17357
X37042Y13547
X39582Y13547
X42122Y13547
X25612Y18309
X25612Y20849
X17992Y27517
X17992Y30057
X17992Y32597
X17992Y35137
X17992Y37677
X17992Y44027
X17992Y46567
X17992Y49107
X44662Y55457
X47202Y55457
X49742Y55457
X49742Y57997
X47202Y57997
X44662Y57997
T04
X26882Y49437
X26882Y45759
X26882Y42081
X26882Y38439
X26882Y34939
X26882Y31439
X26882Y27939
X26882Y24439
T05
X19897Y15452
X69427Y15452
X69427Y56092
X19897Y56092
M30
